{
.appVersion = "1352";
DisplayStrings = (
"/Hurricane",
"/abreve.fina/i.ss02/j.ss02/jcircumflex.ss02",
"/ldot.ss03",
"h/a.fina/h.ss03/h.fina/h.ss04/h.ss05 \012/l.ss03/space/l.fina/d.ss03/space/l.fina",
"/d.ss03/l.fina",
"abcdefghi/jdotless.ss02/jcircumflex.ss02 jklmnopqrstuvwxyz",
"/l.ss01/space/ldot l.",
"/Germandbls.ss01 na",
"itinerario/space iítí",
"Traditionally/space appropiate/space type\012nn/Placeholder no/Placeholder oo\012typeface/bullet s(~",
"Alle/space mennesker/space er/space født/space frie/space og/space likeverdige/space og/space verdige./space De/space er/space utstyrt/space med/space fornuft/space og/space samvittighet/space og/space bør/space handle/space mot/space hverandre/space i/space en/space brorskapsånd./space NorwayTots/space els/space éssers/space humans/space neixen/space lliures/space i/space iguals/space en/space dignitat/space i/space drets./space Estan/space dotats/space de/space raó/space i/space consciència/space i/space han/space/dcaron actuar/space els/space uns/space amb/space els/space altres/space amb/space esperit/space de/space germanor./space Catalan"
);
classes = (
{
automatic = 1;

glyphs = (
{
color = 3;
glyphname = .notdef;
lastChange = "2021-10-01 08:00:59 +0000";
layers = (
{
background = {
paths = (
{
closed = 1;
nodes = (
"438 -5 LINE",
"449 7 LINE",
"449 575 LINE",
"438 587 LINE",
"47 587 LINE",
"35 575 LINE",
"35 7 LINE",
"47 -5 LINE"
);
},
{
closed = 1;
nodes = (
"142 139 LINE",
"225 292 LINE",
"142 443 LINE",
"153 465 LINE",
"236 314 LINE",
"321 466 LINE",
"334 443 LINE",
"248 290 LINE",
"334 139 LINE",
"321 117 LINE",
"236 267 LINE",
"153 117 LINE"
);
},
{
closed = 1;
nodes = (
"61 21 LINE",
"61 561 LINE",
"425 561 LINE",
"425 21 LINE"
);
},
{
closed = 1;
nodes = (
"82 40 LINE",
"402 40 LINE",
"402 538 LINE",
"82 538 LINE"
);
}
);
};
layerId = "C7EEC47D-2D39-4E2B-85C4-E2E866CE7804";
paths = (
{
closed = 1;
nodes = (
"438 5 LINE",
"449 17 LINE",
"449 585 LINE",
"438 597 LINE",
"47 597 LINE",
"35 585 LINE",
"35 17 LINE",
"47 5 LINE"
);
},
{
closed = 1;
nodes = (
"142 149 LINE",
"225 302 LINE",
"142 453 LINE",
"153 475 LINE",
"236 324 LINE",
"321 476 LINE",
"334 453 LINE",
"248 300 LINE",
"334 149 LINE",
"321 127 LINE",
"236 277 LINE",
"153 127 LINE"
);
},
{
closed = 1;
nodes = (
"61 571 LINE",
"425 571 LINE",
"425 31 LINE",
"61 31 LINE"
);
},
{
closed = 1;
nodes = (
"402 50 LINE",
"402 548 LINE",
"82 548 LINE",
"82 50 LINE"
);
}
);
width = 484;
}
);
note = .notdef;
},
{
color = 9;
glyphname = A;
lastChange = "2021-10-08 03:45:14 +0000";
layers = (
{
anchors = (
{
name = bottom;
position = "{188, 0}";
},
{
name = ogonek;
position = "{388, -47}";
},
{
name = top;
position = "{558, 585}";
}
);
background = {
paths = (
{
closed = 1;
nodes = (
"386 -80 OFFCURVE",
"395 -74 OFFCURVE",
"394 -72 CURVE SMOOTH",
"390 -65 OFFCURVE",
"388 -57 OFFCURVE",
"388 -46 CURVE SMOOTH",
"388 -19 OFFCURVE",
"401 23 OFFCURVE",
"432 98 CURVE SMOOTH",
"485 218 OFFCURVE",
"615 504 OFFCURVE",
"615 547 CURVE SMOOTH",
"615 568 OFFCURVE",
"570 575 OFFCURVE",
"555 575 CURVE SMOOTH",
"446 575 OFFCURVE",
"188 341 OFFCURVE",
"118 254 CURVE",
"88 246 OFFCURVE",
"-28 255 OFFCURVE",
"-38 226 CURVE",
"-36 218 OFFCURVE",
"-25 211 OFFCURVE",
"-17 211 CURVE SMOOTH",
"17 211 OFFCURVE",
"52 212 OFFCURVE",
"86 212 CURVE",
"41 155 OFFCURVE",
"-39 23 OFFCURVE",
"-39 -49 CURVE SMOOTH",
"-39 -56 OFFCURVE",
"-28 -75 OFFCURVE",
"-20 -75 CURVE SMOOTH",
"-16 -75 OFFCURVE",
"-15 -70 OFFCURVE",
"-15 -67 CURVE",
"5 12 OFFCURVE",
"104 214 OFFCURVE",
"169 214 CURVE SMOOTH",
"216 214 OFFCURVE",
"405 219 OFFCURVE",
"405 245 CURVE SMOOTH",
"405 257 OFFCURVE",
"329 259 OFFCURVE",
"318 259 CURVE SMOOTH",
"177 259 LINE",
"284 383 OFFCURVE",
"384 479 OFFCURVE",
"540 542 CURVE",
"527 485 OFFCURVE",
"450 242 OFFCURVE",
"408 133 CURVE SMOOTH",
"386 75 OFFCURVE",
"361 8 OFFCURVE",
"361 -35 CURVE SMOOTH",
"361 -56 OFFCURVE",
"367 -72 OFFCURVE",
"382 -78 CURVE SMOOTH"
);
}
);
};
layerId = "C7EEC47D-2D39-4E2B-85C4-E2E866CE7804";
paths = (
{
closed = 1;
nodes = (
"386 -70 OFFCURVE",
"395 -64 OFFCURVE",
"394 -62 CURVE SMOOTH",
"390 -55 OFFCURVE",
"388 -47 OFFCURVE",
"388 -36 CURVE SMOOTH",
"388 -9 OFFCURVE",
"401 33 OFFCURVE",
"432 108 CURVE SMOOTH",
"485 228 OFFCURVE",
"615 514 OFFCURVE",
"615 557 CURVE SMOOTH",
"615 578 OFFCURVE",
"570 585 OFFCURVE",
"555 585 CURVE SMOOTH",
"446 585 OFFCURVE",
"188 351 OFFCURVE",
"118 264 CURVE",
"88 256 OFFCURVE",
"-28 265 OFFCURVE",
"-38 236 CURVE",
"-36 228 OFFCURVE",
"-25 221 OFFCURVE",
"-17 221 CURVE SMOOTH",
"17 221 OFFCURVE",
"52 222 OFFCURVE",
"86 222 CURVE",
"41 165 OFFCURVE",
"-39 33 OFFCURVE",
"-39 -39 CURVE SMOOTH",
"-39 -46 OFFCURVE",
"-28 -65 OFFCURVE",
"-20 -65 CURVE SMOOTH",
"-16 -65 OFFCURVE",
"-15 -60 OFFCURVE",
"-15 -57 CURVE",
"5 22 OFFCURVE",
"104 224 OFFCURVE",
"169 224 CURVE SMOOTH",
"216 224 OFFCURVE",
"405 229 OFFCURVE",
"405 255 CURVE SMOOTH",
"405 267 OFFCURVE",
"329 269 OFFCURVE",
"318 269 CURVE SMOOTH",
"177 269 LINE",
"284 393 OFFCURVE",
"384 489 OFFCURVE",
"540 552 CURVE",
"527 495 OFFCURVE",
"450 252 OFFCURVE",
"408 143 CURVE SMOOTH",
"386 85 OFFCURVE",
"361 18 OFFCURVE",
"361 -25 CURVE SMOOTH",
"361 -46 OFFCURVE",
"367 -62 OFFCURVE",
"382 -68 CURVE SMOOTH"
);
}
);
width = 469;
}
);
note = A;
unicode = 0041;
},
{
glyphname = Aacute;
lastChange = "2021-10-01 07:33:16 +0000";
layers = (
{
background = {
paths = (
{
closed = 1;
nodes = (
"386 -80 OFFCURVE",
"395 -74 OFFCURVE",
"394 -72 CURVE SMOOTH",
"390 -65 OFFCURVE",
"388 -57 OFFCURVE",
"388 -46 CURVE SMOOTH",
"388 -19 OFFCURVE",
"401 23 OFFCURVE",
"432 98 CURVE SMOOTH",
"485 218 OFFCURVE",
"615 504 OFFCURVE",
"615 547 CURVE SMOOTH",
"615 568 OFFCURVE",
"570 575 OFFCURVE",
"555 575 CURVE SMOOTH",
"446 575 OFFCURVE",
"188 341 OFFCURVE",
"118 254 CURVE",
"88 246 OFFCURVE",
"-28 255 OFFCURVE",
"-38 226 CURVE",
"-36 218 OFFCURVE",
"-25 211 OFFCURVE",
"-17 211 CURVE SMOOTH",
"17 211 OFFCURVE",
"52 212 OFFCURVE",
"86 212 CURVE",
"41 155 OFFCURVE",
"-39 23 OFFCURVE",
"-39 -49 CURVE SMOOTH",
"-39 -56 OFFCURVE",
"-28 -75 OFFCURVE",
"-20 -75 CURVE SMOOTH",
"-16 -75 OFFCURVE",
"-15 -70 OFFCURVE",
"-15 -67 CURVE",
"5 12 OFFCURVE",
"104 214 OFFCURVE",
"169 214 CURVE SMOOTH",
"216 214 OFFCURVE",
"405 219 OFFCURVE",
"405 245 CURVE SMOOTH",
"405 257 OFFCURVE",
"329 259 OFFCURVE",
"318 259 CURVE SMOOTH",
"177 259 LINE",
"284 383 OFFCURVE",
"384 479 OFFCURVE",
"540 542 CURVE",
"527 485 OFFCURVE",
"450 242 OFFCURVE",
"408 133 CURVE SMOOTH",
"386 75 OFFCURVE",
"361 8 OFFCURVE",
"361 -35 CURVE SMOOTH",
"361 -56 OFFCURVE",
"367 -72 OFFCURVE",
"382 -78 CURVE SMOOTH"
);
},
{
closed = 1;
nodes = (
"552 641 OFFCURVE",
"663 683 OFFCURVE",
"677 693 CURVE",
"683 696 OFFCURVE",
"687 703 OFFCURVE",
"688 710 CURVE SMOOTH",
"688 716 OFFCURVE",
"679 732 OFFCURVE",
"671 732 CURVE SMOOTH",
"666 732 OFFCURVE",
"660 728 OFFCURVE",
"655 726 CURVE",
"622 704 OFFCURVE",
"572 678 OFFCURVE",
"543 654 CURVE SMOOTH",
"541 652 OFFCURVE",
"539 650 OFFCURVE",
"538 647 CURVE",
"538 644 OFFCURVE",
"541 642 OFFCURVE",
"545 642 CURVE SMOOTH"
);
}
);
};
components = (
{
name = A;
},
{
name = acutecomb.case;
transform = "{1, 0, 0, 1, 515, 285}";
}
);
layerId = "C7EEC47D-2D39-4E2B-85C4-E2E866CE7804";
width = 469;
}
);
note = Aacute;
unicode = 00C1;
},
{
glyphname = Abreve;
lastChange = "2021-10-01 07:33:16 +0000";
layers = (
{
background = {
paths = (
{
closed = 1;
nodes = (
"386 -80 OFFCURVE",
"395 -74 OFFCURVE",
"394 -72 CURVE SMOOTH",
"390 -65 OFFCURVE",
"388 -57 OFFCURVE",
"388 -46 CURVE SMOOTH",
"388 -19 OFFCURVE",
"401 23 OFFCURVE",
"432 98 CURVE SMOOTH",
"485 218 OFFCURVE",
"615 504 OFFCURVE",
"615 547 CURVE SMOOTH",
"615 568 OFFCURVE",
"570 575 OFFCURVE",
"555 575 CURVE SMOOTH",
"446 575 OFFCURVE",
"188 341 OFFCURVE",
"118 254 CURVE",
"88 246 OFFCURVE",
"-28 255 OFFCURVE",
"-38 226 CURVE",
"-36 218 OFFCURVE",
"-25 211 OFFCURVE",
"-17 211 CURVE SMOOTH",
"17 211 OFFCURVE",
"52 212 OFFCURVE",
"86 212 CURVE",
"41 155 OFFCURVE",
"-39 23 OFFCURVE",
"-39 -49 CURVE SMOOTH",
"-39 -56 OFFCURVE",
"-28 -75 OFFCURVE",
"-20 -75 CURVE SMOOTH",
"-16 -75 OFFCURVE",
"-15 -70 OFFCURVE",
"-15 -67 CURVE",
"5 12 OFFCURVE",
"104 214 OFFCURVE",
"169 214 CURVE SMOOTH",
"216 214 OFFCURVE",
"405 219 OFFCURVE",
"405 245 CURVE SMOOTH",
"405 257 OFFCURVE",
"329 259 OFFCURVE",
"318 259 CURVE SMOOTH",
"177 259 LINE",
"284 383 OFFCURVE",
"384 479 OFFCURVE",
"540 542 CURVE",
"527 485 OFFCURVE",
"450 242 OFFCURVE",
"408 133 CURVE SMOOTH",
"386 75 OFFCURVE",
"361 8 OFFCURVE",
"361 -35 CURVE SMOOTH",
"361 -56 OFFCURVE",
"367 -72 OFFCURVE",
"382 -78 CURVE SMOOTH"
);
},
{
closed = 1;
nodes = (
"657 645 OFFCURVE",
"699 688 OFFCURVE",
"707 733 CURVE",
"707 740 OFFCURVE",
"703 742 OFFCURVE",
"699 742 CURVE SMOOTH",
"696 742 OFFCURVE",
"692 740 OFFCURVE",
"691 736 CURVE SMOOTH",
"682 702 OFFCURVE",
"648 677 OFFCURVE",
"609 677 CURVE SMOOTH",
"547 677 OFFCURVE",
"549 738 OFFCURVE",
"536 738 CURVE SMOOTH",
"523 738 OFFCURVE",
"519 726 OFFCURVE",
"519 716 CURVE SMOOTH",
"519 711 OFFCURVE",
"520 707 OFFCURVE",
"521 704 CURVE SMOOTH",
"532 671 OFFCURVE",
"555 645 OFFCURVE",
"607 645 CURVE SMOOTH"
);
}
);
};
components = (
{
name = A;
},
{
name = brevecomb.case;
transform = "{1, 0, 0, 1, 477, 285}";
}
);
layerId = "C7EEC47D-2D39-4E2B-85C4-E2E866CE7804";
width = 469;
}
);
note = Abreve;
unicode = 0102;
},
{
glyphname = Acircumflex;
lastChange = "2021-10-01 07:33:16 +0000";
layers = (
{
background = {
paths = (
{
closed = 1;
nodes = (
"386 -80 OFFCURVE",
"395 -74 OFFCURVE",
"394 -72 CURVE SMOOTH",
"390 -65 OFFCURVE",
"388 -57 OFFCURVE",
"388 -46 CURVE SMOOTH",
"388 -19 OFFCURVE",
"401 23 OFFCURVE",
"432 98 CURVE SMOOTH",
"485 218 OFFCURVE",
"615 504 OFFCURVE",
"615 547 CURVE SMOOTH",
"615 568 OFFCURVE",
"570 575 OFFCURVE",
"555 575 CURVE SMOOTH",
"446 575 OFFCURVE",
"188 341 OFFCURVE",
"118 254 CURVE",
"88 246 OFFCURVE",
"-28 255 OFFCURVE",
"-38 226 CURVE",
"-36 218 OFFCURVE",
"-25 211 OFFCURVE",
"-17 211 CURVE SMOOTH",
"17 211 OFFCURVE",
"52 212 OFFCURVE",
"86 212 CURVE",
"41 155 OFFCURVE",
"-39 23 OFFCURVE",
"-39 -49 CURVE SMOOTH",
"-39 -56 OFFCURVE",
"-28 -75 OFFCURVE",
"-20 -75 CURVE SMOOTH",
"-16 -75 OFFCURVE",
"-15 -70 OFFCURVE",
"-15 -67 CURVE",
"5 12 OFFCURVE",
"104 214 OFFCURVE",
"169 214 CURVE SMOOTH",
"216 214 OFFCURVE",
"405 219 OFFCURVE",
"405 245 CURVE SMOOTH",
"405 257 OFFCURVE",
"329 259 OFFCURVE",
"318 259 CURVE SMOOTH",
"177 259 LINE",
"284 383 OFFCURVE",
"384 479 OFFCURVE",
"540 542 CURVE",
"527 485 OFFCURVE",
"450 242 OFFCURVE",
"408 133 CURVE SMOOTH",
"386 75 OFFCURVE",
"361 8 OFFCURVE",
"361 -35 CURVE SMOOTH",
"361 -56 OFFCURVE",
"367 -72 OFFCURVE",
"382 -78 CURVE SMOOTH"
);
},
{
closed = 1;
nodes = (
"520 655 OFFCURVE",
"522 655 OFFCURVE",
"524 657 CURVE",
"555 679 OFFCURVE",
"616 727 OFFCURVE",
"629 737 CURVE",
"635 717 OFFCURVE",
"678 659 OFFCURVE",
"697 658 CURVE SMOOTH",
"703 658 OFFCURVE",
"706 660 OFFCURVE",
"706 664 CURVE SMOOTH",
"706 667 OFFCURVE",
"705 670 OFFCURVE",
"703 674 CURVE SMOOTH",
"685 703 OFFCURVE",
"667 734 OFFCURVE",
"657 771 CURVE",
"655 775 OFFCURVE",
"650 776 OFFCURVE",
"645 776 CURVE SMOOTH",
"642 776 OFFCURVE",
"639 776 OFFCURVE",
"637 775 CURVE SMOOTH",
"625 769 OFFCURVE",
"527 679 OFFCURVE",
"517 671 CURVE SMOOTH",
"512 668 OFFCURVE",
"510 664 OFFCURVE",
"510 661 CURVE SMOOTH",
"510 658 OFFCURVE",
"513 655 OFFCURVE",
"518 655 CURVE SMOOTH"
);
}
);
};
components = (
{
name = A;
},
{
name = circumflexcomb.case;
transform = "{1, 0, 0, 1, 463, 285}";
}
);
layerId = "C7EEC47D-2D39-4E2B-85C4-E2E866CE7804";
width = 469;
}
);
note = Acircumflex;
unicode = 00C2;
},
{
glyphname = Adieresis;
lastChange = "2021-10-01 07:33:16 +0000";
layers = (
{
background = {
paths = (
{
closed = 1;
nodes = (
"386 -80 OFFCURVE",
"395 -74 OFFCURVE",
"394 -72 CURVE SMOOTH",
"390 -65 OFFCURVE",
"388 -57 OFFCURVE",
"388 -46 CURVE SMOOTH",
"388 -19 OFFCURVE",
"401 23 OFFCURVE",
"432 98 CURVE SMOOTH",
"485 218 OFFCURVE",
"615 504 OFFCURVE",
"615 547 CURVE SMOOTH",
"615 568 OFFCURVE",
"570 575 OFFCURVE",
"555 575 CURVE SMOOTH",
"446 575 OFFCURVE",
"188 341 OFFCURVE",
"118 254 CURVE",
"88 246 OFFCURVE",
"-28 255 OFFCURVE",
"-38 226 CURVE",
"-36 218 OFFCURVE",
"-25 211 OFFCURVE",
"-17 211 CURVE SMOOTH",
"17 211 OFFCURVE",
"52 212 OFFCURVE",
"86 212 CURVE",
"41 155 OFFCURVE",
"-39 23 OFFCURVE",
"-39 -49 CURVE SMOOTH",
"-39 -56 OFFCURVE",
"-28 -75 OFFCURVE",
"-20 -75 CURVE SMOOTH",
"-16 -75 OFFCURVE",
"-15 -70 OFFCURVE",
"-15 -67 CURVE",
"5 12 OFFCURVE",
"104 214 OFFCURVE",
"169 214 CURVE SMOOTH",
"216 214 OFFCURVE",
"405 219 OFFCURVE",
"405 245 CURVE SMOOTH",
"405 257 OFFCURVE",
"329 259 OFFCURVE",
"318 259 CURVE SMOOTH",
"177 259 LINE",
"284 383 OFFCURVE",
"384 479 OFFCURVE",
"540 542 CURVE",
"527 485 OFFCURVE",
"450 242 OFFCURVE",
"408 133 CURVE SMOOTH",
"386 75 OFFCURVE",
"361 8 OFFCURVE",
"361 -35 CURVE SMOOTH",
"361 -56 OFFCURVE",
"367 -72 OFFCURVE",
"382 -78 CURVE SMOOTH"
);
},
{
closed = 1;
nodes = (
"564 657 OFFCURVE",
"590 698 OFFCURVE",
"591 708 CURVE SMOOTH",
"592 721 OFFCURVE",
"580 732 OFFCURVE",
"569 732 CURVE SMOOTH",
"549 732 OFFCURVE",
"518 696 OFFCURVE",
"518 679 CURVE SMOOTH",
"518 660 OFFCURVE",
"541 657 OFFCURVE",
"553 657 CURVE SMOOTH"
);
},
{
closed = 1;
nodes = (
"684 657 OFFCURVE",
"710 698 OFFCURVE",
"711 708 CURVE SMOOTH",
"712 721 OFFCURVE",
"700 732 OFFCURVE",
"689 732 CURVE SMOOTH",
"669 732 OFFCURVE",
"638 696 OFFCURVE",
"638 679 CURVE SMOOTH",
"638 660 OFFCURVE",
"661 657 OFFCURVE",
"673 657 CURVE SMOOTH"
);
}
);
};
components = (
{
name = A;
},
{
name = dieresiscomb.case;
transform = "{1, 0, 0, 1, 492, 285}";
}
);
layerId = "C7EEC47D-2D39-4E2B-85C4-E2E866CE7804";
width = 469;
}
);
note = Adieresis;
unicode = 00C4;
},
{
glyphname = Agrave;
lastChange = "2021-10-01 07:33:16 +0000";
layers = (
{
background = {
paths = (
{
closed = 1;
nodes = (
"386 -80 OFFCURVE",
"395 -74 OFFCURVE",
"394 -72 CURVE SMOOTH",
"390 -65 OFFCURVE",
"388 -57 OFFCURVE",
"388 -46 CURVE SMOOTH",
"388 -19 OFFCURVE",
"401 23 OFFCURVE",
"432 98 CURVE SMOOTH",
"485 218 OFFCURVE",
"615 504 OFFCURVE",
"615 547 CURVE SMOOTH",
"615 568 OFFCURVE",
"570 575 OFFCURVE",
"555 575 CURVE SMOOTH",
"446 575 OFFCURVE",
"188 341 OFFCURVE",
"118 254 CURVE",
"88 246 OFFCURVE",
"-28 255 OFFCURVE",
"-38 226 CURVE",
"-36 218 OFFCURVE",
"-25 211 OFFCURVE",
"-17 211 CURVE SMOOTH",
"17 211 OFFCURVE",
"52 212 OFFCURVE",
"86 212 CURVE",
"41 155 OFFCURVE",
"-39 23 OFFCURVE",
"-39 -49 CURVE SMOOTH",
"-39 -56 OFFCURVE",
"-28 -75 OFFCURVE",
"-20 -75 CURVE SMOOTH",
"-16 -75 OFFCURVE",
"-15 -70 OFFCURVE",
"-15 -67 CURVE",
"5 12 OFFCURVE",
"104 214 OFFCURVE",
"169 214 CURVE SMOOTH",
"216 214 OFFCURVE",
"405 219 OFFCURVE",
"405 245 CURVE SMOOTH",
"405 257 OFFCURVE",
"329 259 OFFCURVE",
"318 259 CURVE SMOOTH",
"177 259 LINE",
"284 383 OFFCURVE",
"384 479 OFFCURVE",
"540 542 CURVE",
"527 485 OFFCURVE",
"450 242 OFFCURVE",
"408 133 CURVE SMOOTH",
"386 75 OFFCURVE",
"361 8 OFFCURVE",
"361 -35 CURVE SMOOTH",
"361 -56 OFFCURVE",
"367 -72 OFFCURVE",
"382 -78 CURVE SMOOTH"
);
},
{
closed = 1;
nodes = (
"670 632 OFFCURVE",
"673 634 OFFCURVE",
"673 637 CURVE",
"672 640 OFFCURVE",
"670 642 OFFCURVE",
"668 644 CURVE SMOOTH",
"639 668 OFFCURVE",
"589 694 OFFCURVE",
"556 716 CURVE",
"551 718 OFFCURVE",
"545 722 OFFCURVE",
"540 722 CURVE SMOOTH",
"538 722 LINE SMOOTH",
"531 721 OFFCURVE",
"523 706 OFFCURVE",
"523 700 CURVE SMOOTH",
"524 693 OFFCURVE",
"528 686 OFFCURVE",
"534 683 CURVE",
"548 673 OFFCURVE",
"659 631 OFFCURVE",
"666 632 CURVE SMOOTH"
);
}
);
};
components = (
{
name = A;
},
{
name = gravecomb.case;
transform = "{1, 0, 0, 1, 442, 285}";
}
);
layerId = "C7EEC47D-2D39-4E2B-85C4-E2E866CE7804";
width = 469;
}
);
note = Agrave;
unicode = 00C0;
},
{
glyphname = Amacron;
lastChange = "2021-10-01 07:33:16 +0000";
layers = (
{
background = {
paths = (
{
closed = 1;
nodes = (
"386 -80 OFFCURVE",
"395 -74 OFFCURVE",
"394 -72 CURVE SMOOTH",
"390 -65 OFFCURVE",
"388 -57 OFFCURVE",
"388 -46 CURVE SMOOTH",
"388 -19 OFFCURVE",
"401 23 OFFCURVE",
"432 98 CURVE SMOOTH",
"485 218 OFFCURVE",
"615 504 OFFCURVE",
"615 547 CURVE SMOOTH",
"615 568 OFFCURVE",
"570 575 OFFCURVE",
"555 575 CURVE SMOOTH",
"446 575 OFFCURVE",
"188 341 OFFCURVE",
"118 254 CURVE",
"88 246 OFFCURVE",
"-28 255 OFFCURVE",
"-38 226 CURVE",
"-36 218 OFFCURVE",
"-25 211 OFFCURVE",
"-17 211 CURVE SMOOTH",
"17 211 OFFCURVE",
"52 212 OFFCURVE",
"86 212 CURVE",
"41 155 OFFCURVE",
"-39 23 OFFCURVE",
"-39 -49 CURVE SMOOTH",
"-39 -56 OFFCURVE",
"-28 -75 OFFCURVE",
"-20 -75 CURVE SMOOTH",
"-16 -75 OFFCURVE",
"-15 -70 OFFCURVE",
"-15 -67 CURVE",
"5 12 OFFCURVE",
"104 214 OFFCURVE",
"169 214 CURVE SMOOTH",
"216 214 OFFCURVE",
"405 219 OFFCURVE",
"405 245 CURVE SMOOTH",
"405 257 OFFCURVE",
"329 259 OFFCURVE",
"318 259 CURVE SMOOTH",
"177 259 LINE",
"284 383 OFFCURVE",
"384 479 OFFCURVE",
"540 542 CURVE",
"527 485 OFFCURVE",
"450 242 OFFCURVE",
"408 133 CURVE SMOOTH",
"386 75 OFFCURVE",
"361 8 OFFCURVE",
"361 -35 CURVE SMOOTH",
"361 -56 OFFCURVE",
"367 -72 OFFCURVE",
"382 -78 CURVE SMOOTH"
);
},
{
closed = 1;
nodes = (
"647 660 LINE SMOOTH",
"678 660 OFFCURVE",
"696 668 OFFCURVE",
"696 677 CURVE SMOOTH",
"696 688 OFFCURVE",
"674 689 OFFCURVE",
"661 689 CURVE SMOOTH",
"549 689 LINE SMOOTH",
"527 689 OFFCURVE",
"504 675 OFFCURVE",
"504 666 CURVE SMOOTH",
"504 663 OFFCURVE",
"508 660 OFFCURVE",
"518 660 CURVE SMOOTH"
);
}
);
};
components = (
{
name = A;
},
{
name = macroncomb.case;
transform = "{1, 0, 0, 1, 474, 285}";
}
);
layerId = "C7EEC47D-2D39-4E2B-85C4-E2E866CE7804";
width = 469;
}
);
note = Amacron;
unicode = 0100;
},
{
glyphname = Aogonek;
lastChange = "2021-10-01 07:33:16 +0000";
layers = (
{
background = {
paths = (
{
closed = 1;
nodes = (
"386 -80 OFFCURVE",
"395 -74 OFFCURVE",
"394 -72 CURVE SMOOTH",
"390 -65 OFFCURVE",
"388 -57 OFFCURVE",
"388 -46 CURVE SMOOTH",
"388 -19 OFFCURVE",
"401 23 OFFCURVE",
"432 98 CURVE SMOOTH",
"485 218 OFFCURVE",
"615 504 OFFCURVE",
"615 547 CURVE SMOOTH",
"615 568 OFFCURVE",
"570 575 OFFCURVE",
"555 575 CURVE SMOOTH",
"446 575 OFFCURVE",
"188 341 OFFCURVE",
"118 254 CURVE",
"88 246 OFFCURVE",
"-28 255 OFFCURVE",
"-38 226 CURVE",
"-36 218 OFFCURVE",
"-25 211 OFFCURVE",
"-17 211 CURVE SMOOTH",
"17 211 OFFCURVE",
"52 212 OFFCURVE",
"86 212 CURVE",
"41 155 OFFCURVE",
"-39 23 OFFCURVE",
"-39 -49 CURVE SMOOTH",
"-39 -56 OFFCURVE",
"-28 -75 OFFCURVE",
"-20 -75 CURVE SMOOTH",
"-16 -75 OFFCURVE",
"-15 -70 OFFCURVE",
"-15 -67 CURVE",
"5 12 OFFCURVE",
"104 214 OFFCURVE",
"169 214 CURVE SMOOTH",
"216 214 OFFCURVE",
"405 219 OFFCURVE",
"405 245 CURVE SMOOTH",
"405 257 OFFCURVE",
"329 259 OFFCURVE",
"318 259 CURVE SMOOTH",
"177 259 LINE",
"284 383 OFFCURVE",
"384 479 OFFCURVE",
"540 542 CURVE",
"527 485 OFFCURVE",
"450 242 OFFCURVE",
"408 133 CURVE SMOOTH",
"386 75 OFFCURVE",
"361 8 OFFCURVE",
"361 -35 CURVE SMOOTH",
"361 -56 OFFCURVE",
"367 -72 OFFCURVE",
"382 -78 CURVE SMOOTH"
);
},
{
closed = 1;
nodes = (
"394 -228 OFFCURVE",
"484 -206 OFFCURVE",
"484 -186 CURVE SMOOTH",
"484 -181 OFFCURVE",
"479 -177 OFFCURVE",
"473 -177 CURVE SMOOTH",
"466 -177 OFFCURVE",
"426 -200 OFFCURVE",
"398 -200 CURVE SMOOTH",
"373 -200 OFFCURVE",
"353 -186 OFFCURVE",
"353 -159 CURVE SMOOTH",
"353 -132 OFFCURVE",
"372 -92 OFFCURVE",
"387 -71 CURVE",
"384 -68 LINE",
"352 -69 OFFCURVE",
"321 -159 OFFCURVE",
"321 -186 CURVE SMOOTH",
"321 -217 OFFCURVE",
"349 -228 OFFCURVE",
"376 -228 CURVE SMOOTH"
);
}
);
};
components = (
{
name = A;
},
{
name = ogonekcomb;
transform = "{1, 0, 0, 1, 299, -50}";
}
);
layerId = "C7EEC47D-2D39-4E2B-85C4-E2E866CE7804";
width = 469;
}
);
note = Aogonek;
unicode = 0104;
},
{
glyphname = Aring;
lastChange = "2021-10-01 07:33:16 +0000";
layers = (
{
background = {
paths = (
{
closed = 1;
nodes = (
"386 -80 OFFCURVE",
"395 -74 OFFCURVE",
"394 -72 CURVE SMOOTH",
"390 -65 OFFCURVE",
"388 -57 OFFCURVE",
"388 -46 CURVE SMOOTH",
"388 -19 OFFCURVE",
"401 23 OFFCURVE",
"432 98 CURVE SMOOTH",
"485 218 OFFCURVE",
"615 504 OFFCURVE",
"615 547 CURVE SMOOTH",
"615 568 OFFCURVE",
"570 575 OFFCURVE",
"555 575 CURVE SMOOTH",
"446 575 OFFCURVE",
"188 341 OFFCURVE",
"118 254 CURVE",
"88 246 OFFCURVE",
"-28 255 OFFCURVE",
"-38 226 CURVE",
"-36 218 OFFCURVE",
"-25 211 OFFCURVE",
"-17 211 CURVE SMOOTH",
"17 211 OFFCURVE",
"52 212 OFFCURVE",
"86 212 CURVE",
"41 155 OFFCURVE",
"-39 23 OFFCURVE",
"-39 -49 CURVE SMOOTH",
"-39 -56 OFFCURVE",
"-28 -75 OFFCURVE",
"-20 -75 CURVE SMOOTH",
"-16 -75 OFFCURVE",
"-15 -70 OFFCURVE",
"-15 -67 CURVE",
"5 12 OFFCURVE",
"104 214 OFFCURVE",
"169 214 CURVE SMOOTH",
"216 214 OFFCURVE",
"405 219 OFFCURVE",
"405 245 CURVE SMOOTH",
"405 257 OFFCURVE",
"329 259 OFFCURVE",
"318 259 CURVE SMOOTH",
"177 259 LINE",
"284 383 OFFCURVE",
"384 479 OFFCURVE",
"540 542 CURVE",
"527 485 OFFCURVE",
"450 242 OFFCURVE",
"408 133 CURVE SMOOTH",
"386 75 OFFCURVE",
"361 8 OFFCURVE",
"361 -35 CURVE SMOOTH",
"361 -56 OFFCURVE",
"367 -72 OFFCURVE",
"382 -78 CURVE SMOOTH"
);
},
{
closed = 1;
nodes = (
"627 566 OFFCURVE",
"671 613 OFFCURVE",
"671 660 CURVE SMOOTH",
"671 685 OFFCURVE",
"655 712 OFFCURVE",
"628 712 CURVE SMOOTH",
"573 712 OFFCURVE",
"534 654 OFFCURVE",
"534 611 CURVE SMOOTH",
"534 586 OFFCURVE",
"548 566 OFFCURVE",
"579 566 CURVE SMOOTH"
);
},
{
closed = 1;
nodes = (
"575 586 OFFCURVE",
"570 597 OFFCURVE",
"570 613 CURVE SMOOTH",
"570 645 OFFCURVE",
"593 695 OFFCURVE",
"623 695 CURVE SMOOTH",
"641 695 OFFCURVE",
"645 673 OFFCURVE",
"645 659 CURVE SMOOTH",
"645 629 OFFCURVE",
"632 586 OFFCURVE",
"588 586 CURVE SMOOTH"
);
}
);
};
components = (
{
name = A;
},
{
name = ringcomb.case;
transform = "{1, 0, 0, 1, 533, 285}";
}
);
layerId = "C7EEC47D-2D39-4E2B-85C4-E2E866CE7804";
width = 469;
}
);
note = Aring;
unicode = 00C5;
},
{
glyphname = Atilde;
lastChange = "2021-10-01 07:33:16 +0000";
layers = (
{
background = {
paths = (
{
closed = 1;
nodes = (
"386 -80 OFFCURVE",
"395 -74 OFFCURVE",
"394 -72 CURVE SMOOTH",
"390 -65 OFFCURVE",
"388 -57 OFFCURVE",
"388 -46 CURVE SMOOTH",
"388 -19 OFFCURVE",
"401 23 OFFCURVE",
"432 98 CURVE SMOOTH",
"485 218 OFFCURVE",
"615 504 OFFCURVE",
"615 547 CURVE SMOOTH",
"615 568 OFFCURVE",
"570 575 OFFCURVE",
"555 575 CURVE SMOOTH",
"446 575 OFFCURVE",
"188 341 OFFCURVE",
"118 254 CURVE",
"88 246 OFFCURVE",
"-28 255 OFFCURVE",
"-38 226 CURVE",
"-36 218 OFFCURVE",
"-25 211 OFFCURVE",
"-17 211 CURVE SMOOTH",
"17 211 OFFCURVE",
"52 212 OFFCURVE",
"86 212 CURVE",
"41 155 OFFCURVE",
"-39 23 OFFCURVE",
"-39 -49 CURVE SMOOTH",
"-39 -56 OFFCURVE",
"-28 -75 OFFCURVE",
"-20 -75 CURVE SMOOTH",
"-16 -75 OFFCURVE",
"-15 -70 OFFCURVE",
"-15 -67 CURVE",
"5 12 OFFCURVE",
"104 214 OFFCURVE",
"169 214 CURVE SMOOTH",
"216 214 OFFCURVE",
"405 219 OFFCURVE",
"405 245 CURVE SMOOTH",
"405 257 OFFCURVE",
"329 259 OFFCURVE",
"318 259 CURVE SMOOTH",
"177 259 LINE",
"284 383 OFFCURVE",
"384 479 OFFCURVE",
"540 542 CURVE",
"527 485 OFFCURVE",
"450 242 OFFCURVE",
"408 133 CURVE SMOOTH",
"386 75 OFFCURVE",
"361 8 OFFCURVE",
"361 -35 CURVE SMOOTH",
"361 -56 OFFCURVE",
"367 -72 OFFCURVE",
"382 -78 CURVE SMOOTH"
);
},
{
closed = 1;
nodes = (
"508 640 OFFCURVE",
"512 642 OFFCURVE",
"516 648 CURVE SMOOTH",
"530 667 OFFCURVE",
"555 681 OFFCURVE",
"576 681 CURVE SMOOTH",
"615 681 OFFCURVE",
"640 653 OFFCURVE",
"672 653 CURVE SMOOTH",
"705 653 OFFCURVE",
"730 685 OFFCURVE",
"739 711 CURVE SMOOTH",
"741 716 OFFCURVE",
"737 719 OFFCURVE",
"733 719 CURVE SMOOTH",
"730 719 OFFCURVE",
"726 718 OFFCURVE",
"723 714 CURVE SMOOTH",
"712 701 OFFCURVE",
"699 693 OFFCURVE",
"681 693 CURVE SMOOTH",
"649 693 OFFCURVE",
"615 723 OFFCURVE",
"582 723 CURVE SMOOTH",
"531 723 OFFCURVE",
"506 678 OFFCURVE",
"502 658 CURVE SMOOTH",
"500 649 OFFCURVE",
"501 640 OFFCURVE",
"506 640 CURVE SMOOTH"
);
}
);
};
components = (
{
name = A;
},
{
name = tildecomb.case;
transform = "{1, 0, 0, 1, 469, 285}";
}
);
layerId = "C7EEC47D-2D39-4E2B-85C4-E2E866CE7804";
width = 469;
}
);
note = Atilde;
unicode = 00C3;
},
{
glyphname = AE;
lastChange = "2021-10-01 08:00:59 +0000";
layers = (
{
anchors = (
{
name = bottom;
position = "{444, 0}";
},
{
name = top;
position = "{663, 593}";
}
);
background = {
paths = (
{
closed = 1;
nodes = (
"-16 -75 OFFCURVE",
"-15 -70 OFFCURVE",
"-15 -67 CURVE",
"5 12 OFFCURVE",
"102 207 OFFCURVE",
"193 216 CURVE SMOOTH",
"210 217 OFFCURVE",
"350 223 OFFCURVE",
"424 237 CURVE",
"404 194 OFFCURVE",
"384 145 OFFCURVE",
"384 102 CURVE SMOOTH",
"384 96 OFFCURVE",
"384 90 OFFCURVE",
"385 85 CURVE SMOOTH",
"395 4 OFFCURVE",
"452 -26 OFFCURVE",
"526 -26 CURVE SMOOTH",
"630 -26 OFFCURVE",
"902 65 OFFCURVE",
"955 142 CURVE SMOOTH",
"958 146 OFFCURVE",
"959 150 OFFCURVE",
"959 152 CURVE SMOOTH",
"959 155 OFFCURVE",
"958 156 OFFCURVE",
"956 156 CURVE SMOOTH",
"954 156 OFFCURVE",
"952 155 OFFCURVE",
"948 153 CURVE SMOOTH",
"849 98 OFFCURVE",
"656 40 OFFCURVE",
"536 25 CURVE SMOOTH",
"529 24 OFFCURVE",
"522 24 OFFCURVE",
"516 24 CURVE SMOOTH",
"462 24 OFFCURVE",
"445 57 OFFCURVE",
"445 97 CURVE SMOOTH",
"445 154 OFFCURVE",
"477 225 OFFCURVE",
"487 247 CURVE",
"553 255 OFFCURVE",
"714 252 OFFCURVE",
"829 271 CURVE SMOOTH",
"836 272 OFFCURVE",
"866 282 OFFCURVE",
"866 289 CURVE SMOOTH",
"866 291 OFFCURVE",
"863 293 OFFCURVE",
"854 294 CURVE SMOOTH",
"830 297 OFFCURVE",
"805 297 OFFCURVE",
"781 297 CURVE SMOOTH",
"744 297 LINE SMOOTH",
"667 297 OFFCURVE",
"591 286 OFFCURVE",
"514 288 CURVE",
"537 319 OFFCURVE",
"668 506 OFFCURVE",
"694 523 CURVE SMOOTH",
"723 543 OFFCURVE",
"856 549 OFFCURVE",
"896 549 CURVE SMOOTH",
"917 549 OFFCURVE",
"954 550 OFFCURVE",
"975 541 CURVE",
"980 531 OFFCURVE",
"987 527 OFFCURVE",
"992 527 CURVE SMOOTH",
"1000 527 OFFCURVE",
"1007 536 OFFCURVE",
"1007 545 CURVE SMOOTH",
"1007 556 OFFCURVE",
"999 569 OFFCURVE",
"978 575 CURVE",
"927 584 OFFCURVE",
"874 584 OFFCURVE",
"824 584 CURVE SMOOTH",
"778 584 OFFCURVE",
"663 583 OFFCURVE",
"605 562 CURVE",
"591 571 OFFCURVE",
"565 575 OFFCURVE",
"555 575 CURVE SMOOTH",
"446 575 OFFCURVE",
"188 341 OFFCURVE",
"118 254 CURVE",
"88 246 OFFCURVE",
"-28 255 OFFCURVE",
"-38 226 CURVE",
"-36 218 OFFCURVE",
"-25 211 OFFCURVE",
"-17 211 CURVE SMOOTH",
"17 211 OFFCURVE",
"52 212 OFFCURVE",
"86 212 CURVE",
"41 155 OFFCURVE",
"-39 23 OFFCURVE",
"-39 -49 CURVE SMOOTH",
"-39 -56 OFFCURVE",
"-28 -75 OFFCURVE",
"-20 -75 CURVE SMOOTH"
);
},
{
closed = 1;
nodes = (
"302 389 OFFCURVE",
"384 479 OFFCURVE",
"540 542 CURVE",
"576 544 LINE",
"574 541 OFFCURVE",
"572 536 OFFCURVE",
"572 532 CURVE SMOOTH",
"572 529 LINE SMOOTH",
"575 505 OFFCURVE",
"588 517 OFFCURVE",
"595 504 CURVE",
"558 451 OFFCURVE",
"513 410 OFFCURVE",
"457 302 CURVE SMOOTH",
"438 265 LINE",
"418 267 OFFCURVE",
"394 267 OFFCURVE",
"388 267 CURVE SMOOTH",
"344 267 OFFCURVE",
"238 265 OFFCURVE",
"195 265 CURVE"
);
}
);
};
layerId = "C7EEC47D-2D39-4E2B-85C4-E2E866CE7804";
paths = (
{
closed = 1;
nodes = (
"-16 -65 OFFCURVE",
"-15 -60 OFFCURVE",
"-15 -57 CURVE",
"5 22 OFFCURVE",
"102 217 OFFCURVE",
"193 226 CURVE SMOOTH",
"210 227 OFFCURVE",
"350 233 OFFCURVE",
"424 247 CURVE",
"404 204 OFFCURVE",
"384 155 OFFCURVE",
"384 112 CURVE SMOOTH",
"384 106 OFFCURVE",
"384 100 OFFCURVE",
"385 95 CURVE SMOOTH",
"395 14 OFFCURVE",
"452 -16 OFFCURVE",
"526 -16 CURVE SMOOTH",
"630 -16 OFFCURVE",
"902 75 OFFCURVE",
"955 152 CURVE SMOOTH",
"958 156 OFFCURVE",
"959 160 OFFCURVE",
"959 162 CURVE SMOOTH",
"959 165 OFFCURVE",
"958 166 OFFCURVE",
"956 166 CURVE SMOOTH",
"954 166 OFFCURVE",
"952 165 OFFCURVE",
"948 163 CURVE SMOOTH",
"849 108 OFFCURVE",
"656 50 OFFCURVE",
"536 35 CURVE SMOOTH",
"529 34 OFFCURVE",
"522 34 OFFCURVE",
"516 34 CURVE SMOOTH",
"462 34 OFFCURVE",
"445 67 OFFCURVE",
"445 107 CURVE SMOOTH",
"445 164 OFFCURVE",
"477 235 OFFCURVE",
"487 257 CURVE",
"553 265 OFFCURVE",
"714 262 OFFCURVE",
"829 281 CURVE SMOOTH",
"836 282 OFFCURVE",
"866 292 OFFCURVE",
"866 299 CURVE SMOOTH",
"866 301 OFFCURVE",
"863 303 OFFCURVE",
"854 304 CURVE SMOOTH",
"830 307 OFFCURVE",
"805 307 OFFCURVE",
"781 307 CURVE SMOOTH",
"744 307 LINE SMOOTH",
"667 307 OFFCURVE",
"591 296 OFFCURVE",
"514 298 CURVE",
"537 329 OFFCURVE",
"668 516 OFFCURVE",
"694 533 CURVE SMOOTH",
"723 553 OFFCURVE",
"856 559 OFFCURVE",
"896 559 CURVE SMOOTH",
"917 559 OFFCURVE",
"954 560 OFFCURVE",
"975 551 CURVE",
"980 541 OFFCURVE",
"987 537 OFFCURVE",
"992 537 CURVE SMOOTH",
"1000 537 OFFCURVE",
"1007 546 OFFCURVE",
"1007 555 CURVE SMOOTH",
"1007 566 OFFCURVE",
"999 579 OFFCURVE",
"978 585 CURVE",
"927 594 OFFCURVE",
"874 594 OFFCURVE",
"824 594 CURVE SMOOTH",
"778 594 OFFCURVE",
"663 593 OFFCURVE",
"605 572 CURVE",
"591 581 OFFCURVE",
"565 585 OFFCURVE",
"555 585 CURVE SMOOTH",
"446 585 OFFCURVE",
"188 351 OFFCURVE",
"118 264 CURVE",
"88 256 OFFCURVE",
"-28 265 OFFCURVE",
"-38 236 CURVE",
"-36 228 OFFCURVE",
"-25 221 OFFCURVE",
"-17 221 CURVE SMOOTH",
"17 221 OFFCURVE",
"52 222 OFFCURVE",
"86 222 CURVE",
"41 165 OFFCURVE",
"-39 33 OFFCURVE",
"-39 -39 CURVE SMOOTH",
"-39 -46 OFFCURVE",
"-28 -65 OFFCURVE",
"-20 -65 CURVE SMOOTH"
);
},
{
closed = 1;
nodes = (
"302 399 OFFCURVE",
"384 489 OFFCURVE",
"540 552 CURVE",
"576 554 LINE",
"574 551 OFFCURVE",
"572 546 OFFCURVE",
"572 542 CURVE SMOOTH",
"572 539 LINE SMOOTH",
"572 515 OFFCURVE",
"588 527 OFFCURVE",
"595 514 CURVE",
"558 461 OFFCURVE",
"513 420 OFFCURVE",
"457 312 CURVE SMOOTH",
"438 275 LINE",
"418 277 OFFCURVE",
"394 277 OFFCURVE",
"388 277 CURVE SMOOTH",
"344 277 OFFCURVE",
"238 275 OFFCURVE",
"195 275 CURVE"
);
}
);
width = 887;
}
);
note = AE;
unicode = 00C6;
},
{
color = 9;
glyphname = B;
lastChange = "2021-10-08 03:45:14 +0000";
layers = (
{
background = {
paths = (
{
closed = 1;
nodes = (
"361 -26 OFFCURVE",
"615 40 OFFCURVE",
"605 141 CURVE SMOOTH",
"598 209 OFFCURVE",
"533 264 OFFCURVE",
"469 281 CURVE",
"536 313 OFFCURVE",
"732 347 OFFCURVE",
"723 446 CURVE SMOOTH",
"710 574 OFFCURVE",
"429 602 OFFCURVE",
"331 602 CURVE SMOOTH",
"300 602 OFFCURVE",
"166 587 OFFCURVE",
"171 537 CURVE SMOOTH",
"171 533 OFFCURVE",
"181 533 OFFCURVE",
"182 533 CURVE SMOOTH",
"196 533 OFFCURVE",
"210 538 OFFCURVE",
"223 542 CURVE SMOOTH",
"256 553 OFFCURVE",
"311 553 OFFCURVE",
"346 553 CURVE SMOOTH",
"364 553 OFFCURVE",
"381 553 OFFCURVE",
"398 552 CURVE",
"315 460 OFFCURVE",
"136 184 OFFCURVE",
"136 42 CURVE SMOOTH",
"136 37 OFFCURVE",
"137 32 OFFCURVE",
"137 27 CURVE SMOOTH",
"137 22 OFFCURVE",
"139 15 OFFCURVE",
"141 7 CURVE",
"114 10 LINE SMOOTH",
"97 12 OFFCURVE",
"80 13 OFFCURVE",
"63 13 CURVE SMOOTH",
"60 13 OFFCURVE",
"45 13 OFFCURVE",
"46 7 CURVE SMOOTH",
"48 -18 OFFCURVE",
"143 -22 OFFCURVE",
"163 -24 CURVE SMOOTH",
"165 -24 LINE SMOOTH",
"177 -25 OFFCURVE",
"190 -26 OFFCURVE",
"204 -26 CURVE SMOOTH"
);
},
{
closed = 1;
nodes = (
"167 99 OFFCURVE",
"220 190 OFFCURVE",
"267 262 CURVE",
"267 251 OFFCURVE",
"278 231 OFFCURVE",
"291 231 CURVE SMOOTH",
"314 231 OFFCURVE",
"365 258 OFFCURVE",
"407 258 CURVE SMOOTH",
"457 258 OFFCURVE",
"561 229 OFFCURVE",
"561 164 CURVE SMOOTH",
"561 75 OFFCURVE",
"322 7 OFFCURVE",
"169 6 CURVE"
);
},
{
closed = 1;
nodes = (
"317 368 OFFCURVE",
"383 437 OFFCURVE",
"440 510 CURVE SMOOTH",
"443 513 OFFCURVE",
"445 518 OFFCURVE",
"445 523 CURVE SMOOTH",
"445 525 LINE SMOOTH",
"444 534 OFFCURVE",
"437 542 OFFCURVE",
"432 549 CURVE",
"487 550 OFFCURVE",
"690 521 OFFCURVE",
"696 454 CURVE SMOOTH",
"705 370 OFFCURVE",
"375 283 OFFCURVE",
"302 283 CURVE SMOOTH",
"278 283 LINE"
);
}
);
};
layerId = "C7EEC47D-2D39-4E2B-85C4-E2E866CE7804";
paths = (
{
closed = 1;
nodes = (
"361 -16 OFFCURVE",
"615 50 OFFCURVE",
"605 151 CURVE SMOOTH",
"598 219 OFFCURVE",
"533 274 OFFCURVE",
"469 291 CURVE",
"536 323 OFFCURVE",
"732 357 OFFCURVE",
"723 456 CURVE SMOOTH",
"710 584 OFFCURVE",
"429 612 OFFCURVE",
"331 612 CURVE SMOOTH",
"300 612 OFFCURVE",
"166 597 OFFCURVE",
"171 547 CURVE SMOOTH",
"171 543 OFFCURVE",
"181 543 OFFCURVE",
"182 543 CURVE SMOOTH",
"196 543 OFFCURVE",
"210 548 OFFCURVE",
"223 552 CURVE SMOOTH",
"256 563 OFFCURVE",
"311 563 OFFCURVE",
"346 563 CURVE SMOOTH",
"364 563 OFFCURVE",
"381 563 OFFCURVE",
"398 562 CURVE",
"315 470 OFFCURVE",
"136 194 OFFCURVE",
"136 52 CURVE SMOOTH",
"136 47 OFFCURVE",
"137 42 OFFCURVE",
"137 37 CURVE SMOOTH",
"137 32 OFFCURVE",
"139 25 OFFCURVE",
"141 17 CURVE",
"114 20 LINE SMOOTH",
"97 22 OFFCURVE",
"80 23 OFFCURVE",
"63 23 CURVE SMOOTH",
"60 23 OFFCURVE",
"45 23 OFFCURVE",
"46 17 CURVE SMOOTH",
"48 -8 OFFCURVE",
"143 -12 OFFCURVE",
"163 -14 CURVE SMOOTH",
"165 -14 LINE SMOOTH",
"177 -15 OFFCURVE",
"190 -16 OFFCURVE",
"204 -16 CURVE SMOOTH"
);
},
{
closed = 1;
nodes = (
"167 109 OFFCURVE",
"220 200 OFFCURVE",
"267 272 CURVE",
"267 261 OFFCURVE",
"278 241 OFFCURVE",
"291 241 CURVE SMOOTH",
"314 241 OFFCURVE",
"365 268 OFFCURVE",
"407 268 CURVE SMOOTH",
"457 268 OFFCURVE",
"561 239 OFFCURVE",
"561 174 CURVE SMOOTH",
"561 85 OFFCURVE",
"322 17 OFFCURVE",
"169 16 CURVE"
);
},
{
closed = 1;
nodes = (
"317 378 OFFCURVE",
"383 447 OFFCURVE",
"440 520 CURVE SMOOTH",
"443 523 OFFCURVE",
"445 528 OFFCURVE",
"445 533 CURVE SMOOTH",
"445 535 LINE SMOOTH",
"444 544 OFFCURVE",
"437 552 OFFCURVE",
"432 559 CURVE",
"488 560 OFFCURVE",
"696 530 OFFCURVE",
"696 461 CURVE SMOOTH",
"696 378 OFFCURVE",
"374 293 OFFCURVE",
"302 293 CURVE SMOOTH",
"278 293 LINE"
);
}
);
width = 594;
}
);
note = B;
unicode = 0042;
},
{
color = 9;
glyphname = C;
lastChange = "2021-10-08 03:45:14 +0000";
layers = (
{
anchors = (
{
name = bottom;
position = "{211, -17}";
},
{
name = top;
position = "{472, 599}";
}
);
background = {
paths = (
{
closed = 1;
nodes = (
"358 -35 OFFCURVE",
"539 71 OFFCURVE",
"625 159 CURVE SMOOTH",
"631 165 OFFCURVE",
"633 173 OFFCURVE",
"633 178 CURVE SMOOTH",
"633 181 OFFCURVE",
"633 183 OFFCURVE",
"631 183 CURVE SMOOTH",
"630 183 OFFCURVE",
"630 183 OFFCURVE",
"629 182 CURVE SMOOTH",
"581 145 OFFCURVE",
"374 -4 OFFCURVE",
"218 -4 CURVE SMOOTH",
"163 -4 OFFCURVE",
"107 25 OFFCURVE",
"101 85 CURVE SMOOTH",
"86 250 OFFCURVE",
"328 565 OFFCURVE",
"498 565 CURVE SMOOTH",
"521 565 OFFCURVE",
"541 556 OFFCURVE",
"543 532 CURVE SMOOTH",
"549 471 OFFCURVE",
"502 463 OFFCURVE",
"492 440 CURVE",
"493 432 OFFCURVE",
"510 432 OFFCURVE",
"512 432 CURVE SMOOTH",
"553 432 OFFCURVE",
"583 463 OFFCURVE",
"583 504 CURVE SMOOTH",
"583 556 OFFCURVE",
"539 589 OFFCURVE",
"491 589 CURVE SMOOTH",
"312 589 OFFCURVE",
"29 298 OFFCURVE",
"45 117 CURVE SMOOTH",
"54 15 OFFCURVE",
"132 -31 OFFCURVE",
"226 -32 CURVE SMOOTH"
);
}
);
};
layerId = "C7EEC47D-2D39-4E2B-85C4-E2E866CE7804";
paths = (
{
closed = 1;
nodes = (
"363 -22 OFFCURVE",
"540 82 OFFCURVE",
"625 169 CURVE SMOOTH",
"631 175 OFFCURVE",
"633 183 OFFCURVE",
"633 188 CURVE SMOOTH",
"633 191 OFFCURVE",
"633 193 OFFCURVE",
"631 193 CURVE SMOOTH",
"630 193 OFFCURVE",
"630 193 OFFCURVE",
"629 192 CURVE SMOOTH",
"581 155 OFFCURVE",
"374 6 OFFCURVE",
"218 6 CURVE SMOOTH",
"163 6 OFFCURVE",
"107 35 OFFCURVE",
"101 95 CURVE SMOOTH",
"86 260 OFFCURVE",
"328 575 OFFCURVE",
"498 575 CURVE SMOOTH",
"521 575 OFFCURVE",
"541 566 OFFCURVE",
"543 542 CURVE SMOOTH",
"549 481 OFFCURVE",
"502 473 OFFCURVE",
"492 450 CURVE",
"493 442 OFFCURVE",
"510 442 OFFCURVE",
"512 442 CURVE SMOOTH",
"553 442 OFFCURVE",
"583 473 OFFCURVE",
"583 514 CURVE SMOOTH",
"583 566 OFFCURVE",
"539 599 OFFCURVE",
"491 599 CURVE SMOOTH",
"312 599 OFFCURVE",
"29 308 OFFCURVE",
"45 127 CURVE SMOOTH",
"54 23 OFFCURVE",
"135 -22 OFFCURVE",
"232 -22 CURVE SMOOTH"
);
}
);
width = 554;
}
);
note = C;
unicode = 0043;
},
{
glyphname = Cacute;
lastChange = "2021-10-01 07:33:16 +0000";
layers = (
{
background = {
paths = (
{
closed = 1;
nodes = (
"358 -35 OFFCURVE",
"539 71 OFFCURVE",
"625 159 CURVE SMOOTH",
"631 165 OFFCURVE",
"633 173 OFFCURVE",
"633 178 CURVE SMOOTH",
"633 181 OFFCURVE",
"633 183 OFFCURVE",
"631 183 CURVE SMOOTH",
"630 183 OFFCURVE",
"630 183 OFFCURVE",
"629 182 CURVE SMOOTH",
"581 145 OFFCURVE",
"374 -4 OFFCURVE",
"218 -4 CURVE SMOOTH",
"163 -4 OFFCURVE",
"107 25 OFFCURVE",
"101 85 CURVE SMOOTH",
"86 250 OFFCURVE",
"328 565 OFFCURVE",
"498 565 CURVE SMOOTH",
"521 565 OFFCURVE",
"541 556 OFFCURVE",
"543 532 CURVE SMOOTH",
"549 471 OFFCURVE",
"502 463 OFFCURVE",
"492 440 CURVE",
"493 432 OFFCURVE",
"510 432 OFFCURVE",
"512 432 CURVE SMOOTH",
"553 432 OFFCURVE",
"583 463 OFFCURVE",
"583 504 CURVE SMOOTH",
"583 556 OFFCURVE",
"539 589 OFFCURVE",
"491 589 CURVE SMOOTH",
"312 589 OFFCURVE",
"29 298 OFFCURVE",
"45 117 CURVE SMOOTH",
"54 15 OFFCURVE",
"132 -31 OFFCURVE",
"226 -32 CURVE SMOOTH"
);
},
{
closed = 1;
nodes = (
"516 663 OFFCURVE",
"627 705 OFFCURVE",
"641 715 CURVE",
"647 718 OFFCURVE",
"651 725 OFFCURVE",
"652 732 CURVE SMOOTH",
"652 738 OFFCURVE",
"643 754 OFFCURVE",
"635 754 CURVE SMOOTH",
"630 754 OFFCURVE",
"624 750 OFFCURVE",
"619 748 CURVE",
"586 726 OFFCURVE",
"536 700 OFFCURVE",
"507 676 CURVE SMOOTH",
"505 674 OFFCURVE",
"503 672 OFFCURVE",
"502 669 CURVE",
"502 666 OFFCURVE",
"505 664 OFFCURVE",
"509 664 CURVE SMOOTH"
);
}
);
};
components = (
{
name = C;
},
{
name = acutecomb.case;
transform = "{1, 0, 0, 1, 429, 299}";
}
);
layerId = "C7EEC47D-2D39-4E2B-85C4-E2E866CE7804";
width = 554;
}
);
note = Cacute;
unicode = 0106;
},
{
glyphname = Ccaron;
lastChange = "2021-10-01 07:33:16 +0000";
layers = (
{
background = {
paths = (
{
closed = 1;
nodes = (
"358 -35 OFFCURVE",
"539 71 OFFCURVE",
"625 159 CURVE SMOOTH",
"631 165 OFFCURVE",
"633 173 OFFCURVE",
"633 178 CURVE SMOOTH",
"633 181 OFFCURVE",
"633 183 OFFCURVE",
"631 183 CURVE SMOOTH",
"630 183 OFFCURVE",
"630 183 OFFCURVE",
"629 182 CURVE SMOOTH",
"581 145 OFFCURVE",
"374 -4 OFFCURVE",
"218 -4 CURVE SMOOTH",
"163 -4 OFFCURVE",
"107 25 OFFCURVE",
"101 85 CURVE SMOOTH",
"86 250 OFFCURVE",
"328 565 OFFCURVE",
"498 565 CURVE SMOOTH",
"521 565 OFFCURVE",
"541 556 OFFCURVE",
"543 532 CURVE SMOOTH",
"549 471 OFFCURVE",
"502 463 OFFCURVE",
"492 440 CURVE",
"493 432 OFFCURVE",
"510 432 OFFCURVE",
"512 432 CURVE SMOOTH",
"553 432 OFFCURVE",
"583 463 OFFCURVE",
"583 504 CURVE SMOOTH",
"583 556 OFFCURVE",
"539 589 OFFCURVE",
"491 589 CURVE SMOOTH",
"312 589 OFFCURVE",
"29 298 OFFCURVE",
"45 117 CURVE SMOOTH",
"54 15 OFFCURVE",
"132 -31 OFFCURVE",
"226 -32 CURVE SMOOTH"
);
},
{
closed = 1;
nodes = (
"550 647 OFFCURVE",
"553 647 OFFCURVE",
"555 648 CURVE SMOOTH",
"567 654 OFFCURVE",
"665 744 OFFCURVE",
"675 752 CURVE SMOOTH",
"680 755 OFFCURVE",
"682 759 OFFCURVE",
"682 762 CURVE SMOOTH",
"682 765 OFFCURVE",
"679 768 OFFCURVE",
"674 768 CURVE SMOOTH",
"672 768 OFFCURVE",
"670 768 OFFCURVE",
"668 766 CURVE",
"637 744 OFFCURVE",
"576 696 OFFCURVE",
"563 686 CURVE",
"557 706 OFFCURVE",
"514 764 OFFCURVE",
"495 765 CURVE SMOOTH",
"489 765 OFFCURVE",
"486 763 OFFCURVE",
"486 759 CURVE SMOOTH",
"486 756 OFFCURVE",
"487 753 OFFCURVE",
"489 749 CURVE SMOOTH",
"507 720 OFFCURVE",
"525 689 OFFCURVE",
"535 652 CURVE",
"537 648 OFFCURVE",
"542 647 OFFCURVE",
"547 647 CURVE SMOOTH"
);
}
);
};
components = (
{
name = C;
},
{
name = caroncomb.case;
transform = "{1, 0, 0, 1, 415, 299}";
}
);
layerId = "C7EEC47D-2D39-4E2B-85C4-E2E866CE7804";
width = 554;
}
);
note = Ccaron;
unicode = 010C;
},
{
glyphname = Ccedilla;
lastChange = "2021-10-01 07:33:16 +0000";
layers = (
{
background = {
paths = (
{
closed = 1;
nodes = (
"358 -35 OFFCURVE",
"539 71 OFFCURVE",
"625 159 CURVE SMOOTH",
"631 165 OFFCURVE",
"633 173 OFFCURVE",
"633 178 CURVE SMOOTH",
"633 181 OFFCURVE",
"633 183 OFFCURVE",
"631 183 CURVE SMOOTH",
"630 183 OFFCURVE",
"630 183 OFFCURVE",
"629 182 CURVE SMOOTH",
"581 145 OFFCURVE",
"374 -4 OFFCURVE",
"218 -4 CURVE SMOOTH",
"163 -4 OFFCURVE",
"107 25 OFFCURVE",
"101 85 CURVE SMOOTH",
"86 250 OFFCURVE",
"328 565 OFFCURVE",
"498 565 CURVE SMOOTH",
"521 565 OFFCURVE",
"541 556 OFFCURVE",
"543 532 CURVE SMOOTH",
"549 471 OFFCURVE",
"502 463 OFFCURVE",
"492 440 CURVE",
"493 432 OFFCURVE",
"510 432 OFFCURVE",
"512 432 CURVE SMOOTH",
"553 432 OFFCURVE",
"583 463 OFFCURVE",
"583 504 CURVE SMOOTH",
"583 556 OFFCURVE",
"539 589 OFFCURVE",
"491 589 CURVE SMOOTH",
"312 589 OFFCURVE",
"29 298 OFFCURVE",
"45 117 CURVE SMOOTH",
"54 15 OFFCURVE",
"132 -31 OFFCURVE",
"226 -32 CURVE SMOOTH"
);
},
{
closed = 1;
nodes = (
"180 -203 OFFCURVE",
"225 -184 OFFCURVE",
"225 -151 CURVE SMOOTH",
"225 -119 OFFCURVE",
"180 -96 OFFCURVE",
"176 -79 CURVE SMOOTH",
"175 -76 OFFCURVE",
"175 -73 OFFCURVE",
"175 -70 CURVE SMOOTH",
"175 -52 OFFCURVE",
"188 -33 OFFCURVE",
"225 -27 CURVE",
"235 -22 OFFCURVE",
"224 -17 OFFCURVE",
"220 -17 CURVE SMOOTH",
"180 -17 OFFCURVE",
"148 -39 OFFCURVE",
"148 -82 CURVE SMOOTH",
"148 -107 OFFCURVE",
"189 -139 OFFCURVE",
"189 -158 CURVE SMOOTH",
"189 -180 OFFCURVE",
"166 -189 OFFCURVE",
"139 -189 CURVE SMOOTH",
"127 -189 OFFCURVE",
"114 -187 OFFCURVE",
"101 -184 CURVE SMOOTH",
"97 -183 OFFCURVE",
"92 -182 OFFCURVE",
"92 -187 CURVE SMOOTH",
"92 -189 OFFCURVE",
"93 -192 OFFCURVE",
"96 -194 CURVE SMOOTH",
"108 -200 OFFCURVE",
"123 -203 OFFCURVE",
"139 -203 CURVE SMOOTH"
);
}
);
};
components = (
{
name = C;
},
{
name = cedillacomb;
transform = "{1, 0, 0, 1, 114, -17}";
}
);
layerId = "C7EEC47D-2D39-4E2B-85C4-E2E866CE7804";
width = 554;
}
);
note = Ccedilla;
unicode = 00C7;
},
{
color = 9;
glyphname = D;
lastChange = "2021-10-08 03:45:14 +0000";
layers = (
{
anchors = (
{
name = bottom;
position = "{294, 0}";
},
{
name = center;
position = "{179, 283}";
},
{
name = top;
position = "{560, 583}";
}
);
background = {
paths = (
{
closed = 1;
nodes = (
"395 -1 OFFCURVE",
"672 145 OFFCURVE",
"672 344 CURVE SMOOTH",
"672 351 OFFCURVE",
"672 359 OFFCURVE",
"671 367 CURVE SMOOTH",
"649 569 OFFCURVE",
"424 596 OFFCURVE",
"269 596 CURVE SMOOTH",
"240 596 OFFCURVE",
"86 584 OFFCURVE",
"92 537 CURVE SMOOTH",
"92 533 OFFCURVE",
"102 533 OFFCURVE",
"103 533 CURVE SMOOTH",
"117 533 OFFCURVE",
"131 538 OFFCURVE",
"144 542 CURVE SMOOTH",
"189 557 OFFCURVE",
"244 557 OFFCURVE",
"293 557 CURVE SMOOTH",
"419 557 OFFCURVE",
"617 555 OFFCURVE",
"636 383 CURVE SMOOTH",
"654 214 OFFCURVE",
"346 34 OFFCURVE",
"197 34 CURVE SMOOTH",
"192 34 OFFCURVE",
"146 34 OFFCURVE",
"147 23 CURVE SMOOTH",
"148 11 OFFCURVE",
"203 -1 OFFCURVE",
"217 -1 CURVE SMOOTH"
);
},
{
closed = 1;
nodes = (
"115 -22 OFFCURVE",
"134 3 OFFCURVE",
"132 26 CURVE",
"132 26 OFFCURVE",
"131 31 OFFCURVE",
"129 31 CURVE SMOOTH",
"125 31 OFFCURVE",
"113 18 OFFCURVE",
"99 18 CURVE SMOOTH",
"90 18 OFFCURVE",
"88 24 OFFCURVE",
"87 32 CURVE SMOOTH",
"72 176 OFFCURVE",
"384 490 OFFCURVE",
"382 507 CURVE SMOOTH",
"380 522 OFFCURVE",
"348 538 OFFCURVE",
"335 538 CURVE SMOOTH",
"262 538 OFFCURVE",
"53 134 OFFCURVE",
"53 39 CURVE SMOOTH",
"53 22 OFFCURVE",
"65 -22 OFFCURVE",
"92 -22 CURVE SMOOTH"
);
}
);
};
layerId = "C7EEC47D-2D39-4E2B-85C4-E2E866CE7804";
paths = (
{
closed = 1;
nodes = (
"395 9 OFFCURVE",
"672 155 OFFCURVE",
"672 354 CURVE SMOOTH",
"672 361 OFFCURVE",
"672 369 OFFCURVE",
"671 377 CURVE SMOOTH",
"649 579 OFFCURVE",
"424 606 OFFCURVE",
"269 606 CURVE SMOOTH",
"240 606 OFFCURVE",
"86 594 OFFCURVE",
"92 547 CURVE SMOOTH",
"92 543 OFFCURVE",
"102 543 OFFCURVE",
"103 543 CURVE SMOOTH",
"117 543 OFFCURVE",
"131 548 OFFCURVE",
"144 552 CURVE SMOOTH",
"189 567 OFFCURVE",
"244 567 OFFCURVE",
"293 567 CURVE SMOOTH",
"419 567 OFFCURVE",
"617 565 OFFCURVE",
"636 393 CURVE SMOOTH",
"654 224 OFFCURVE",
"346 44 OFFCURVE",
"197 44 CURVE SMOOTH",
"192 44 OFFCURVE",
"146 44 OFFCURVE",
"147 33 CURVE SMOOTH",
"148 21 OFFCURVE",
"203 9 OFFCURVE",
"217 9 CURVE SMOOTH"
);
},
{
closed = 1;
nodes = (
"115 -12 OFFCURVE",
"134 13 OFFCURVE",
"132 36 CURVE",
"132 36 OFFCURVE",
"131 41 OFFCURVE",
"129 41 CURVE SMOOTH",
"125 41 OFFCURVE",
"113 28 OFFCURVE",
"99 28 CURVE SMOOTH",
"90 28 OFFCURVE",
"88 34 OFFCURVE",
"87 42 CURVE SMOOTH",
"72 186 OFFCURVE",
"384 500 OFFCURVE",
"382 517 CURVE SMOOTH",
"380 532 OFFCURVE",
"348 548 OFFCURVE",
"335 548 CURVE SMOOTH",
"262 548 OFFCURVE",
"53 144 OFFCURVE",
"53 49 CURVE SMOOTH",
"53 32 OFFCURVE",
"65 -12 OFFCURVE",
"92 -12 CURVE SMOOTH"
);
}
);
width = 587;
}
);
note = D;
unicode = 0044;
},
{
glyphname = Eth;
lastChange = "2021-10-01 08:00:59 +0000";
layers = (
{
background = {
paths = (
{
closed = 1;
nodes = (
"395 -1 OFFCURVE",
"672 145 OFFCURVE",
"672 344 CURVE SMOOTH",
"672 351 OFFCURVE",
"672 359 OFFCURVE",
"671 367 CURVE SMOOTH",
"649 569 OFFCURVE",
"424 596 OFFCURVE",
"269 596 CURVE SMOOTH",
"240 596 OFFCURVE",
"86 584 OFFCURVE",
"92 537 CURVE SMOOTH",
"92 533 OFFCURVE",
"102 533 OFFCURVE",
"103 533 CURVE SMOOTH",
"117 533 OFFCURVE",
"131 538 OFFCURVE",
"144 542 CURVE SMOOTH",
"189 557 OFFCURVE",
"244 557 OFFCURVE",
"293 557 CURVE SMOOTH",
"419 557 OFFCURVE",
"617 555 OFFCURVE",
"636 383 CURVE SMOOTH",
"654 214 OFFCURVE",
"346 34 OFFCURVE",
"197 34 CURVE SMOOTH",
"192 34 OFFCURVE",
"146 34 OFFCURVE",
"147 23 CURVE SMOOTH",
"148 11 OFFCURVE",
"203 -1 OFFCURVE",
"217 -1 CURVE SMOOTH"
);
},
{
closed = 1;
nodes = (
"115 -22 OFFCURVE",
"134 3 OFFCURVE",
"132 26 CURVE",
"132 26 OFFCURVE",
"131 31 OFFCURVE",
"129 31 CURVE SMOOTH",
"125 31 OFFCURVE",
"113 18 OFFCURVE",
"99 18 CURVE SMOOTH",
"90 18 OFFCURVE",
"88 24 OFFCURVE",
"87 32 CURVE SMOOTH",
"83 71 OFFCURVE",
"102 121 OFFCURVE",
"133 176 CURVE",
"193 176 LINE SMOOTH",
"234 176 OFFCURVE",
"287 185 OFFCURVE",
"287 201 CURVE SMOOTH",
"287 212 OFFCURVE",
"242 213 OFFCURVE",
"225 213 CURVE SMOOTH",
"156 213 LINE",
"244 350 OFFCURVE",
"383 495 OFFCURVE",
"382 507 CURVE SMOOTH",
"380 522 OFFCURVE",
"348 538 OFFCURVE",
"335 538 CURVE SMOOTH",
"287 538 OFFCURVE",
"178 360 OFFCURVE",
"111 213 CURVE",
"70 213 LINE SMOOTH",
"46 213 OFFCURVE",
"16 192 OFFCURVE",
"16 182 CURVE SMOOTH",
"16 178 OFFCURVE",
"20 176 OFFCURVE",
"28 176 CURVE SMOOTH",
"94 176 LINE",
"69 117 OFFCURVE",
"53 66 OFFCURVE",
"53 39 CURVE SMOOTH",
"53 24 OFFCURVE",
"65 -22 OFFCURVE",
"92 -22 CURVE SMOOTH"
);
}
);
};
layerId = "C7EEC47D-2D39-4E2B-85C4-E2E866CE7804";
paths = (
{
closed = 1;
nodes = (
"395 9 OFFCURVE",
"672 155 OFFCURVE",
"672 354 CURVE SMOOTH",
"672 361 OFFCURVE",
"672 369 OFFCURVE",
"671 377 CURVE SMOOTH",
"649 579 OFFCURVE",
"424 606 OFFCURVE",
"269 606 CURVE SMOOTH",
"240 606 OFFCURVE",
"86 594 OFFCURVE",
"92 547 CURVE SMOOTH",
"92 543 OFFCURVE",
"102 543 OFFCURVE",
"103 543 CURVE SMOOTH",
"117 543 OFFCURVE",
"131 548 OFFCURVE",
"144 552 CURVE SMOOTH",
"189 567 OFFCURVE",
"244 567 OFFCURVE",
"293 567 CURVE SMOOTH",
"419 567 OFFCURVE",
"617 565 OFFCURVE",
"636 393 CURVE SMOOTH",
"654 224 OFFCURVE",
"346 44 OFFCURVE",
"197 44 CURVE SMOOTH",
"192 44 OFFCURVE",
"146 44 OFFCURVE",
"147 33 CURVE SMOOTH",
"148 21 OFFCURVE",
"203 9 OFFCURVE",
"217 9 CURVE SMOOTH"
);
},
{
closed = 1;
nodes = (
"115 -12 OFFCURVE",
"134 13 OFFCURVE",
"132 36 CURVE",
"132 36 OFFCURVE",
"131 41 OFFCURVE",
"129 41 CURVE SMOOTH",
"125 41 OFFCURVE",
"113 28 OFFCURVE",
"99 28 CURVE SMOOTH",
"90 28 OFFCURVE",
"88 34 OFFCURVE",
"87 42 CURVE SMOOTH",
"83 81 OFFCURVE",
"102 131 OFFCURVE",
"133 186 CURVE",
"193 186 LINE SMOOTH",
"234 186 OFFCURVE",
"287 195 OFFCURVE",
"287 211 CURVE SMOOTH",
"287 222 OFFCURVE",
"242 223 OFFCURVE",
"225 223 CURVE SMOOTH",
"156 223 LINE",
"244 360 OFFCURVE",
"383 505 OFFCURVE",
"382 517 CURVE SMOOTH",
"380 532 OFFCURVE",
"348 548 OFFCURVE",
"335 548 CURVE SMOOTH",
"287 548 OFFCURVE",
"178 370 OFFCURVE",
"111 223 CURVE",
"70 223 LINE SMOOTH",
"46 223 OFFCURVE",
"16 202 OFFCURVE",
"16 192 CURVE SMOOTH",
"16 188 OFFCURVE",
"20 186 OFFCURVE",
"28 186 CURVE SMOOTH",
"94 186 LINE",
"69 127 OFFCURVE",
"53 76 OFFCURVE",
"53 49 CURVE SMOOTH",
"53 34 OFFCURVE",
"65 -12 OFFCURVE",
"92 -12 CURVE SMOOTH"
);
}
);
width = 587;
}
);
note = Eth;
unicode = 00D0;
},
{
glyphname = Dcaron;
lastChange = "2021-10-01 07:33:16 +0000";
layers = (
{
background = {
paths = (
{
closed = 1;
nodes = (
"395 -1 OFFCURVE",
"672 145 OFFCURVE",
"672 344 CURVE SMOOTH",
"672 351 OFFCURVE",
"672 359 OFFCURVE",
"671 367 CURVE SMOOTH",
"649 569 OFFCURVE",
"424 596 OFFCURVE",
"269 596 CURVE SMOOTH",
"240 596 OFFCURVE",
"86 584 OFFCURVE",
"92 537 CURVE SMOOTH",
"92 533 OFFCURVE",
"102 533 OFFCURVE",
"103 533 CURVE SMOOTH",
"117 533 OFFCURVE",
"131 538 OFFCURVE",
"144 542 CURVE SMOOTH",
"189 557 OFFCURVE",
"244 557 OFFCURVE",
"293 557 CURVE SMOOTH",
"419 557 OFFCURVE",
"617 555 OFFCURVE",
"636 383 CURVE SMOOTH",
"654 214 OFFCURVE",
"346 34 OFFCURVE",
"197 34 CURVE SMOOTH",
"192 34 OFFCURVE",
"146 34 OFFCURVE",
"147 23 CURVE SMOOTH",
"148 11 OFFCURVE",
"203 -1 OFFCURVE",
"217 -1 CURVE SMOOTH"
);
},
{
closed = 1;
nodes = (
"115 -22 OFFCURVE",
"134 3 OFFCURVE",
"132 26 CURVE",
"132 26 OFFCURVE",
"131 31 OFFCURVE",
"129 31 CURVE SMOOTH",
"125 31 OFFCURVE",
"113 18 OFFCURVE",
"99 18 CURVE SMOOTH",
"90 18 OFFCURVE",
"88 24 OFFCURVE",
"87 32 CURVE SMOOTH",
"72 176 OFFCURVE",
"384 490 OFFCURVE",
"382 507 CURVE SMOOTH",
"380 522 OFFCURVE",
"348 538 OFFCURVE",
"335 538 CURVE SMOOTH",
"262 538 OFFCURVE",
"53 134 OFFCURVE",
"53 39 CURVE SMOOTH",
"53 22 OFFCURVE",
"65 -22 OFFCURVE",
"92 -22 CURVE SMOOTH"
);
},
{
closed = 1;
nodes = (
"522 635 OFFCURVE",
"525 635 OFFCURVE",
"527 636 CURVE SMOOTH",
"539 642 OFFCURVE",
"637 732 OFFCURVE",
"647 740 CURVE SMOOTH",
"652 743 OFFCURVE",
"654 747 OFFCURVE",
"654 750 CURVE SMOOTH",
"654 753 OFFCURVE",
"651 756 OFFCURVE",
"646 756 CURVE SMOOTH",
"644 756 OFFCURVE",
"642 756 OFFCURVE",
"640 754 CURVE",
"609 732 OFFCURVE",
"548 684 OFFCURVE",
"535 674 CURVE",
"529 694 OFFCURVE",
"486 752 OFFCURVE",
"467 753 CURVE SMOOTH",
"461 753 OFFCURVE",
"458 751 OFFCURVE",
"458 747 CURVE SMOOTH",
"458 744 OFFCURVE",
"459 741 OFFCURVE",
"461 737 CURVE SMOOTH",
"479 708 OFFCURVE",
"497 677 OFFCURVE",
"507 640 CURVE",
"509 636 OFFCURVE",
"514 635 OFFCURVE",
"519 635 CURVE SMOOTH"
);
}
);
};
components = (
{
name = D;
},
{
name = caroncomb.case;
transform = "{1, 0, 0, 1, 503, 283}";
}
);
layerId = "C7EEC47D-2D39-4E2B-85C4-E2E866CE7804";
width = 587;
}
);
note = Dcaron;
unicode = 010E;
},
{
glyphname = Dcroat;
lastChange = "2021-10-01 07:33:16 +0000";
layers = (
{
background = {
paths = (
{
closed = 1;
nodes = (
"395 -1 OFFCURVE",
"672 145 OFFCURVE",
"672 344 CURVE SMOOTH",
"672 351 OFFCURVE",
"672 359 OFFCURVE",
"671 367 CURVE SMOOTH",
"649 569 OFFCURVE",
"424 596 OFFCURVE",
"269 596 CURVE SMOOTH",
"240 596 OFFCURVE",
"86 584 OFFCURVE",
"92 537 CURVE SMOOTH",
"92 533 OFFCURVE",
"102 533 OFFCURVE",
"103 533 CURVE SMOOTH",
"117 533 OFFCURVE",
"131 538 OFFCURVE",
"144 542 CURVE SMOOTH",
"189 557 OFFCURVE",
"244 557 OFFCURVE",
"293 557 CURVE SMOOTH",
"419 557 OFFCURVE",
"617 555 OFFCURVE",
"636 383 CURVE SMOOTH",
"654 214 OFFCURVE",
"346 34 OFFCURVE",
"197 34 CURVE SMOOTH",
"192 34 OFFCURVE",
"146 34 OFFCURVE",
"147 23 CURVE SMOOTH",
"148 11 OFFCURVE",
"203 -1 OFFCURVE",
"217 -1 CURVE SMOOTH"
);
},
{
closed = 1;
nodes = (
"115 -22 OFFCURVE",
"134 3 OFFCURVE",
"132 26 CURVE",
"132 26 OFFCURVE",
"131 31 OFFCURVE",
"129 31 CURVE SMOOTH",
"125 31 OFFCURVE",
"113 18 OFFCURVE",
"99 18 CURVE SMOOTH",
"90 18 OFFCURVE",
"88 24 OFFCURVE",
"87 32 CURVE SMOOTH",
"83 71 OFFCURVE",
"102 121 OFFCURVE",
"133 176 CURVE",
"193 176 LINE SMOOTH",
"234 176 OFFCURVE",
"287 185 OFFCURVE",
"287 201 CURVE SMOOTH",
"287 212 OFFCURVE",
"242 213 OFFCURVE",
"225 213 CURVE SMOOTH",
"156 213 LINE",
"244 350 OFFCURVE",
"383 495 OFFCURVE",
"382 507 CURVE SMOOTH",
"380 522 OFFCURVE",
"348 538 OFFCURVE",
"335 538 CURVE SMOOTH",
"287 538 OFFCURVE",
"178 360 OFFCURVE",
"111 213 CURVE",
"70 213 LINE SMOOTH",
"46 213 OFFCURVE",
"16 192 OFFCURVE",
"16 182 CURVE SMOOTH",
"16 178 OFFCURVE",
"20 176 OFFCURVE",
"28 176 CURVE SMOOTH",
"94 176 LINE",
"69 117 OFFCURVE",
"53 66 OFFCURVE",
"53 39 CURVE SMOOTH",
"53 24 OFFCURVE",
"65 -22 OFFCURVE",
"92 -22 CURVE SMOOTH"
);
}
);
};
components = (
{
name = Eth;
}
);
layerId = "C7EEC47D-2D39-4E2B-85C4-E2E866CE7804";
width = 587;
}
);
note = Dcroat;
unicode = 0110;
},
{
color = 9;
glyphname = E;
lastChange = "2021-10-08 03:45:14 +0000";
layers = (
{
anchors = (
{
name = bottom;
position = "{266, -10}";
},
{
name = ogonek;
position = "{554, 85}";
},
{
name = top;
position = "{525, 594}";
},
{
name = topleft;
position = "{20, 610}";
}
);
background = {
paths = (
{
closed = 1;
nodes = (
"332 -26 OFFCURVE",
"604 65 OFFCURVE",
"657 142 CURVE SMOOTH",
"660 146 OFFCURVE",
"661 150 OFFCURVE",
"661 152 CURVE SMOOTH",
"661 155 OFFCURVE",
"660 156 OFFCURVE",
"658 156 CURVE SMOOTH",
"656 156 OFFCURVE",
"654 155 OFFCURVE",
"650 153 CURVE SMOOTH",
"551 98 OFFCURVE",
"352 13 OFFCURVE",
"231 13 CURVE SMOOTH",
"160 13 OFFCURVE",
"137 47 OFFCURVE",
"137 92 CURVE SMOOTH",
"137 168 OFFCURVE",
"204 275 OFFCURVE",
"215 300 CURVE",
"323 345 OFFCURVE",
"456 324 OFFCURVE",
"571 343 CURVE SMOOTH",
"578 344 OFFCURVE",
"608 354 OFFCURVE",
"608 361 CURVE SMOOTH",
"608 363 OFFCURVE",
"605 365 OFFCURVE",
"596 366 CURVE SMOOTH",
"572 369 OFFCURVE",
"547 369 OFFCURVE",
"523 369 CURVE SMOOTH",
"486 369 LINE SMOOTH",
"409 369 OFFCURVE",
"333 358 OFFCURVE",
"256 360 CURVE",
"279 391 OFFCURVE",
"370 506 OFFCURVE",
"396 523 CURVE SMOOTH",
"425 543 OFFCURVE",
"558 549 OFFCURVE",
"598 549 CURVE SMOOTH",
"619 549 OFFCURVE",
"656 550 OFFCURVE",
"677 541 CURVE",
"682 531 OFFCURVE",
"689 527 OFFCURVE",
"694 527 CURVE SMOOTH",
"702 527 OFFCURVE",
"709 536 OFFCURVE",
"709 545 CURVE SMOOTH",
"709 556 OFFCURVE",
"701 569 OFFCURVE",
"680 575 CURVE",
"628 584 OFFCURVE",
"575 584 OFFCURVE",
"525 584 CURVE SMOOTH",
"461 584 OFFCURVE",
"268 582 OFFCURVE",
"274 529 CURVE SMOOTH",
"277 505 OFFCURVE",
"290 517 OFFCURVE",
"297 504 CURVE",
"257 454 OFFCURVE",
"208 339 OFFCURVE",
"133 339 CURVE SMOOTH",
"129 339 OFFCURVE",
"120 341 OFFCURVE",
"112 341 CURVE SMOOTH",
"105 341 OFFCURVE",
"98 339 OFFCURVE",
"98 332 CURVE SMOOTH",
"98 303 OFFCURVE",
"141 303 OFFCURVE",
"159 302 CURVE",
"132 246 OFFCURVE",
"86 169 OFFCURVE",
"86 101 CURVE SMOOTH",
"86 95 OFFCURVE",
"86 90 OFFCURVE",
"87 85 CURVE SMOOTH",
"97 4 OFFCURVE",
"154 -26 OFFCURVE",
"228 -26 CURVE SMOOTH"
);
}
);
};
layerId = "C7EEC47D-2D39-4E2B-85C4-E2E866CE7804";
paths = (
{
closed = 1;
nodes = (
"332 -16 OFFCURVE",
"604 75 OFFCURVE",
"657 152 CURVE SMOOTH",
"660 156 OFFCURVE",
"661 160 OFFCURVE",
"661 162 CURVE SMOOTH",
"661 165 OFFCURVE",
"660 166 OFFCURVE",
"658 166 CURVE SMOOTH",
"656 166 OFFCURVE",
"654 165 OFFCURVE",
"650 163 CURVE SMOOTH",
"551 108 OFFCURVE",
"352 23 OFFCURVE",
"231 23 CURVE SMOOTH",
"160 23 OFFCURVE",
"137 57 OFFCURVE",
"137 102 CURVE SMOOTH",
"137 178 OFFCURVE",
"204 285 OFFCURVE",
"215 310 CURVE",
"323 355 OFFCURVE",
"456 334 OFFCURVE",
"571 353 CURVE SMOOTH",
"578 354 OFFCURVE",
"608 364 OFFCURVE",
"608 371 CURVE SMOOTH",
"608 373 OFFCURVE",
"605 375 OFFCURVE",
"596 376 CURVE SMOOTH",
"572 379 OFFCURVE",
"547 379 OFFCURVE",
"523 379 CURVE SMOOTH",
"486 379 LINE SMOOTH",
"409 379 OFFCURVE",
"333 368 OFFCURVE",
"256 370 CURVE",
"279 401 OFFCURVE",
"370 516 OFFCURVE",
"396 533 CURVE SMOOTH",
"425 553 OFFCURVE",
"558 559 OFFCURVE",
"598 559 CURVE SMOOTH",
"619 559 OFFCURVE",
"656 560 OFFCURVE",
"677 551 CURVE",
"682 541 OFFCURVE",
"689 537 OFFCURVE",
"694 537 CURVE SMOOTH",
"702 537 OFFCURVE",
"709 546 OFFCURVE",
"709 555 CURVE SMOOTH",
"709 566 OFFCURVE",
"701 579 OFFCURVE",
"680 585 CURVE",
"628 594 OFFCURVE",
"575 594 OFFCURVE",
"525 594 CURVE SMOOTH",
"461 594 OFFCURVE",
"268 592 OFFCURVE",
"274 539 CURVE SMOOTH",
"277 515 OFFCURVE",
"290 527 OFFCURVE",
"297 514 CURVE",
"257 464 OFFCURVE",
"208 349 OFFCURVE",
"133 349 CURVE SMOOTH",
"129 349 OFFCURVE",
"120 351 OFFCURVE",
"112 351 CURVE SMOOTH",
"105 351 OFFCURVE",
"98 349 OFFCURVE",
"98 342 CURVE SMOOTH",
"98 313 OFFCURVE",
"141 313 OFFCURVE",
"159 312 CURVE",
"132 256 OFFCURVE",
"86 179 OFFCURVE",
"86 111 CURVE SMOOTH",
"86 105 OFFCURVE",
"86 100 OFFCURVE",
"87 95 CURVE SMOOTH",
"97 14 OFFCURVE",
"154 -16 OFFCURVE",
"228 -16 CURVE SMOOTH"
);
}
);
width = 589;
}
);
note = E;
unicode = 0045;
},
{
glyphname = Eacute;
lastChange = "2021-10-01 07:33:16 +0000";
layers = (
{
background = {
paths = (
{
closed = 1;
nodes = (
"332 -26 OFFCURVE",
"604 65 OFFCURVE",
"657 142 CURVE SMOOTH",
"660 146 OFFCURVE",
"661 150 OFFCURVE",
"661 152 CURVE SMOOTH",
"661 155 OFFCURVE",
"660 156 OFFCURVE",
"658 156 CURVE SMOOTH",
"656 156 OFFCURVE",
"654 155 OFFCURVE",
"650 153 CURVE SMOOTH",
"551 98 OFFCURVE",
"352 13 OFFCURVE",
"231 13 CURVE SMOOTH",
"160 13 OFFCURVE",
"137 47 OFFCURVE",
"137 92 CURVE SMOOTH",
"137 168 OFFCURVE",
"204 275 OFFCURVE",
"215 300 CURVE",
"323 345 OFFCURVE",
"456 324 OFFCURVE",
"571 343 CURVE SMOOTH",
"578 344 OFFCURVE",
"608 354 OFFCURVE",
"608 361 CURVE SMOOTH",
"608 363 OFFCURVE",
"605 365 OFFCURVE",
"596 366 CURVE SMOOTH",
"572 369 OFFCURVE",
"547 369 OFFCURVE",
"523 369 CURVE SMOOTH",
"486 369 LINE SMOOTH",
"409 369 OFFCURVE",
"333 358 OFFCURVE",
"256 360 CURVE",
"279 391 OFFCURVE",
"370 506 OFFCURVE",
"396 523 CURVE SMOOTH",
"425 543 OFFCURVE",
"558 549 OFFCURVE",
"598 549 CURVE SMOOTH",
"619 549 OFFCURVE",
"656 550 OFFCURVE",
"677 541 CURVE",
"682 531 OFFCURVE",
"689 527 OFFCURVE",
"694 527 CURVE SMOOTH",
"702 527 OFFCURVE",
"709 536 OFFCURVE",
"709 545 CURVE SMOOTH",
"709 556 OFFCURVE",
"701 569 OFFCURVE",
"680 575 CURVE",
"628 584 OFFCURVE",
"575 584 OFFCURVE",
"525 584 CURVE SMOOTH",
"461 584 OFFCURVE",
"268 582 OFFCURVE",
"274 529 CURVE SMOOTH",
"277 505 OFFCURVE",
"290 517 OFFCURVE",
"297 504 CURVE",
"257 454 OFFCURVE",
"208 339 OFFCURVE",
"133 339 CURVE SMOOTH",
"129 339 OFFCURVE",
"120 341 OFFCURVE",
"112 341 CURVE SMOOTH",
"105 341 OFFCURVE",
"98 339 OFFCURVE",
"98 332 CURVE SMOOTH",
"98 303 OFFCURVE",
"141 303 OFFCURVE",
"159 302 CURVE",
"132 246 OFFCURVE",
"86 169 OFFCURVE",
"86 101 CURVE SMOOTH",
"86 95 OFFCURVE",
"86 90 OFFCURVE",
"87 85 CURVE SMOOTH",
"97 4 OFFCURVE",
"154 -26 OFFCURVE",
"228 -26 CURVE SMOOTH"
);
},
{
closed = 1;
nodes = (
"511 669 OFFCURVE",
"622 711 OFFCURVE",
"636 721 CURVE",
"642 724 OFFCURVE",
"646 731 OFFCURVE",
"647 738 CURVE SMOOTH",
"647 744 OFFCURVE",
"638 760 OFFCURVE",
"630 760 CURVE SMOOTH",
"625 760 OFFCURVE",
"619 756 OFFCURVE",
"614 754 CURVE",
"581 732 OFFCURVE",
"531 706 OFFCURVE",
"502 682 CURVE SMOOTH",
"500 680 OFFCURVE",
"498 678 OFFCURVE",
"497 675 CURVE",
"497 672 OFFCURVE",
"500 670 OFFCURVE",
"504 670 CURVE SMOOTH"
);
}
);
};
components = (
{
name = E;
},
{
name = acutecomb.case;
transform = "{1, 0, 0, 1, 482, 294}";
}
);
layerId = "C7EEC47D-2D39-4E2B-85C4-E2E866CE7804";
width = 589;
}
);
note = Eacute;
unicode = 00C9;
},
{
glyphname = Ecaron;
lastChange = "2021-10-01 07:33:16 +0000";
layers = (
{
background = {
paths = (
{
closed = 1;
nodes = (
"332 -26 OFFCURVE",
"604 65 OFFCURVE",
"657 142 CURVE SMOOTH",
"660 146 OFFCURVE",
"661 150 OFFCURVE",
"661 152 CURVE SMOOTH",
"661 155 OFFCURVE",
"660 156 OFFCURVE",
"658 156 CURVE SMOOTH",
"656 156 OFFCURVE",
"654 155 OFFCURVE",
"650 153 CURVE SMOOTH",
"551 98 OFFCURVE",
"352 13 OFFCURVE",
"231 13 CURVE SMOOTH",
"160 13 OFFCURVE",
"137 47 OFFCURVE",
"137 92 CURVE SMOOTH",
"137 168 OFFCURVE",
"204 275 OFFCURVE",
"215 300 CURVE",
"323 345 OFFCURVE",
"456 324 OFFCURVE",
"571 343 CURVE SMOOTH",
"578 344 OFFCURVE",
"608 354 OFFCURVE",
"608 361 CURVE SMOOTH",
"608 363 OFFCURVE",
"605 365 OFFCURVE",
"596 366 CURVE SMOOTH",
"572 369 OFFCURVE",
"547 369 OFFCURVE",
"523 369 CURVE SMOOTH",
"486 369 LINE SMOOTH",
"409 369 OFFCURVE",
"333 358 OFFCURVE",
"256 360 CURVE",
"279 391 OFFCURVE",
"370 506 OFFCURVE",
"396 523 CURVE SMOOTH",
"425 543 OFFCURVE",
"558 549 OFFCURVE",
"598 549 CURVE SMOOTH",
"619 549 OFFCURVE",
"656 550 OFFCURVE",
"677 541 CURVE",
"682 531 OFFCURVE",
"689 527 OFFCURVE",
"694 527 CURVE SMOOTH",
"702 527 OFFCURVE",
"709 536 OFFCURVE",
"709 545 CURVE SMOOTH",
"709 556 OFFCURVE",
"701 569 OFFCURVE",
"680 575 CURVE",
"628 584 OFFCURVE",
"575 584 OFFCURVE",
"525 584 CURVE SMOOTH",
"461 584 OFFCURVE",
"268 582 OFFCURVE",
"274 529 CURVE SMOOTH",
"277 505 OFFCURVE",
"290 517 OFFCURVE",
"297 504 CURVE",
"257 454 OFFCURVE",
"208 339 OFFCURVE",
"133 339 CURVE SMOOTH",
"129 339 OFFCURVE",
"120 341 OFFCURVE",
"112 341 CURVE SMOOTH",
"105 341 OFFCURVE",
"98 339 OFFCURVE",
"98 332 CURVE SMOOTH",
"98 303 OFFCURVE",
"141 303 OFFCURVE",
"159 302 CURVE",
"132 246 OFFCURVE",
"86 169 OFFCURVE",
"86 101 CURVE SMOOTH",
"86 95 OFFCURVE",
"86 90 OFFCURVE",
"87 85 CURVE SMOOTH",
"97 4 OFFCURVE",
"154 -26 OFFCURVE",
"228 -26 CURVE SMOOTH"
);
},
{
closed = 1;
nodes = (
"549 632 OFFCURVE",
"552 632 OFFCURVE",
"554 633 CURVE SMOOTH",
"566 639 OFFCURVE",
"664 729 OFFCURVE",
"674 737 CURVE SMOOTH",
"679 740 OFFCURVE",
"681 744 OFFCURVE",
"681 747 CURVE SMOOTH",
"681 750 OFFCURVE",
"678 753 OFFCURVE",
"673 753 CURVE SMOOTH",
"671 753 OFFCURVE",
"669 753 OFFCURVE",
"667 751 CURVE",
"636 729 OFFCURVE",
"575 681 OFFCURVE",
"562 671 CURVE",
"556 691 OFFCURVE",
"513 749 OFFCURVE",
"494 750 CURVE SMOOTH",
"488 750 OFFCURVE",
"485 748 OFFCURVE",
"485 744 CURVE SMOOTH",
"485 741 OFFCURVE",
"486 738 OFFCURVE",
"488 734 CURVE SMOOTH",
"506 705 OFFCURVE",
"524 674 OFFCURVE",
"534 637 CURVE",
"536 633 OFFCURVE",
"541 632 OFFCURVE",
"546 632 CURVE SMOOTH"
);
}
);
};
components = (
{
name = E;
},
{
name = caroncomb.case;
transform = "{1, 0, 0, 1, 468, 294}";
}
);
layerId = "C7EEC47D-2D39-4E2B-85C4-E2E866CE7804";
width = 589;
}
);
note = Ecaron;
unicode = 011A;
},
{
glyphname = Ecircumflex;
lastChange = "2021-10-01 07:33:16 +0000";
layers = (
{
background = {
paths = (
{
closed = 1;
nodes = (
"332 -26 OFFCURVE",
"604 65 OFFCURVE",
"657 142 CURVE SMOOTH",
"660 146 OFFCURVE",
"661 150 OFFCURVE",
"661 152 CURVE SMOOTH",
"661 155 OFFCURVE",
"660 156 OFFCURVE",
"658 156 CURVE SMOOTH",
"656 156 OFFCURVE",
"654 155 OFFCURVE",
"650 153 CURVE SMOOTH",
"551 98 OFFCURVE",
"352 13 OFFCURVE",
"231 13 CURVE SMOOTH",
"160 13 OFFCURVE",
"137 47 OFFCURVE",
"137 92 CURVE SMOOTH",
"137 168 OFFCURVE",
"204 275 OFFCURVE",
"215 300 CURVE",
"323 345 OFFCURVE",
"456 324 OFFCURVE",
"571 343 CURVE SMOOTH",
"578 344 OFFCURVE",
"608 354 OFFCURVE",
"608 361 CURVE SMOOTH",
"608 363 OFFCURVE",
"605 365 OFFCURVE",
"596 366 CURVE SMOOTH",
"572 369 OFFCURVE",
"547 369 OFFCURVE",
"523 369 CURVE SMOOTH",
"486 369 LINE SMOOTH",
"409 369 OFFCURVE",
"333 358 OFFCURVE",
"256 360 CURVE",
"279 391 OFFCURVE",
"370 506 OFFCURVE",
"396 523 CURVE SMOOTH",
"425 543 OFFCURVE",
"558 549 OFFCURVE",
"598 549 CURVE SMOOTH",
"619 549 OFFCURVE",
"656 550 OFFCURVE",
"677 541 CURVE",
"682 531 OFFCURVE",
"689 527 OFFCURVE",
"694 527 CURVE SMOOTH",
"702 527 OFFCURVE",
"709 536 OFFCURVE",
"709 545 CURVE SMOOTH",
"709 556 OFFCURVE",
"701 569 OFFCURVE",
"680 575 CURVE",
"628 584 OFFCURVE",
"575 584 OFFCURVE",
"525 584 CURVE SMOOTH",
"461 584 OFFCURVE",
"268 582 OFFCURVE",
"274 529 CURVE SMOOTH",
"277 505 OFFCURVE",
"290 517 OFFCURVE",
"297 504 CURVE",
"257 454 OFFCURVE",
"208 339 OFFCURVE",
"133 339 CURVE SMOOTH",
"129 339 OFFCURVE",
"120 341 OFFCURVE",
"112 341 CURVE SMOOTH",
"105 341 OFFCURVE",
"98 339 OFFCURVE",
"98 332 CURVE SMOOTH",
"98 303 OFFCURVE",
"141 303 OFFCURVE",
"159 302 CURVE",
"132 246 OFFCURVE",
"86 169 OFFCURVE",
"86 101 CURVE SMOOTH",
"86 95 OFFCURVE",
"86 90 OFFCURVE",
"87 85 CURVE SMOOTH",
"97 4 OFFCURVE",
"154 -26 OFFCURVE",
"228 -26 CURVE SMOOTH"
);
},
{
closed = 1;
nodes = (
"469 653 OFFCURVE",
"471 653 OFFCURVE",
"473 655 CURVE",
"504 677 OFFCURVE",
"565 725 OFFCURVE",
"578 735 CURVE",
"584 715 OFFCURVE",
"627 657 OFFCURVE",
"646 656 CURVE SMOOTH",
"652 656 OFFCURVE",
"655 658 OFFCURVE",
"655 662 CURVE SMOOTH",
"655 665 OFFCURVE",
"654 668 OFFCURVE",
"652 672 CURVE SMOOTH",
"634 701 OFFCURVE",
"616 732 OFFCURVE",
"606 769 CURVE",
"604 773 OFFCURVE",
"599 774 OFFCURVE",
"594 774 CURVE SMOOTH",
"591 774 OFFCURVE",
"588 774 OFFCURVE",
"586 773 CURVE SMOOTH",
"574 767 OFFCURVE",
"476 677 OFFCURVE",
"466 669 CURVE SMOOTH",
"461 666 OFFCURVE",
"459 662 OFFCURVE",
"459 659 CURVE SMOOTH",
"459 656 OFFCURVE",
"462 653 OFFCURVE",
"467 653 CURVE SMOOTH"
);
}
);
};
components = (
{
name = E;
},
{
name = circumflexcomb.case;
transform = "{1, 0, 0, 1, 430, 294}";
}
);
layerId = "C7EEC47D-2D39-4E2B-85C4-E2E866CE7804";
width = 589;
}
);
note = Ecircumflex;
unicode = 00CA;
},
{
glyphname = Edieresis;
lastChange = "2021-10-01 07:33:16 +0000";
layers = (
{
background = {
paths = (
{
closed = 1;
nodes = (
"332 -26 OFFCURVE",
"604 65 OFFCURVE",
"657 142 CURVE SMOOTH",
"660 146 OFFCURVE",
"661 150 OFFCURVE",
"661 152 CURVE SMOOTH",
"661 155 OFFCURVE",
"660 156 OFFCURVE",
"658 156 CURVE SMOOTH",
"656 156 OFFCURVE",
"654 155 OFFCURVE",
"650 153 CURVE SMOOTH",
"551 98 OFFCURVE",
"352 13 OFFCURVE",
"231 13 CURVE SMOOTH",
"160 13 OFFCURVE",
"137 47 OFFCURVE",
"137 92 CURVE SMOOTH",
"137 168 OFFCURVE",
"204 275 OFFCURVE",
"215 300 CURVE",
"323 345 OFFCURVE",
"456 324 OFFCURVE",
"571 343 CURVE SMOOTH",
"578 344 OFFCURVE",
"608 354 OFFCURVE",
"608 361 CURVE SMOOTH",
"608 363 OFFCURVE",
"605 365 OFFCURVE",
"596 366 CURVE SMOOTH",
"572 369 OFFCURVE",
"547 369 OFFCURVE",
"523 369 CURVE SMOOTH",
"486 369 LINE SMOOTH",
"409 369 OFFCURVE",
"333 358 OFFCURVE",
"256 360 CURVE",
"279 391 OFFCURVE",
"370 506 OFFCURVE",
"396 523 CURVE SMOOTH",
"425 543 OFFCURVE",
"558 549 OFFCURVE",
"598 549 CURVE SMOOTH",
"619 549 OFFCURVE",
"656 550 OFFCURVE",
"677 541 CURVE",
"682 531 OFFCURVE",
"689 527 OFFCURVE",
"694 527 CURVE SMOOTH",
"702 527 OFFCURVE",
"709 536 OFFCURVE",
"709 545 CURVE SMOOTH",
"709 556 OFFCURVE",
"701 569 OFFCURVE",
"680 575 CURVE",
"628 584 OFFCURVE",
"575 584 OFFCURVE",
"525 584 CURVE SMOOTH",
"461 584 OFFCURVE",
"268 582 OFFCURVE",
"274 529 CURVE SMOOTH",
"277 505 OFFCURVE",
"290 517 OFFCURVE",
"297 504 CURVE",
"257 454 OFFCURVE",
"208 339 OFFCURVE",
"133 339 CURVE SMOOTH",
"129 339 OFFCURVE",
"120 341 OFFCURVE",
"112 341 CURVE SMOOTH",
"105 341 OFFCURVE",
"98 339 OFFCURVE",
"98 332 CURVE SMOOTH",
"98 303 OFFCURVE",
"141 303 OFFCURVE",
"159 302 CURVE",
"132 246 OFFCURVE",
"86 169 OFFCURVE",
"86 101 CURVE SMOOTH",
"86 95 OFFCURVE",
"86 90 OFFCURVE",
"87 85 CURVE SMOOTH",
"97 4 OFFCURVE",
"154 -26 OFFCURVE",
"228 -26 CURVE SMOOTH"
);
},
{
closed = 1;
nodes = (
"506 674 OFFCURVE",
"532 715 OFFCURVE",
"533 725 CURVE SMOOTH",
"534 738 OFFCURVE",
"522 749 OFFCURVE",
"511 749 CURVE SMOOTH",
"491 749 OFFCURVE",
"460 713 OFFCURVE",
"460 696 CURVE SMOOTH",
"460 677 OFFCURVE",
"483 674 OFFCURVE",
"495 674 CURVE SMOOTH"
);
},
{
closed = 1;
nodes = (
"626 674 OFFCURVE",
"652 715 OFFCURVE",
"653 725 CURVE SMOOTH",
"654 738 OFFCURVE",
"642 749 OFFCURVE",
"631 749 CURVE SMOOTH",
"611 749 OFFCURVE",
"580 713 OFFCURVE",
"580 696 CURVE SMOOTH",
"580 677 OFFCURVE",
"603 674 OFFCURVE",
"615 674 CURVE SMOOTH"
);
}
);
};
components = (
{
name = E;
},
{
name = dieresiscomb.case;
transform = "{1, 0, 0, 1, 459, 294}";
}
);
layerId = "C7EEC47D-2D39-4E2B-85C4-E2E866CE7804";
width = 589;
}
);
note = Edieresis;
unicode = 00CB;
},
{
glyphname = Edotaccent;
lastChange = "2021-10-01 07:33:16 +0000";
layers = (
{
background = {
paths = (
{
closed = 1;
nodes = (
"332 -26 OFFCURVE",
"604 65 OFFCURVE",
"657 142 CURVE SMOOTH",
"660 146 OFFCURVE",
"661 150 OFFCURVE",
"661 152 CURVE SMOOTH",
"661 155 OFFCURVE",
"660 156 OFFCURVE",
"658 156 CURVE SMOOTH",
"656 156 OFFCURVE",
"654 155 OFFCURVE",
"650 153 CURVE SMOOTH",
"551 98 OFFCURVE",
"352 13 OFFCURVE",
"231 13 CURVE SMOOTH",
"160 13 OFFCURVE",
"137 47 OFFCURVE",
"137 92 CURVE SMOOTH",
"137 168 OFFCURVE",
"204 275 OFFCURVE",
"215 300 CURVE",
"323 345 OFFCURVE",
"456 324 OFFCURVE",
"571 343 CURVE SMOOTH",
"578 344 OFFCURVE",
"608 354 OFFCURVE",
"608 361 CURVE SMOOTH",
"608 363 OFFCURVE",
"605 365 OFFCURVE",
"596 366 CURVE SMOOTH",
"572 369 OFFCURVE",
"547 369 OFFCURVE",
"523 369 CURVE SMOOTH",
"486 369 LINE SMOOTH",
"409 369 OFFCURVE",
"333 358 OFFCURVE",
"256 360 CURVE",
"279 391 OFFCURVE",
"370 506 OFFCURVE",
"396 523 CURVE SMOOTH",
"425 543 OFFCURVE",
"558 549 OFFCURVE",
"598 549 CURVE SMOOTH",
"619 549 OFFCURVE",
"656 550 OFFCURVE",
"677 541 CURVE",
"682 531 OFFCURVE",
"689 527 OFFCURVE",
"694 527 CURVE SMOOTH",
"702 527 OFFCURVE",
"709 536 OFFCURVE",
"709 545 CURVE SMOOTH",
"709 556 OFFCURVE",
"701 569 OFFCURVE",
"680 575 CURVE",
"628 584 OFFCURVE",
"575 584 OFFCURVE",
"525 584 CURVE SMOOTH",
"461 584 OFFCURVE",
"268 582 OFFCURVE",
"274 529 CURVE SMOOTH",
"277 505 OFFCURVE",
"290 517 OFFCURVE",
"297 504 CURVE",
"257 454 OFFCURVE",
"208 339 OFFCURVE",
"133 339 CURVE SMOOTH",
"129 339 OFFCURVE",
"120 341 OFFCURVE",
"112 341 CURVE SMOOTH",
"105 341 OFFCURVE",
"98 339 OFFCURVE",
"98 332 CURVE SMOOTH",
"98 303 OFFCURVE",
"141 303 OFFCURVE",
"159 302 CURVE",
"132 246 OFFCURVE",
"86 169 OFFCURVE",
"86 101 CURVE SMOOTH",
"86 95 OFFCURVE",
"86 90 OFFCURVE",
"87 85 CURVE SMOOTH",
"97 4 OFFCURVE",
"154 -26 OFFCURVE",
"228 -26 CURVE SMOOTH"
);
},
{
closed = 1;
nodes = (
"563 641 OFFCURVE",
"589 682 OFFCURVE",
"590 692 CURVE SMOOTH",
"591 705 OFFCURVE",
"579 716 OFFCURVE",
"568 716 CURVE SMOOTH",
"548 716 OFFCURVE",
"517 680 OFFCURVE",
"517 663 CURVE SMOOTH",
"517 644 OFFCURVE",
"540 641 OFFCURVE",
"552 641 CURVE SMOOTH"
);
}
);
};
components = (
{
name = E;
},
{
name = dotaccentcomb.case;
transform = "{1, 0, 0, 1, 526, 294}";
}
);
layerId = "C7EEC47D-2D39-4E2B-85C4-E2E866CE7804";
width = 589;
}
);
note = Edotaccent;
unicode = 0116;
},
{
glyphname = Egrave;
lastChange = "2021-10-01 07:33:16 +0000";
layers = (
{
background = {
paths = (
{
closed = 1;
nodes = (
"332 -26 OFFCURVE",
"604 65 OFFCURVE",
"657 142 CURVE SMOOTH",
"660 146 OFFCURVE",
"661 150 OFFCURVE",
"661 152 CURVE SMOOTH",
"661 155 OFFCURVE",
"660 156 OFFCURVE",
"658 156 CURVE SMOOTH",
"656 156 OFFCURVE",
"654 155 OFFCURVE",
"650 153 CURVE SMOOTH",
"551 98 OFFCURVE",
"352 13 OFFCURVE",
"231 13 CURVE SMOOTH",
"160 13 OFFCURVE",
"137 47 OFFCURVE",
"137 92 CURVE SMOOTH",
"137 168 OFFCURVE",
"204 275 OFFCURVE",
"215 300 CURVE",
"323 345 OFFCURVE",
"456 324 OFFCURVE",
"571 343 CURVE SMOOTH",
"578 344 OFFCURVE",
"608 354 OFFCURVE",
"608 361 CURVE SMOOTH",
"608 363 OFFCURVE",
"605 365 OFFCURVE",
"596 366 CURVE SMOOTH",
"572 369 OFFCURVE",
"547 369 OFFCURVE",
"523 369 CURVE SMOOTH",
"486 369 LINE SMOOTH",
"409 369 OFFCURVE",
"333 358 OFFCURVE",
"256 360 CURVE",
"279 391 OFFCURVE",
"370 506 OFFCURVE",
"396 523 CURVE SMOOTH",
"425 543 OFFCURVE",
"558 549 OFFCURVE",
"598 549 CURVE SMOOTH",
"619 549 OFFCURVE",
"656 550 OFFCURVE",
"677 541 CURVE",
"682 531 OFFCURVE",
"689 527 OFFCURVE",
"694 527 CURVE SMOOTH",
"702 527 OFFCURVE",
"709 536 OFFCURVE",
"709 545 CURVE SMOOTH",
"709 556 OFFCURVE",
"701 569 OFFCURVE",
"680 575 CURVE",
"628 584 OFFCURVE",
"575 584 OFFCURVE",
"525 584 CURVE SMOOTH",
"461 584 OFFCURVE",
"268 582 OFFCURVE",
"274 529 CURVE SMOOTH",
"277 505 OFFCURVE",
"290 517 OFFCURVE",
"297 504 CURVE",
"257 454 OFFCURVE",
"208 339 OFFCURVE",
"133 339 CURVE SMOOTH",
"129 339 OFFCURVE",
"120 341 OFFCURVE",
"112 341 CURVE SMOOTH",
"105 341 OFFCURVE",
"98 339 OFFCURVE",
"98 332 CURVE SMOOTH",
"98 303 OFFCURVE",
"141 303 OFFCURVE",
"159 302 CURVE",
"132 246 OFFCURVE",
"86 169 OFFCURVE",
"86 101 CURVE SMOOTH",
"86 95 OFFCURVE",
"86 90 OFFCURVE",
"87 85 CURVE SMOOTH",
"97 4 OFFCURVE",
"154 -26 OFFCURVE",
"228 -26 CURVE SMOOTH"
);
},
{
closed = 1;
nodes = (
"608 639 OFFCURVE",
"611 641 OFFCURVE",
"611 644 CURVE",
"610 647 OFFCURVE",
"608 649 OFFCURVE",
"606 651 CURVE SMOOTH",
"577 675 OFFCURVE",
"527 701 OFFCURVE",
"494 723 CURVE",
"489 725 OFFCURVE",
"483 729 OFFCURVE",
"478 729 CURVE SMOOTH",
"476 729 LINE SMOOTH",
"469 728 OFFCURVE",
"461 713 OFFCURVE",
"461 707 CURVE SMOOTH",
"462 700 OFFCURVE",
"466 693 OFFCURVE",
"472 690 CURVE",
"486 680 OFFCURVE",
"597 638 OFFCURVE",
"604 639 CURVE SMOOTH"
);
}
);
};
components = (
{
name = E;
},
{
name = gravecomb.case;
transform = "{1, 0, 0, 1, 409, 294}";
}
);
layerId = "C7EEC47D-2D39-4E2B-85C4-E2E866CE7804";
width = 589;
}
);
note = Egrave;
unicode = 00C8;
},
{
glyphname = Emacron;
lastChange = "2021-10-01 07:33:16 +0000";
layers = (
{
background = {
paths = (
{
closed = 1;
nodes = (
"332 -26 OFFCURVE",
"604 65 OFFCURVE",
"657 142 CURVE SMOOTH",
"660 146 OFFCURVE",
"661 150 OFFCURVE",
"661 152 CURVE SMOOTH",
"661 155 OFFCURVE",
"660 156 OFFCURVE",
"658 156 CURVE SMOOTH",
"656 156 OFFCURVE",
"654 155 OFFCURVE",
"650 153 CURVE SMOOTH",
"551 98 OFFCURVE",
"352 13 OFFCURVE",
"231 13 CURVE SMOOTH",
"160 13 OFFCURVE",
"137 47 OFFCURVE",
"137 92 CURVE SMOOTH",
"137 168 OFFCURVE",
"204 275 OFFCURVE",
"215 300 CURVE",
"323 345 OFFCURVE",
"456 324 OFFCURVE",
"571 343 CURVE SMOOTH",
"578 344 OFFCURVE",
"608 354 OFFCURVE",
"608 361 CURVE SMOOTH",
"608 363 OFFCURVE",
"605 365 OFFCURVE",
"596 366 CURVE SMOOTH",
"572 369 OFFCURVE",
"547 369 OFFCURVE",
"523 369 CURVE SMOOTH",
"486 369 LINE SMOOTH",
"409 369 OFFCURVE",
"333 358 OFFCURVE",
"256 360 CURVE",
"279 391 OFFCURVE",
"370 506 OFFCURVE",
"396 523 CURVE SMOOTH",
"425 543 OFFCURVE",
"558 549 OFFCURVE",
"598 549 CURVE SMOOTH",
"619 549 OFFCURVE",
"656 550 OFFCURVE",
"677 541 CURVE",
"682 531 OFFCURVE",
"689 527 OFFCURVE",
"694 527 CURVE SMOOTH",
"702 527 OFFCURVE",
"709 536 OFFCURVE",
"709 545 CURVE SMOOTH",
"709 556 OFFCURVE",
"701 569 OFFCURVE",
"680 575 CURVE",
"628 584 OFFCURVE",
"575 584 OFFCURVE",
"525 584 CURVE SMOOTH",
"461 584 OFFCURVE",
"268 582 OFFCURVE",
"274 529 CURVE SMOOTH",
"277 505 OFFCURVE",
"290 517 OFFCURVE",
"297 504 CURVE",
"257 454 OFFCURVE",
"208 339 OFFCURVE",
"133 339 CURVE SMOOTH",
"129 339 OFFCURVE",
"120 341 OFFCURVE",
"112 341 CURVE SMOOTH",
"105 341 OFFCURVE",
"98 339 OFFCURVE",
"98 332 CURVE SMOOTH",
"98 303 OFFCURVE",
"141 303 OFFCURVE",
"159 302 CURVE",
"132 246 OFFCURVE",
"86 169 OFFCURVE",
"86 101 CURVE SMOOTH",
"86 95 OFFCURVE",
"86 90 OFFCURVE",
"87 85 CURVE SMOOTH",
"97 4 OFFCURVE",
"154 -26 OFFCURVE",
"228 -26 CURVE SMOOTH"
);
},
{
closed = 1;
nodes = (
"597 678 LINE SMOOTH",
"628 678 OFFCURVE",
"646 686 OFFCURVE",
"646 695 CURVE SMOOTH",
"646 706 OFFCURVE",
"624 707 OFFCURVE",
"611 707 CURVE SMOOTH",
"499 707 LINE SMOOTH",
"477 707 OFFCURVE",
"454 693 OFFCURVE",
"454 684 CURVE SMOOTH",
"454 681 OFFCURVE",
"458 678 OFFCURVE",
"468 678 CURVE SMOOTH"
);
}
);
};
components = (
{
name = E;
},
{
name = macroncomb.case;
transform = "{1, 0, 0, 1, 441, 294}";
}
);
layerId = "C7EEC47D-2D39-4E2B-85C4-E2E866CE7804";
width = 589;
}
);
note = Emacron;
unicode = 0112;
},
{
glyphname = Eogonek;
lastChange = "2021-10-01 07:33:16 +0000";
layers = (
{
background = {
paths = (
{
closed = 1;
nodes = (
"332 -26 OFFCURVE",
"604 65 OFFCURVE",
"657 142 CURVE SMOOTH",
"660 146 OFFCURVE",
"661 150 OFFCURVE",
"661 152 CURVE SMOOTH",
"661 155 OFFCURVE",
"660 156 OFFCURVE",
"658 156 CURVE SMOOTH",
"656 156 OFFCURVE",
"654 155 OFFCURVE",
"650 153 CURVE SMOOTH",
"551 98 OFFCURVE",
"352 13 OFFCURVE",
"231 13 CURVE SMOOTH",
"160 13 OFFCURVE",
"137 47 OFFCURVE",
"137 92 CURVE SMOOTH",
"137 168 OFFCURVE",
"204 275 OFFCURVE",
"215 300 CURVE",
"323 345 OFFCURVE",
"456 324 OFFCURVE",
"571 343 CURVE SMOOTH",
"578 344 OFFCURVE",
"608 354 OFFCURVE",
"608 361 CURVE SMOOTH",
"608 363 OFFCURVE",
"605 365 OFFCURVE",
"596 366 CURVE SMOOTH",
"572 369 OFFCURVE",
"547 369 OFFCURVE",
"523 369 CURVE SMOOTH",
"486 369 LINE SMOOTH",
"409 369 OFFCURVE",
"333 358 OFFCURVE",
"256 360 CURVE",
"279 391 OFFCURVE",
"370 506 OFFCURVE",
"396 523 CURVE SMOOTH",
"425 543 OFFCURVE",
"558 549 OFFCURVE",
"598 549 CURVE SMOOTH",
"619 549 OFFCURVE",
"656 550 OFFCURVE",
"677 541 CURVE",
"682 531 OFFCURVE",
"689 527 OFFCURVE",
"694 527 CURVE SMOOTH",
"702 527 OFFCURVE",
"709 536 OFFCURVE",
"709 545 CURVE SMOOTH",
"709 556 OFFCURVE",
"701 569 OFFCURVE",
"680 575 CURVE",
"628 584 OFFCURVE",
"575 584 OFFCURVE",
"525 584 CURVE SMOOTH",
"461 584 OFFCURVE",
"268 582 OFFCURVE",
"274 529 CURVE SMOOTH",
"277 505 OFFCURVE",
"290 517 OFFCURVE",
"297 504 CURVE",
"257 454 OFFCURVE",
"208 339 OFFCURVE",
"133 339 CURVE SMOOTH",
"129 339 OFFCURVE",
"120 341 OFFCURVE",
"112 341 CURVE SMOOTH",
"105 341 OFFCURVE",
"98 339 OFFCURVE",
"98 332 CURVE SMOOTH",
"98 303 OFFCURVE",
"141 303 OFFCURVE",
"159 302 CURVE",
"132 246 OFFCURVE",
"86 169 OFFCURVE",
"86 101 CURVE SMOOTH",
"86 95 OFFCURVE",
"86 90 OFFCURVE",
"87 85 CURVE SMOOTH",
"97 4 OFFCURVE",
"154 -26 OFFCURVE",
"228 -26 CURVE SMOOTH"
);
},
{
closed = 1;
nodes = (
"247 -180 OFFCURVE",
"337 -158 OFFCURVE",
"337 -138 CURVE SMOOTH",
"337 -133 OFFCURVE",
"332 -129 OFFCURVE",
"326 -129 CURVE SMOOTH",
"319 -129 OFFCURVE",
"279 -152 OFFCURVE",
"251 -152 CURVE SMOOTH",
"226 -152 OFFCURVE",
"206 -138 OFFCURVE",
"206 -111 CURVE SMOOTH",
"206 -84 OFFCURVE",
"225 -44 OFFCURVE",
"240 -23 CURVE",
"237 -20 LINE",
"205 -21 OFFCURVE",
"174 -111 OFFCURVE",
"174 -138 CURVE SMOOTH",
"174 -169 OFFCURVE",
"202 -180 OFFCURVE",
"229 -180 CURVE SMOOTH"
);
}
);
};
components = (
{
name = E;
},
{
name = ogonekcomb;
transform = "{1, 0, 0, 1, 465, 82}";
}
);
layerId = "C7EEC47D-2D39-4E2B-85C4-E2E866CE7804";
width = 589;
}
);
note = Eogonek;
unicode = 0118;
},
{
color = 9;
glyphname = F;
lastChange = "2021-10-08 03:45:14 +0000";
layers = (
{
background = {
paths = (
{
closed = 1;
nodes = (
"112 -17 OFFCURVE",
"118 -14 OFFCURVE",
"118 -8 CURVE SMOOTH",
"118 -3 OFFCURVE",
"114 3 OFFCURVE",
"105 10 CURVE SMOOTH",
"100 14 OFFCURVE",
"100 25 OFFCURVE",
"100 30 CURVE SMOOTH",
"100 65 OFFCURVE",
"195 253 OFFCURVE",
"219 253 CURVE SMOOTH",
"326 253 OFFCURVE",
"450 267 OFFCURVE",
"554 281 CURVE SMOOTH",
"569 283 OFFCURVE",
"613 298 OFFCURVE",
"613 307 CURVE SMOOTH",
"613 311 OFFCURVE",
"604 314 OFFCURVE",
"580 314 CURVE SMOOTH",
"518 314 OFFCURVE",
"457 308 OFFCURVE",
"394 308 CURVE SMOOTH",
"366 308 OFFCURVE",
"285 308 OFFCURVE",
"261 317 CURVE",
"343 446 OFFCURVE",
"368 520 OFFCURVE",
"532 531 CURVE SMOOTH",
"600 536 OFFCURVE",
"668 542 OFFCURVE",
"736 542 CURVE SMOOTH",
"772 542 OFFCURVE",
"785 549 OFFCURVE",
"785 556 CURVE SMOOTH",
"785 566 OFFCURVE",
"764 576 OFFCURVE",
"738 576 CURVE SMOOTH",
"663 576 OFFCURVE",
"524 574 OFFCURVE",
"449 571 CURVE SMOOTH",
"391 569 OFFCURVE",
"306 554 OFFCURVE",
"306 523 CURVE SMOOTH",
"306 515 OFFCURVE",
"311 506 OFFCURVE",
"325 495 CURVE",
"280 442 OFFCURVE",
"246 376 OFFCURVE",
"208 318 CURVE",
"192 316 OFFCURVE",
"154 307 OFFCURVE",
"154 287 CURVE SMOOTH",
"154 278 OFFCURVE",
"161 271 OFFCURVE",
"167 266 CURVE",
"133 208 OFFCURVE",
"66 92 OFFCURVE",
"66 27 CURVE SMOOTH",
"66 -4 OFFCURVE",
"89 -17 OFFCURVE",
"105 -17 CURVE SMOOTH"
);
}
);
};
layerId = "C7EEC47D-2D39-4E2B-85C4-E2E866CE7804";
paths = (
{
closed = 1;
nodes = (
"112 -7 OFFCURVE",
"118 -4 OFFCURVE",
"118 2 CURVE SMOOTH",
"118 7 OFFCURVE",
"114 13 OFFCURVE",
"105 20 CURVE SMOOTH",
"100 24 OFFCURVE",
"100 35 OFFCURVE",
"100 40 CURVE SMOOTH",
"100 75 OFFCURVE",
"195 263 OFFCURVE",
"219 263 CURVE SMOOTH",
"326 263 OFFCURVE",
"450 277 OFFCURVE",
"554 291 CURVE SMOOTH",
"569 293 OFFCURVE",
"613 308 OFFCURVE",
"613 317 CURVE SMOOTH",
"613 321 OFFCURVE",
"604 324 OFFCURVE",
"580 324 CURVE SMOOTH",
"518 324 OFFCURVE",
"457 318 OFFCURVE",
"394 318 CURVE SMOOTH",
"366 318 OFFCURVE",
"285 318 OFFCURVE",
"261 327 CURVE",
"343 456 OFFCURVE",
"368 530 OFFCURVE",
"532 541 CURVE SMOOTH",
"600 546 OFFCURVE",
"668 552 OFFCURVE",
"736 552 CURVE SMOOTH",
"772 552 OFFCURVE",
"785 559 OFFCURVE",
"785 566 CURVE SMOOTH",
"785 576 OFFCURVE",
"764 586 OFFCURVE",
"738 586 CURVE SMOOTH",
"663 586 OFFCURVE",
"524 584 OFFCURVE",
"449 581 CURVE SMOOTH",
"391 579 OFFCURVE",
"306 564 OFFCURVE",
"306 533 CURVE SMOOTH",
"306 525 OFFCURVE",
"311 516 OFFCURVE",
"325 505 CURVE",
"280 452 OFFCURVE",
"246 386 OFFCURVE",
"208 328 CURVE",
"192 326 OFFCURVE",
"154 317 OFFCURVE",
"154 297 CURVE SMOOTH",
"154 288 OFFCURVE",
"161 281 OFFCURVE",
"167 276 CURVE",
"133 218 OFFCURVE",
"66 102 OFFCURVE",
"66 37 CURVE SMOOTH",
"66 6 OFFCURVE",
"89 -7 OFFCURVE",
"105 -7 CURVE SMOOTH"
);
}
);
width = 484;
}
);
note = F;
unicode = 0046;
},
{
color = 9;
glyphname = G;
lastChange = "2021-10-08 03:45:14 +0000";
layers = (
{
anchors = (
{
name = bottom;
position = "{263, -6}";
},
{
name = top;
position = "{608, 610}";
}
);
background = {
paths = (
{
closed = 1;
nodes = (
"557 -57 OFFCURVE",
"563 -55 OFFCURVE",
"568 -53 CURVE",
"567 -49 OFFCURVE",
"567 -46 OFFCURVE",
"567 -41 CURVE SMOOTH",
"567 35 OFFCURVE",
"697 230 OFFCURVE",
"784 230 CURVE SMOOTH",
"791 230 OFFCURVE",
"811 227 OFFCURVE",
"828 227 CURVE SMOOTH",
"844 227 OFFCURVE",
"857 229 OFFCURVE",
"857 237 CURVE SMOOTH",
"857 259 OFFCURVE",
"747 261 OFFCURVE",
"697 261 CURVE SMOOTH",
"812 261 OFFCURVE",
"253 273 OFFCURVE",
"253 184 CURVE SMOOTH",
"253 168 OFFCURVE",
"259 162 OFFCURVE",
"272 162 CURVE SMOOTH",
"295 162 OFFCURVE",
"341 184 OFFCURVE",
"407 200 CURVE",
"445 205 OFFCURVE",
"564 227 OFFCURVE",
"624 227 CURVE SMOOTH",
"636 227 OFFCURVE",
"646 226 OFFCURVE",
"652 224 CURVE",
"616 101 OFFCURVE",
"312 15 OFFCURVE",
"198 15 CURVE SMOOTH",
"146 15 OFFCURVE",
"71 27 OFFCURVE",
"71 94 CURVE SMOOTH",
"71 269 OFFCURVE",
"448 569 OFFCURVE",
"613 569 CURVE SMOOTH",
"641 569 OFFCURVE",
"669 559 OFFCURVE",
"669 527 CURVE SMOOTH",
"669 471 OFFCURVE",
"603 426 OFFCURVE",
"603 412 CURVE SMOOTH",
"603 406 OFFCURVE",
"609 404 OFFCURVE",
"614 404 CURVE SMOOTH",
"660 404 OFFCURVE",
"708 462 OFFCURVE",
"708 507 CURVE SMOOTH",
"708 558 OFFCURVE",
"666 608 OFFCURVE",
"613 608 CURVE SMOOTH",
"393 608 OFFCURVE",
"37 337 OFFCURVE",
"37 105 CURVE SMOOTH",
"37 10 OFFCURVE",
"94 -30 OFFCURVE",
"184 -30 CURVE SMOOTH",
"298 -30 OFFCURVE",
"484 41 OFFCURVE",
"578 105 CURVE",
"563 71 OFFCURVE",
"523 18 OFFCURVE",
"523 -18 CURVE SMOOTH",
"523 -36 OFFCURVE",
"531 -57 OFFCURVE",
"552 -57 CURVE SMOOTH"
);
}
);
};
layerId = "C7EEC47D-2D39-4E2B-85C4-E2E866CE7804";
paths = (
{
closed = 1;
nodes = (
"557 -47 OFFCURVE",
"563 -45 OFFCURVE",
"568 -43 CURVE",
"567 -39 OFFCURVE",
"567 -36 OFFCURVE",
"567 -31 CURVE SMOOTH",
"567 45 OFFCURVE",
"697 240 OFFCURVE",
"784 240 CURVE SMOOTH",
"791 240 OFFCURVE",
"811 237 OFFCURVE",
"828 237 CURVE SMOOTH",
"844 237 OFFCURVE",
"857 239 OFFCURVE",
"857 247 CURVE SMOOTH",
"857 270 OFFCURVE",
"737 272 OFFCURVE",
"691 272 CURVE SMOOTH",
"600 272 OFFCURVE",
"253 264 OFFCURVE",
"253 194 CURVE SMOOTH",
"253 178 OFFCURVE",
"259 172 OFFCURVE",
"272 172 CURVE SMOOTH",
"295 172 OFFCURVE",
"341 194 OFFCURVE",
"407 210 CURVE",
"445 215 OFFCURVE",
"564 237 OFFCURVE",
"624 237 CURVE SMOOTH",
"636 237 OFFCURVE",
"646 236 OFFCURVE",
"652 234 CURVE",
"616 111 OFFCURVE",
"312 25 OFFCURVE",
"198 25 CURVE SMOOTH",
"146 25 OFFCURVE",
"71 37 OFFCURVE",
"71 104 CURVE SMOOTH",
"71 279 OFFCURVE",
"448 579 OFFCURVE",
"613 579 CURVE SMOOTH",
"641 579 OFFCURVE",
"669 569 OFFCURVE",
"669 537 CURVE SMOOTH",
"669 481 OFFCURVE",
"603 436 OFFCURVE",
"603 422 CURVE SMOOTH",
"603 416 OFFCURVE",
"609 414 OFFCURVE",
"614 414 CURVE SMOOTH",
"660 414 OFFCURVE",
"708 472 OFFCURVE",
"708 517 CURVE SMOOTH",
"708 568 OFFCURVE",
"666 618 OFFCURVE",
"613 618 CURVE SMOOTH",
"393 618 OFFCURVE",
"37 347 OFFCURVE",
"37 115 CURVE SMOOTH",
"37 20 OFFCURVE",
"94 -20 OFFCURVE",
"184 -20 CURVE SMOOTH",
"298 -20 OFFCURVE",
"484 51 OFFCURVE",
"578 115 CURVE",
"563 81 OFFCURVE",
"523 28 OFFCURVE",
"523 -8 CURVE SMOOTH",
"523 -26 OFFCURVE",
"531 -47 OFFCURVE",
"552 -47 CURVE SMOOTH"
);
}
);
width = 750;
}
);
note = G;
unicode = 0047;
},
{
glyphname = Gbreve;
lastChange = "2021-10-01 07:33:16 +0000";
layers = (
{
background = {
paths = (
{
closed = 1;
nodes = (
"557 -57 OFFCURVE",
"563 -55 OFFCURVE",
"568 -53 CURVE",
"567 -49 OFFCURVE",
"567 -46 OFFCURVE",
"567 -41 CURVE SMOOTH",
"567 35 OFFCURVE",
"697 230 OFFCURVE",
"784 230 CURVE SMOOTH",
"791 230 OFFCURVE",
"811 227 OFFCURVE",
"828 227 CURVE SMOOTH",
"844 227 OFFCURVE",
"857 229 OFFCURVE",
"857 237 CURVE SMOOTH",
"857 259 OFFCURVE",
"747 261 OFFCURVE",
"697 261 CURVE SMOOTH",
"812 261 OFFCURVE",
"253 273 OFFCURVE",
"253 184 CURVE SMOOTH",
"253 168 OFFCURVE",
"259 162 OFFCURVE",
"272 162 CURVE SMOOTH",
"295 162 OFFCURVE",
"341 184 OFFCURVE",
"407 200 CURVE",
"445 205 OFFCURVE",
"564 227 OFFCURVE",
"624 227 CURVE SMOOTH",
"636 227 OFFCURVE",
"646 226 OFFCURVE",
"652 224 CURVE",
"616 101 OFFCURVE",
"312 15 OFFCURVE",
"198 15 CURVE SMOOTH",
"146 15 OFFCURVE",
"71 27 OFFCURVE",
"71 94 CURVE SMOOTH",
"71 269 OFFCURVE",
"448 569 OFFCURVE",
"613 569 CURVE SMOOTH",
"641 569 OFFCURVE",
"669 559 OFFCURVE",
"669 527 CURVE SMOOTH",
"669 471 OFFCURVE",
"603 426 OFFCURVE",
"603 412 CURVE SMOOTH",
"603 406 OFFCURVE",
"609 404 OFFCURVE",
"614 404 CURVE SMOOTH",
"660 404 OFFCURVE",
"708 462 OFFCURVE",
"708 507 CURVE SMOOTH",
"708 558 OFFCURVE",
"666 608 OFFCURVE",
"613 608 CURVE SMOOTH",
"393 608 OFFCURVE",
"37 337 OFFCURVE",
"37 105 CURVE SMOOTH",
"37 10 OFFCURVE",
"94 -30 OFFCURVE",
"184 -30 CURVE SMOOTH",
"298 -30 OFFCURVE",
"484 41 OFFCURVE",
"578 105 CURVE",
"563 71 OFFCURVE",
"523 18 OFFCURVE",
"523 -18 CURVE SMOOTH",
"523 -36 OFFCURVE",
"531 -57 OFFCURVE",
"552 -57 CURVE SMOOTH"
);
},
{
closed = 1;
nodes = (
"702 647 OFFCURVE",
"744 690 OFFCURVE",
"752 735 CURVE",
"752 742 OFFCURVE",
"748 744 OFFCURVE",
"744 744 CURVE SMOOTH",
"741 744 OFFCURVE",
"737 742 OFFCURVE",
"736 738 CURVE SMOOTH",
"727 704 OFFCURVE",
"693 679 OFFCURVE",
"654 679 CURVE SMOOTH",
"592 679 OFFCURVE",
"594 740 OFFCURVE",
"581 740 CURVE SMOOTH",
"568 740 OFFCURVE",
"564 728 OFFCURVE",
"564 718 CURVE SMOOTH",
"564 713 OFFCURVE",
"565 709 OFFCURVE",
"566 706 CURVE SMOOTH",
"577 673 OFFCURVE",
"600 647 OFFCURVE",
"652 647 CURVE SMOOTH"
);
}
);
};
components = (
{
name = G;
},
{
name = brevecomb.case;
transform = "{1, 0, 0, 1, 527, 310}";
}
);
layerId = "C7EEC47D-2D39-4E2B-85C4-E2E866CE7804";
width = 750;
}
);
note = Gbreve;
unicode = 011E;
},
{
color = 9;
glyphname = H;
lastChange = "2021-10-08 03:45:14 +0000";
layers = (
{
anchors = (
{
name = bottom;
position = "{245, 0}";
},
{
name = center;
position = "{428, 429}";
},
{
name = top;
position = "{583, 610}";
},
{
name = topleft;
position = "{20, 610}";
}
);
background = {
paths = (
{
closed = 1;
nodes = (
"64 -46 OFFCURVE",
"82 -28 OFFCURVE",
"82 -12 CURVE SMOOTH",
"82 -11 OFFCURVE",
"81 -10 OFFCURVE",
"80 -10 CURVE SMOOTH",
"76 -10 OFFCURVE",
"58 -29 OFFCURVE",
"45 -29 CURVE SMOOTH",
"38 -29 OFFCURVE",
"37 -22 OFFCURVE",
"37 -17 CURVE SMOOTH",
"37 19 OFFCURVE",
"86 108 OFFCURVE",
"104 140 CURVE SMOOTH",
"148 217 OFFCURVE",
"156 210 OFFCURVE",
"245 220 CURVE SMOOTH",
"325 228 OFFCURVE",
"408 234 OFFCURVE",
"488 234 CURVE SMOOTH",
"494 234 OFFCURVE",
"500 234 OFFCURVE",
"506 232 CURVE",
"479 167 OFFCURVE",
"428 79 OFFCURVE",
"428 8 CURVE SMOOTH",
"428 -21 OFFCURVE",
"438 -37 OFFCURVE",
"469 -37 CURVE SMOOTH",
"476 -37 OFFCURVE",
"481 -33 OFFCURVE",
"481 -29 CURVE SMOOTH",
"481 -26 OFFCURVE",
"476 -22 OFFCURVE",
"463 -22 CURVE SMOOTH",
"456 -22 OFFCURVE",
"455 -14 OFFCURVE",
"455 -9 CURVE SMOOTH",
"455 28 OFFCURVE",
"513 155 OFFCURVE",
"533 190 CURVE SMOOTH",
"548 217 OFFCURVE",
"604 228 OFFCURVE",
"604 237 CURVE SMOOTH",
"604 250 OFFCURVE",
"577 255 OFFCURVE",
"568 257 CURVE",
"633 358 OFFCURVE",
"710 464 OFFCURVE",
"798 546 CURVE SMOOTH",
"802 550 OFFCURVE",
"805 554 OFFCURVE",
"805 560 CURVE SMOOTH",
"805 576 OFFCURVE",
"788 598 OFFCURVE",
"771 598 CURVE SMOOTH",
"722 598 OFFCURVE",
"537 304 OFFCURVE",
"520 262 CURVE",
"483 264 OFFCURVE",
"445 265 OFFCURVE",
"407 265 CURVE SMOOTH",
"332 265 OFFCURVE",
"256 262 OFFCURVE",
"181 259 CURVE",
"244 368 OFFCURVE",
"330 469 OFFCURVE",
"410 566 CURVE",
"409 580 OFFCURVE",
"392 599 OFFCURVE",
"377 599 CURVE SMOOTH",
"331 599 OFFCURVE",
"157 313 OFFCURVE",
"125 262 CURVE",
"107 260 OFFCURVE",
"47 243 OFFCURVE",
"47 218 CURVE SMOOTH",
"47 204 OFFCURVE",
"71 203 OFFCURVE",
"80 203 CURVE SMOOTH",
"93 204 LINE",
"64 153 OFFCURVE",
"10 54 OFFCURVE",
"10 -4 CURVE SMOOTH",
"10 -29 OFFCURVE",
"21 -46 OFFCURVE",
"47 -46 CURVE SMOOTH"
);
}
);
};
layerId = "C7EEC47D-2D39-4E2B-85C4-E2E866CE7804";
paths = (
{
closed = 1;
nodes = (
"64 -36 OFFCURVE",
"82 -18 OFFCURVE",
"82 -2 CURVE SMOOTH",
"82 -1 OFFCURVE",
"81 0 OFFCURVE",
"80 0 CURVE SMOOTH",
"76 0 OFFCURVE",
"58 -19 OFFCURVE",
"45 -19 CURVE SMOOTH",
"38 -19 OFFCURVE",
"37 -12 OFFCURVE",
"37 -7 CURVE SMOOTH",
"37 29 OFFCURVE",
"86 118 OFFCURVE",
"104 150 CURVE SMOOTH",
"148 227 OFFCURVE",
"156 220 OFFCURVE",
"245 230 CURVE SMOOTH",
"325 238 OFFCURVE",
"408 244 OFFCURVE",
"488 244 CURVE SMOOTH",
"494 244 OFFCURVE",
"500 244 OFFCURVE",
"506 242 CURVE",
"479 177 OFFCURVE",
"428 89 OFFCURVE",
"428 18 CURVE SMOOTH",
"428 -11 OFFCURVE",
"438 -27 OFFCURVE",
"469 -27 CURVE SMOOTH",
"476 -27 OFFCURVE",
"481 -23 OFFCURVE",
"481 -19 CURVE SMOOTH",
"481 -16 OFFCURVE",
"476 -12 OFFCURVE",
"463 -12 CURVE SMOOTH",
"456 -12 OFFCURVE",
"455 -4 OFFCURVE",
"455 1 CURVE SMOOTH",
"455 38 OFFCURVE",
"513 165 OFFCURVE",
"533 200 CURVE SMOOTH",
"548 227 OFFCURVE",
"604 238 OFFCURVE",
"604 247 CURVE SMOOTH",
"604 260 OFFCURVE",
"577 265 OFFCURVE",
"568 267 CURVE",
"633 368 OFFCURVE",
"710 474 OFFCURVE",
"798 556 CURVE SMOOTH",
"802 560 OFFCURVE",
"805 564 OFFCURVE",
"805 570 CURVE SMOOTH",
"805 586 OFFCURVE",
"788 608 OFFCURVE",
"771 608 CURVE SMOOTH",
"722 608 OFFCURVE",
"537 314 OFFCURVE",
"520 272 CURVE",
"483 274 OFFCURVE",
"445 275 OFFCURVE",
"407 275 CURVE SMOOTH",
"332 275 OFFCURVE",
"256 272 OFFCURVE",
"181 269 CURVE",
"244 378 OFFCURVE",
"330 479 OFFCURVE",
"410 576 CURVE",
"409 590 OFFCURVE",
"392 609 OFFCURVE",
"377 609 CURVE SMOOTH",
"331 609 OFFCURVE",
"157 323 OFFCURVE",
"125 272 CURVE",
"107 270 OFFCURVE",
"47 253 OFFCURVE",
"47 228 CURVE SMOOTH",
"47 214 OFFCURVE",
"71 212 OFFCURVE",
"80 213 CURVE SMOOTH",
"93 214 LINE",
"64 163 OFFCURVE",
"10 64 OFFCURVE",
"10 6 CURVE SMOOTH",
"10 -19 OFFCURVE",
"21 -36 OFFCURVE",
"47 -36 CURVE SMOOTH"
);
}
);
width = 593;
}
);
note = H;
unicode = 0048;
},
{
color = 9;
glyphname = I;
lastChange = "2021-10-08 03:45:14 +0000";
layers = (
{
anchors = (
{
name = bottom;
position = "{184, 23}";
},
{
name = ogonek;
position = "{206, 34}";
},
{
name = top;
position = "{505, 598}";
},
{
name = topleft;
position = "{20, 610}";
}
);
background = {
paths = (
{
closed = 1;
nodes = (
"25 -15 OFFCURVE",
"28 -14 OFFCURVE",
"31 -14 CURVE",
"140 11 OFFCURVE",
"256 24 OFFCURVE",
"368 33 CURVE SMOOTH",
"376 34 OFFCURVE",
"407 38 OFFCURVE",
"406 50 CURVE SMOOTH",
"406 58 OFFCURVE",
"381 58 OFFCURVE",
"379 58 CURVE SMOOTH",
"321 58 OFFCURVE",
"264 55 OFFCURVE",
"206 56 CURVE",
"247 180 OFFCURVE",
"386 409 OFFCURVE",
"482 498 CURVE SMOOTH",
"554 565 OFFCURVE",
"696 545 OFFCURVE",
"709 571 CURVE",
"708 578 OFFCURVE",
"698 579 OFFCURVE",
"694 579 CURVE SMOOTH",
"646 583 OFFCURVE",
"596 584 OFFCURVE",
"549 584 CURVE",
"539 594 OFFCURVE",
"520 612 OFFCURVE",
"505 612 CURVE SMOOTH",
"495 612 OFFCURVE",
"484 588 OFFCURVE",
"475 584 CURVE SMOOTH",
"449 570 OFFCURVE",
"285 576 OFFCURVE",
"285 534 CURVE SMOOTH",
"285 525 OFFCURVE",
"295 509 OFFCURVE",
"307 509 CURVE SMOOTH",
"341 509 OFFCURVE",
"395 543 OFFCURVE",
"443 542 CURVE",
"349 462 OFFCURVE",
"205 174 OFFCURVE",
"172 52 CURVE",
"138 49 OFFCURVE",
"5 46 OFFCURVE",
"5 1 CURVE SMOOTH",
"5 -9 OFFCURVE",
"12 -15 OFFCURVE",
"21 -15 CURVE SMOOTH"
);
}
);
};
layerId = "C7EEC47D-2D39-4E2B-85C4-E2E866CE7804";
paths = (
{
closed = 1;
nodes = (
"25 -5 OFFCURVE",
"28 -4 OFFCURVE",
"31 -4 CURVE",
"140 21 OFFCURVE",
"256 34 OFFCURVE",
"368 43 CURVE SMOOTH",
"376 44 OFFCURVE",
"407 48 OFFCURVE",
"406 60 CURVE SMOOTH",
"406 68 OFFCURVE",
"381 68 OFFCURVE",
"379 68 CURVE SMOOTH",
"321 68 OFFCURVE",
"264 65 OFFCURVE",
"206 66 CURVE",
"247 190 OFFCURVE",
"386 419 OFFCURVE",
"482 508 CURVE SMOOTH",
"554 575 OFFCURVE",
"696 555 OFFCURVE",
"709 581 CURVE",
"708 588 OFFCURVE",
"698 589 OFFCURVE",
"694 589 CURVE SMOOTH",
"646 593 OFFCURVE",
"596 594 OFFCURVE",
"549 594 CURVE",
"539 604 OFFCURVE",
"520 622 OFFCURVE",
"505 622 CURVE SMOOTH",
"495 622 OFFCURVE",
"484 598 OFFCURVE",
"475 594 CURVE SMOOTH",
"449 580 OFFCURVE",
"285 586 OFFCURVE",
"285 544 CURVE SMOOTH",
"285 535 OFFCURVE",
"295 519 OFFCURVE",
"307 519 CURVE SMOOTH",
"341 519 OFFCURVE",
"395 553 OFFCURVE",
"443 552 CURVE",
"349 472 OFFCURVE",
"205 184 OFFCURVE",
"172 62 CURVE",
"138 59 OFFCURVE",
"5 56 OFFCURVE",
"5 11 CURVE SMOOTH",
"5 1 OFFCURVE",
"12 -5 OFFCURVE",
"21 -5 CURVE SMOOTH"
);
}
);
width = 407;
}
);
note = I;
unicode = 0049;
},
{
glyphname = Iacute;
lastChange = "2021-10-01 07:33:16 +0000";
layers = (
{
background = {
paths = (
{
closed = 1;
nodes = (
"25 -15 OFFCURVE",
"28 -14 OFFCURVE",
"31 -14 CURVE",
"140 11 OFFCURVE",
"256 24 OFFCURVE",
"368 33 CURVE SMOOTH",
"376 34 OFFCURVE",
"407 38 OFFCURVE",
"406 50 CURVE SMOOTH",
"406 58 OFFCURVE",
"381 58 OFFCURVE",
"379 58 CURVE SMOOTH",
"321 58 OFFCURVE",
"264 55 OFFCURVE",
"206 56 CURVE",
"247 180 OFFCURVE",
"386 409 OFFCURVE",
"482 498 CURVE SMOOTH",
"554 565 OFFCURVE",
"696 545 OFFCURVE",
"709 571 CURVE",
"708 578 OFFCURVE",
"698 579 OFFCURVE",
"694 579 CURVE SMOOTH",
"646 583 OFFCURVE",
"596 584 OFFCURVE",
"549 584 CURVE",
"539 594 OFFCURVE",
"520 612 OFFCURVE",
"505 612 CURVE SMOOTH",
"495 612 OFFCURVE",
"484 588 OFFCURVE",
"475 584 CURVE SMOOTH",
"449 570 OFFCURVE",
"285 576 OFFCURVE",
"285 534 CURVE SMOOTH",
"285 525 OFFCURVE",
"295 509 OFFCURVE",
"307 509 CURVE SMOOTH",
"341 509 OFFCURVE",
"395 543 OFFCURVE",
"443 542 CURVE",
"349 462 OFFCURVE",
"205 174 OFFCURVE",
"172 52 CURVE",
"138 49 OFFCURVE",
"5 46 OFFCURVE",
"5 1 CURVE SMOOTH",
"5 -9 OFFCURVE",
"12 -15 OFFCURVE",
"21 -15 CURVE SMOOTH"
);
},
{
closed = 1;
nodes = (
"528 666 OFFCURVE",
"639 708 OFFCURVE",
"653 718 CURVE",
"659 721 OFFCURVE",
"663 728 OFFCURVE",
"664 735 CURVE SMOOTH",
"664 741 OFFCURVE",
"655 757 OFFCURVE",
"647 757 CURVE SMOOTH",
"642 757 OFFCURVE",
"636 753 OFFCURVE",
"631 751 CURVE",
"598 729 OFFCURVE",
"548 703 OFFCURVE",
"519 679 CURVE SMOOTH",
"517 677 OFFCURVE",
"515 675 OFFCURVE",
"514 672 CURVE",
"514 669 OFFCURVE",
"517 667 OFFCURVE",
"521 667 CURVE SMOOTH"
);
}
);
};
components = (
{
name = I;
},
{
name = acutecomb.case;
transform = "{1, 0, 0, 1, 462, 298}";
}
);
layerId = "C7EEC47D-2D39-4E2B-85C4-E2E866CE7804";
width = 407;
}
);
note = Iacute;
unicode = 00CD;
},
{
glyphname = Icircumflex;
lastChange = "2021-10-01 07:33:16 +0000";
layers = (
{
background = {
paths = (
{
closed = 1;
nodes = (
"25 -15 OFFCURVE",
"28 -14 OFFCURVE",
"31 -14 CURVE",
"140 11 OFFCURVE",
"256 24 OFFCURVE",
"368 33 CURVE SMOOTH",
"376 34 OFFCURVE",
"407 38 OFFCURVE",
"406 50 CURVE SMOOTH",
"406 58 OFFCURVE",
"381 58 OFFCURVE",
"379 58 CURVE SMOOTH",
"321 58 OFFCURVE",
"264 55 OFFCURVE",
"206 56 CURVE",
"247 180 OFFCURVE",
"386 409 OFFCURVE",
"482 498 CURVE SMOOTH",
"554 565 OFFCURVE",
"696 545 OFFCURVE",
"709 571 CURVE",
"708 578 OFFCURVE",
"698 579 OFFCURVE",
"694 579 CURVE SMOOTH",
"646 583 OFFCURVE",
"596 584 OFFCURVE",
"549 584 CURVE",
"539 594 OFFCURVE",
"520 612 OFFCURVE",
"505 612 CURVE SMOOTH",
"495 612 OFFCURVE",
"484 588 OFFCURVE",
"475 584 CURVE SMOOTH",
"449 570 OFFCURVE",
"285 576 OFFCURVE",
"285 534 CURVE SMOOTH",
"285 525 OFFCURVE",
"295 509 OFFCURVE",
"307 509 CURVE SMOOTH",
"341 509 OFFCURVE",
"395 543 OFFCURVE",
"443 542 CURVE",
"349 462 OFFCURVE",
"205 174 OFFCURVE",
"172 52 CURVE",
"138 49 OFFCURVE",
"5 46 OFFCURVE",
"5 1 CURVE SMOOTH",
"5 -9 OFFCURVE",
"12 -15 OFFCURVE",
"21 -15 CURVE SMOOTH"
);
},
{
closed = 1;
nodes = (
"473 661 OFFCURVE",
"475 661 OFFCURVE",
"477 663 CURVE",
"508 685 OFFCURVE",
"569 733 OFFCURVE",
"582 743 CURVE",
"588 723 OFFCURVE",
"631 665 OFFCURVE",
"650 664 CURVE SMOOTH",
"656 664 OFFCURVE",
"659 666 OFFCURVE",
"659 670 CURVE SMOOTH",
"659 673 OFFCURVE",
"658 676 OFFCURVE",
"656 680 CURVE SMOOTH",
"638 709 OFFCURVE",
"620 740 OFFCURVE",
"610 777 CURVE",
"608 781 OFFCURVE",
"603 782 OFFCURVE",
"598 782 CURVE SMOOTH",
"595 782 OFFCURVE",
"592 782 OFFCURVE",
"590 781 CURVE SMOOTH",
"578 775 OFFCURVE",
"480 685 OFFCURVE",
"470 677 CURVE SMOOTH",
"465 674 OFFCURVE",
"463 670 OFFCURVE",
"463 667 CURVE SMOOTH",
"463 664 OFFCURVE",
"466 661 OFFCURVE",
"471 661 CURVE SMOOTH"
);
}
);
};
components = (
{
name = I;
},
{
name = circumflexcomb.case;
transform = "{1, 0, 0, 1, 410, 298}";
}
);
layerId = "C7EEC47D-2D39-4E2B-85C4-E2E866CE7804";
width = 407;
}
);
note = Icircumflex;
unicode = 00CE;
},
{
glyphname = Idieresis;
lastChange = "2021-10-01 07:33:16 +0000";
layers = (
{
background = {
paths = (
{
closed = 1;
nodes = (
"25 -15 OFFCURVE",
"28 -14 OFFCURVE",
"31 -14 CURVE",
"140 11 OFFCURVE",
"256 24 OFFCURVE",
"368 33 CURVE SMOOTH",
"376 34 OFFCURVE",
"407 38 OFFCURVE",
"406 50 CURVE SMOOTH",
"406 58 OFFCURVE",
"381 58 OFFCURVE",
"379 58 CURVE SMOOTH",
"321 58 OFFCURVE",
"264 55 OFFCURVE",
"206 56 CURVE",
"247 180 OFFCURVE",
"386 409 OFFCURVE",
"482 498 CURVE SMOOTH",
"554 565 OFFCURVE",
"696 545 OFFCURVE",
"709 571 CURVE",
"708 578 OFFCURVE",
"698 579 OFFCURVE",
"694 579 CURVE SMOOTH",
"646 583 OFFCURVE",
"596 584 OFFCURVE",
"549 584 CURVE",
"539 594 OFFCURVE",
"520 612 OFFCURVE",
"505 612 CURVE SMOOTH",
"495 612 OFFCURVE",
"484 588 OFFCURVE",
"475 584 CURVE SMOOTH",
"449 570 OFFCURVE",
"285 576 OFFCURVE",
"285 534 CURVE SMOOTH",
"285 525 OFFCURVE",
"295 509 OFFCURVE",
"307 509 CURVE SMOOTH",
"341 509 OFFCURVE",
"395 543 OFFCURVE",
"443 542 CURVE",
"349 462 OFFCURVE",
"205 174 OFFCURVE",
"172 52 CURVE",
"138 49 OFFCURVE",
"5 46 OFFCURVE",
"5 1 CURVE SMOOTH",
"5 -9 OFFCURVE",
"12 -15 OFFCURVE",
"21 -15 CURVE SMOOTH"
);
},
{
closed = 1;
nodes = (
"522 679 OFFCURVE",
"548 720 OFFCURVE",
"549 730 CURVE SMOOTH",
"550 743 OFFCURVE",
"538 754 OFFCURVE",
"527 754 CURVE SMOOTH",
"507 754 OFFCURVE",
"476 718 OFFCURVE",
"476 701 CURVE SMOOTH",
"476 682 OFFCURVE",
"499 679 OFFCURVE",
"511 679 CURVE SMOOTH"
);
},
{
closed = 1;
nodes = (
"642 679 OFFCURVE",
"668 720 OFFCURVE",
"669 730 CURVE SMOOTH",
"670 743 OFFCURVE",
"658 754 OFFCURVE",
"647 754 CURVE SMOOTH",
"627 754 OFFCURVE",
"596 718 OFFCURVE",
"596 701 CURVE SMOOTH",
"596 682 OFFCURVE",
"619 679 OFFCURVE",
"631 679 CURVE SMOOTH"
);
}
);
};
components = (
{
name = I;
},
{
name = dieresiscomb.case;
transform = "{1, 0, 0, 1, 439, 298}";
}
);
layerId = "C7EEC47D-2D39-4E2B-85C4-E2E866CE7804";
width = 407;
}
);
note = Idieresis;
unicode = 00CF;
},
{
glyphname = Idotaccent;
lastChange = "2021-10-01 07:33:16 +0000";
layers = (
{
background = {
paths = (
{
closed = 1;
nodes = (
"25 -15 OFFCURVE",
"28 -14 OFFCURVE",
"31 -14 CURVE",
"140 11 OFFCURVE",
"256 24 OFFCURVE",
"368 33 CURVE SMOOTH",
"376 34 OFFCURVE",
"407 38 OFFCURVE",
"406 50 CURVE SMOOTH",
"406 58 OFFCURVE",
"381 58 OFFCURVE",
"379 58 CURVE SMOOTH",
"321 58 OFFCURVE",
"264 55 OFFCURVE",
"206 56 CURVE",
"247 180 OFFCURVE",
"386 409 OFFCURVE",
"482 498 CURVE SMOOTH",
"554 565 OFFCURVE",
"696 545 OFFCURVE",
"709 571 CURVE",
"708 578 OFFCURVE",
"698 579 OFFCURVE",
"694 579 CURVE SMOOTH",
"646 583 OFFCURVE",
"596 584 OFFCURVE",
"549 584 CURVE",
"539 594 OFFCURVE",
"520 612 OFFCURVE",
"505 612 CURVE SMOOTH",
"495 612 OFFCURVE",
"484 588 OFFCURVE",
"475 584 CURVE SMOOTH",
"449 570 OFFCURVE",
"285 576 OFFCURVE",
"285 534 CURVE SMOOTH",
"285 525 OFFCURVE",
"295 509 OFFCURVE",
"307 509 CURVE SMOOTH",
"341 509 OFFCURVE",
"395 543 OFFCURVE",
"443 542 CURVE",
"349 462 OFFCURVE",
"205 174 OFFCURVE",
"172 52 CURVE",
"138 49 OFFCURVE",
"5 46 OFFCURVE",
"5 1 CURVE SMOOTH",
"5 -9 OFFCURVE",
"12 -15 OFFCURVE",
"21 -15 CURVE SMOOTH"
);
},
{
closed = 1;
nodes = (
"582 685 OFFCURVE",
"608 726 OFFCURVE",
"609 736 CURVE SMOOTH",
"610 749 OFFCURVE",
"598 760 OFFCURVE",
"587 760 CURVE SMOOTH",
"567 760 OFFCURVE",
"536 724 OFFCURVE",
"536 707 CURVE SMOOTH",
"536 688 OFFCURVE",
"559 685 OFFCURVE",
"571 685 CURVE SMOOTH"
);
}
);
};
components = (
{
name = I;
},
{
name = dotaccentcomb.case;
transform = "{1, 0, 0, 1, 506, 298}";
}
);
layerId = "C7EEC47D-2D39-4E2B-85C4-E2E866CE7804";
width = 407;
}
);
note = Idotaccent;
unicode = 0130;
},
{
glyphname = Igrave;
lastChange = "2021-10-01 07:33:16 +0000";
layers = (
{
background = {
paths = (
{
closed = 1;
nodes = (
"25 -15 OFFCURVE",
"28 -14 OFFCURVE",
"31 -14 CURVE",
"140 11 OFFCURVE",
"256 24 OFFCURVE",
"368 33 CURVE SMOOTH",
"376 34 OFFCURVE",
"407 38 OFFCURVE",
"406 50 CURVE SMOOTH",
"406 58 OFFCURVE",
"381 58 OFFCURVE",
"379 58 CURVE SMOOTH",
"321 58 OFFCURVE",
"264 55 OFFCURVE",
"206 56 CURVE",
"247 180 OFFCURVE",
"386 409 OFFCURVE",
"482 498 CURVE SMOOTH",
"554 565 OFFCURVE",
"696 545 OFFCURVE",
"709 571 CURVE",
"708 578 OFFCURVE",
"698 579 OFFCURVE",
"694 579 CURVE SMOOTH",
"646 583 OFFCURVE",
"596 584 OFFCURVE",
"549 584 CURVE",
"539 594 OFFCURVE",
"520 612 OFFCURVE",
"505 612 CURVE SMOOTH",
"495 612 OFFCURVE",
"484 588 OFFCURVE",
"475 584 CURVE SMOOTH",
"449 570 OFFCURVE",
"285 576 OFFCURVE",
"285 534 CURVE SMOOTH",
"285 525 OFFCURVE",
"295 509 OFFCURVE",
"307 509 CURVE SMOOTH",
"341 509 OFFCURVE",
"395 543 OFFCURVE",
"443 542 CURVE",
"349 462 OFFCURVE",
"205 174 OFFCURVE",
"172 52 CURVE",
"138 49 OFFCURVE",
"5 46 OFFCURVE",
"5 1 CURVE SMOOTH",
"5 -9 OFFCURVE",
"12 -15 OFFCURVE",
"21 -15 CURVE SMOOTH"
);
},
{
closed = 1;
nodes = (
"625 653 OFFCURVE",
"628 655 OFFCURVE",
"628 658 CURVE",
"627 661 OFFCURVE",
"625 663 OFFCURVE",
"623 665 CURVE SMOOTH",
"594 689 OFFCURVE",
"544 715 OFFCURVE",
"511 737 CURVE",
"506 739 OFFCURVE",
"500 743 OFFCURVE",
"495 743 CURVE SMOOTH",
"493 743 LINE SMOOTH",
"486 742 OFFCURVE",
"478 727 OFFCURVE",
"478 721 CURVE SMOOTH",
"479 714 OFFCURVE",
"483 707 OFFCURVE",
"489 704 CURVE",
"503 694 OFFCURVE",
"614 652 OFFCURVE",
"621 653 CURVE SMOOTH"
);
}
);
};
components = (
{
name = I;
},
{
name = gravecomb.case;
transform = "{1, 0, 0, 1, 389, 298}";
}
);
layerId = "C7EEC47D-2D39-4E2B-85C4-E2E866CE7804";
width = 407;
}
);
note = Igrave;
unicode = 00CC;
},
{
glyphname = Imacron;
lastChange = "2021-10-01 07:33:16 +0000";
layers = (
{
background = {
paths = (
{
closed = 1;
nodes = (
"25 -15 OFFCURVE",
"28 -14 OFFCURVE",
"31 -14 CURVE",
"140 11 OFFCURVE",
"256 24 OFFCURVE",
"368 33 CURVE SMOOTH",
"376 34 OFFCURVE",
"407 38 OFFCURVE",
"406 50 CURVE SMOOTH",
"406 58 OFFCURVE",
"381 58 OFFCURVE",
"379 58 CURVE SMOOTH",
"321 58 OFFCURVE",
"264 55 OFFCURVE",
"206 56 CURVE",
"247 180 OFFCURVE",
"386 409 OFFCURVE",
"482 498 CURVE SMOOTH",
"554 565 OFFCURVE",
"696 545 OFFCURVE",
"709 571 CURVE",
"708 578 OFFCURVE",
"698 579 OFFCURVE",
"694 579 CURVE SMOOTH",
"646 583 OFFCURVE",
"596 584 OFFCURVE",
"549 584 CURVE",
"539 594 OFFCURVE",
"520 612 OFFCURVE",
"505 612 CURVE SMOOTH",
"495 612 OFFCURVE",
"484 588 OFFCURVE",
"475 584 CURVE SMOOTH",
"449 570 OFFCURVE",
"285 576 OFFCURVE",
"285 534 CURVE SMOOTH",
"285 525 OFFCURVE",
"295 509 OFFCURVE",
"307 509 CURVE SMOOTH",
"341 509 OFFCURVE",
"395 543 OFFCURVE",
"443 542 CURVE",
"349 462 OFFCURVE",
"205 174 OFFCURVE",
"172 52 CURVE",
"138 49 OFFCURVE",
"5 46 OFFCURVE",
"5 1 CURVE SMOOTH",
"5 -9 OFFCURVE",
"12 -15 OFFCURVE",
"21 -15 CURVE SMOOTH"
);
},
{
closed = 1;
nodes = (
"629 694 LINE SMOOTH",
"660 694 OFFCURVE",
"678 702 OFFCURVE",
"678 711 CURVE SMOOTH",
"678 722 OFFCURVE",
"656 723 OFFCURVE",
"643 723 CURVE SMOOTH",
"531 723 LINE SMOOTH",
"509 723 OFFCURVE",
"486 709 OFFCURVE",
"486 700 CURVE SMOOTH",
"486 697 OFFCURVE",
"490 694 OFFCURVE",
"500 694 CURVE SMOOTH"
);
}
);
};
components = (
{
name = I;
},
{
name = macroncomb.case;
transform = "{1, 0, 0, 1, 421, 298}";
}
);
layerId = "C7EEC47D-2D39-4E2B-85C4-E2E866CE7804";
width = 407;
}
);
note = Imacron;
unicode = 012A;
},
{
glyphname = Iogonek;
lastChange = "2021-10-01 07:33:16 +0000";
layers = (
{
background = {
paths = (
{
closed = 1;
nodes = (
"25 -15 OFFCURVE",
"28 -14 OFFCURVE",
"31 -14 CURVE",
"140 11 OFFCURVE",
"256 24 OFFCURVE",
"368 33 CURVE SMOOTH",
"376 34 OFFCURVE",
"407 38 OFFCURVE",
"406 50 CURVE SMOOTH",
"406 58 OFFCURVE",
"381 58 OFFCURVE",
"379 58 CURVE SMOOTH",
"321 58 OFFCURVE",
"264 55 OFFCURVE",
"206 56 CURVE",
"247 180 OFFCURVE",
"386 409 OFFCURVE",
"482 498 CURVE SMOOTH",
"554 565 OFFCURVE",
"696 545 OFFCURVE",
"709 571 CURVE",
"708 578 OFFCURVE",
"698 579 OFFCURVE",
"694 579 CURVE SMOOTH",
"646 583 OFFCURVE",
"596 584 OFFCURVE",
"549 584 CURVE",
"539 594 OFFCURVE",
"520 612 OFFCURVE",
"505 612 CURVE SMOOTH",
"495 612 OFFCURVE",
"484 588 OFFCURVE",
"475 584 CURVE SMOOTH",
"449 570 OFFCURVE",
"285 576 OFFCURVE",
"285 534 CURVE SMOOTH",
"285 525 OFFCURVE",
"295 509 OFFCURVE",
"307 509 CURVE SMOOTH",
"341 509 OFFCURVE",
"395 543 OFFCURVE",
"443 542 CURVE",
"349 462 OFFCURVE",
"205 174 OFFCURVE",
"172 52 CURVE",
"138 49 OFFCURVE",
"5 46 OFFCURVE",
"5 1 CURVE SMOOTH",
"5 -9 OFFCURVE",
"12 -15 OFFCURVE",
"21 -15 CURVE SMOOTH"
);
},
{
closed = 1;
nodes = (
"196 -137 OFFCURVE",
"286 -115 OFFCURVE",
"286 -95 CURVE SMOOTH",
"286 -90 OFFCURVE",
"281 -86 OFFCURVE",
"275 -86 CURVE SMOOTH",
"268 -86 OFFCURVE",
"228 -109 OFFCURVE",
"200 -109 CURVE SMOOTH",
"175 -109 OFFCURVE",
"155 -95 OFFCURVE",
"155 -68 CURVE SMOOTH",
"155 -41 OFFCURVE",
"174 -1 OFFCURVE",
"189 20 CURVE",
"186 23 LINE",
"154 22 OFFCURVE",
"123 -68 OFFCURVE",
"123 -95 CURVE SMOOTH",
"123 -126 OFFCURVE",
"151 -137 OFFCURVE",
"178 -137 CURVE SMOOTH"
);
}
);
};
components = (
{
name = I;
},
{
name = ogonekcomb;
transform = "{1, 0, 0, 1, 117, 31}";
}
);
layerId = "C7EEC47D-2D39-4E2B-85C4-E2E866CE7804";
width = 407;
}
);
note = Iogonek;
unicode = 012E;
},
{
color = 9;
glyphname = J;
lastChange = "2021-10-08 03:45:14 +0000";
layers = (
{
anchors = (
{
name = bottom;
position = "{242, 0}";
},
{
name = top;
position = "{585, 595}";
}
);
background = {
paths = (
{
closed = 1;
nodes = (
"314 -53 OFFCURVE",
"534 399 OFFCURVE",
"624 543 CURVE",
"651 544 OFFCURVE",
"678 545 OFFCURVE",
"705 545 CURVE SMOOTH",
"708 545 OFFCURVE",
"730 543 OFFCURVE",
"750 543 CURVE SMOOTH",
"765 543 OFFCURVE",
"778 544 OFFCURVE",
"778 549 CURVE SMOOTH",
"778 578 OFFCURVE",
"646 578 OFFCURVE",
"623 583 CURVE",
"615 590 OFFCURVE",
"596 609 OFFCURVE",
"585 609 CURVE SMOOTH",
"570 609 OFFCURVE",
"555 588 OFFCURVE",
"548 578 CURVE",
"491 572 OFFCURVE",
"279 571 OFFCURVE",
"279 489 CURVE SMOOTH",
"279 444 OFFCURVE",
"322 420 OFFCURVE",
"363 420 CURVE SMOOTH",
"370 420 OFFCURVE",
"414 422 OFFCURVE",
"414 435 CURVE SMOOTH",
"414 452 OFFCURVE",
"305 451 OFFCURVE",
"305 477 CURVE SMOOTH",
"305 520 OFFCURVE",
"505 537 OFFCURVE",
"540 539 CURVE",
"504 417 OFFCURVE",
"271 -29 OFFCURVE",
"136 -29 CURVE SMOOTH",
"95 -29 OFFCURVE",
"75 26 OFFCURVE",
"75 86 CURVE SMOOTH",
"75 143 OFFCURVE",
"92 204 OFFCURVE",
"125 230 CURVE SMOOTH",
"128 232 OFFCURVE",
"129 235 OFFCURVE",
"129 238 CURVE SMOOTH",
"129 243 OFFCURVE",
"124 248 OFFCURVE",
"119 248 CURVE SMOOTH",
"117 248 OFFCURVE",
"115 248 OFFCURVE",
"113 246 CURVE SMOOTH",
"62 205 OFFCURVE",
"36 135 OFFCURVE",
"36 73 CURVE SMOOTH",
"36 5 OFFCURVE",
"67 -53 OFFCURVE",
"130 -53 CURVE SMOOTH"
);
}
);
};
layerId = "C7EEC47D-2D39-4E2B-85C4-E2E866CE7804";
paths = (
{
closed = 1;
nodes = (
"314 -43 OFFCURVE",
"534 409 OFFCURVE",
"624 553 CURVE",
"651 554 OFFCURVE",
"678 555 OFFCURVE",
"705 555 CURVE SMOOTH",
"708 555 OFFCURVE",
"730 553 OFFCURVE",
"750 553 CURVE SMOOTH",
"765 553 OFFCURVE",
"778 554 OFFCURVE",
"778 559 CURVE SMOOTH",
"778 588 OFFCURVE",
"646 588 OFFCURVE",
"623 593 CURVE",
"615 600 OFFCURVE",
"596 619 OFFCURVE",
"585 619 CURVE SMOOTH",
"570 619 OFFCURVE",
"555 598 OFFCURVE",
"548 588 CURVE",
"491 582 OFFCURVE",
"279 581 OFFCURVE",
"279 499 CURVE SMOOTH",
"279 454 OFFCURVE",
"322 430 OFFCURVE",
"363 430 CURVE SMOOTH",
"370 430 OFFCURVE",
"414 432 OFFCURVE",
"414 445 CURVE SMOOTH",
"414 462 OFFCURVE",
"305 461 OFFCURVE",
"305 487 CURVE SMOOTH",
"305 530 OFFCURVE",
"505 547 OFFCURVE",
"540 549 CURVE",
"504 427 OFFCURVE",
"271 -19 OFFCURVE",
"136 -19 CURVE SMOOTH",
"95 -19 OFFCURVE",
"75 36 OFFCURVE",
"75 96 CURVE SMOOTH",
"75 153 OFFCURVE",
"92 214 OFFCURVE",
"125 240 CURVE SMOOTH",
"128 242 OFFCURVE",
"129 245 OFFCURVE",
"129 248 CURVE SMOOTH",
"129 253 OFFCURVE",
"124 258 OFFCURVE",
"119 258 CURVE SMOOTH",
"117 258 OFFCURVE",
"115 258 OFFCURVE",
"113 256 CURVE SMOOTH",
"62 215 OFFCURVE",
"36 145 OFFCURVE",
"36 83 CURVE SMOOTH",
"36 15 OFFCURVE",
"67 -43 OFFCURVE",
"130 -43 CURVE SMOOTH"
);
}
);
width = 484;
}
);
note = J;
unicode = 004A;
},
{
color = 9;
glyphname = K;
lastChange = "2021-10-08 03:45:14 +0000";
layers = (
{
anchors = (
{
name = bottom;
position = "{247, 0}";
},
{
name = top;
position = "{547, 610}";
}
);
background = {
paths = (
{
closed = 1;
nodes = (
"545 -27 OFFCURVE",
"587 22 OFFCURVE",
"584 72 CURVE SMOOTH",
"583 86 OFFCURVE",
"570 127 OFFCURVE",
"553 127 CURVE SMOOTH",
"548 127 OFFCURVE",
"547 123 OFFCURVE",
"547 120 CURVE SMOOTH",
"547 117 OFFCURVE",
"548 114 OFFCURVE",
"548 112 CURVE SMOOTH",
"550 80 OFFCURVE",
"546 0 OFFCURVE",
"502 0 CURVE SMOOTH",
"442 0 OFFCURVE",
"334 234 OFFCURVE",
"322 286 CURVE",
"378 325 OFFCURVE",
"752 540 OFFCURVE",
"750 573 CURVE SMOOTH",
"749 580 OFFCURVE",
"742 583 OFFCURVE",
"736 583 CURVE SMOOTH",
"726 583 OFFCURVE",
"718 578 OFFCURVE",
"710 573 CURVE SMOOTH",
"538 460 OFFCURVE",
"369 339 OFFCURVE",
"181 250 CURVE",
"227 355 OFFCURVE",
"294 449 OFFCURVE",
"354 546 CURVE SMOOTH",
"359 554 OFFCURVE",
"365 564 OFFCURVE",
"365 574 CURVE SMOOTH",
"364 589 OFFCURVE",
"347 592 OFFCURVE",
"336 592 CURVE SMOOTH",
"326 592 OFFCURVE",
"307 590 OFFCURVE",
"300 581 CURVE SMOOTH",
"280 556 OFFCURVE",
"264 520 OFFCURVE",
"247 492 CURVE SMOOTH",
"195 401 OFFCURVE",
"51 148 OFFCURVE",
"51 37 CURVE SMOOTH",
"51 9 OFFCURVE",
"61 -15 OFFCURVE",
"91 -15 CURVE SMOOTH",
"99 -15 OFFCURVE",
"102 -8 OFFCURVE",
"102 -2 CURVE SMOOTH",
"102 3 OFFCURVE",
"100 8 OFFCURVE",
"96 8 CURVE SMOOTH",
"87 8 OFFCURVE",
"85 18 OFFCURVE",
"84 25 CURVE SMOOTH",
"78 112 OFFCURVE",
"189 224 OFFCURVE",
"263 250 CURVE",
"298 187 OFFCURVE",
"386 48 OFFCURVE",
"434 0 CURVE SMOOTH",
"451 -16 OFFCURVE",
"471 -27 OFFCURVE",
"494 -27 CURVE SMOOTH"
);
}
);
};
layerId = "C7EEC47D-2D39-4E2B-85C4-E2E866CE7804";
paths = (
{
closed = 1;
nodes = (
"545 -17 OFFCURVE",
"587 32 OFFCURVE",
"584 82 CURVE SMOOTH",
"583 96 OFFCURVE",
"570 137 OFFCURVE",
"553 137 CURVE SMOOTH",
"548 137 OFFCURVE",
"547 133 OFFCURVE",
"547 130 CURVE SMOOTH",
"547 127 OFFCURVE",
"548 124 OFFCURVE",
"548 122 CURVE SMOOTH",
"550 90 OFFCURVE",
"546 10 OFFCURVE",
"502 10 CURVE SMOOTH",
"442 10 OFFCURVE",
"334 244 OFFCURVE",
"322 296 CURVE",
"378 335 OFFCURVE",
"752 550 OFFCURVE",
"750 583 CURVE SMOOTH",
"749 590 OFFCURVE",
"742 593 OFFCURVE",
"736 593 CURVE SMOOTH",
"726 593 OFFCURVE",
"718 588 OFFCURVE",
"710 583 CURVE SMOOTH",
"538 470 OFFCURVE",
"369 349 OFFCURVE",
"181 260 CURVE",
"227 365 OFFCURVE",
"294 459 OFFCURVE",
"354 556 CURVE SMOOTH",
"359 564 OFFCURVE",
"365 574 OFFCURVE",
"365 584 CURVE SMOOTH",
"364 599 OFFCURVE",
"347 602 OFFCURVE",
"336 602 CURVE SMOOTH",
"326 602 OFFCURVE",
"307 600 OFFCURVE",
"300 591 CURVE SMOOTH",
"280 566 OFFCURVE",
"264 530 OFFCURVE",
"247 502 CURVE SMOOTH",
"195 411 OFFCURVE",
"51 158 OFFCURVE",
"51 47 CURVE SMOOTH",
"51 19 OFFCURVE",
"61 -5 OFFCURVE",
"91 -5 CURVE SMOOTH",
"99 -5 OFFCURVE",
"102 2 OFFCURVE",
"102 8 CURVE SMOOTH",
"102 13 OFFCURVE",
"100 18 OFFCURVE",
"96 18 CURVE SMOOTH",
"87 18 OFFCURVE",
"85 28 OFFCURVE",
"84 35 CURVE SMOOTH",
"78 122 OFFCURVE",
"189 234 OFFCURVE",
"263 260 CURVE",
"298 197 OFFCURVE",
"386 58 OFFCURVE",
"434 10 CURVE SMOOTH",
"451 -6 OFFCURVE",
"471 -17 OFFCURVE",
"494 -17 CURVE SMOOTH"
);
}
);
width = 586;
}
);
note = K;
unicode = 004B;
},
{
color = 9;
glyphname = L;
lastChange = "2021-10-08 03:45:14 +0000";
layers = (
{
anchors = (
{
name = bottom;
position = "{258, 0}";
},
{
name = center;
position = "{258, 305}";
},
{
name = top;
position = "{471, 616}";
},
{
name = topright;
position = "{591, 610}";
}
);
background = {
paths = (
{
closed = 1;
nodes = (
"42 -27 OFFCURVE",
"138 -3 OFFCURVE",
"160 0 CURVE SMOOTH",
"260 15 OFFCURVE",
"291 19 OFFCURVE",
"393 19 CURVE SMOOTH",
"398 19 OFFCURVE",
"431 16 OFFCURVE",
"461 16 CURVE SMOOTH",
"485 16 OFFCURVE",
"506 18 OFFCURVE",
"506 25 CURVE SMOOTH",
"503 56 OFFCURVE",
"403 56 OFFCURVE",
"372 56 CURVE SMOOTH",
"273 56 OFFCURVE",
"172 53 OFFCURVE",
"75 38 CURVE",
"90 163 OFFCURVE",
"352 549 OFFCURVE",
"483 549 CURVE SMOOTH",
"508 549 OFFCURVE",
"508 539 OFFCURVE",
"525 530 CURVE",
"528 530 OFFCURVE",
"530 534 OFFCURVE",
"530 537 CURVE SMOOTH",
"530 539 OFFCURVE",
"529 540 OFFCURVE",
"529 541 CURVE SMOOTH",
"527 568 OFFCURVE",
"471 606 OFFCURVE",
"446 606 CURVE SMOOTH",
"311 606 OFFCURVE",
"50 165 OFFCURVE",
"47 31 CURVE",
"21 32 OFFCURVE",
"16 20 OFFCURVE",
"16 2 CURVE SMOOTH",
"16 -2 OFFCURVE",
"17 -7 OFFCURVE",
"17 -12 CURVE SMOOTH",
"18 -23 OFFCURVE",
"22 -27 OFFCURVE",
"34 -27 CURVE SMOOTH"
);
}
);
};
layerId = "C7EEC47D-2D39-4E2B-85C4-E2E866CE7804";
paths = (
{
closed = 1;
nodes = (
"42 -17 OFFCURVE",
"138 7 OFFCURVE",
"160 10 CURVE SMOOTH",
"260 25 OFFCURVE",
"291 29 OFFCURVE",
"377 29 CURVE SMOOTH",
"411 29 OFFCURVE",
"446 26 OFFCURVE",
"469 26 CURVE SMOOTH",
"495 26 OFFCURVE",
"506 29 OFFCURVE",
"506 37 CURVE SMOOTH",
"506 49 OFFCURVE",
"478 66 OFFCURVE",
"372 66 CURVE SMOOTH",
"273 66 OFFCURVE",
"172 63 OFFCURVE",
"75 48 CURVE",
"90 173 OFFCURVE",
"352 559 OFFCURVE",
"483 559 CURVE SMOOTH",
"508 559 OFFCURVE",
"508 549 OFFCURVE",
"525 540 CURVE",
"528 540 OFFCURVE",
"530 544 OFFCURVE",
"530 547 CURVE SMOOTH",
"530 549 OFFCURVE",
"529 550 OFFCURVE",
"529 551 CURVE SMOOTH",
"527 578 OFFCURVE",
"471 616 OFFCURVE",
"446 616 CURVE SMOOTH",
"311 616 OFFCURVE",
"50 175 OFFCURVE",
"47 41 CURVE",
"21 42 OFFCURVE",
"16 30 OFFCURVE",
"16 12 CURVE SMOOTH",
"16 8 OFFCURVE",
"16 3 OFFCURVE",
"17 -2 CURVE SMOOTH",
"19 -13 OFFCURVE",
"22 -17 OFFCURVE",
"34 -17 CURVE SMOOTH"
);
}
);
width = 515;
}
);
note = L;
unicode = 004C;
},
{
glyphname = Lacute;
lastChange = "2021-10-01 07:33:16 +0000";
layers = (
{
background = {
paths = (
{
closed = 1;
nodes = (
"42 -27 OFFCURVE",
"138 -3 OFFCURVE",
"160 0 CURVE SMOOTH",
"260 15 OFFCURVE",
"291 19 OFFCURVE",
"393 19 CURVE SMOOTH",
"398 19 OFFCURVE",
"431 16 OFFCURVE",
"461 16 CURVE SMOOTH",
"485 16 OFFCURVE",
"506 18 OFFCURVE",
"506 25 CURVE SMOOTH",
"503 56 OFFCURVE",
"403 56 OFFCURVE",
"372 56 CURVE SMOOTH",
"273 56 OFFCURVE",
"172 53 OFFCURVE",
"75 38 CURVE",
"90 163 OFFCURVE",
"352 549 OFFCURVE",
"483 549 CURVE SMOOTH",
"508 549 OFFCURVE",
"508 539 OFFCURVE",
"525 530 CURVE",
"528 530 OFFCURVE",
"530 534 OFFCURVE",
"530 537 CURVE SMOOTH",
"530 539 OFFCURVE",
"529 540 OFFCURVE",
"529 541 CURVE SMOOTH",
"527 568 OFFCURVE",
"471 606 OFFCURVE",
"446 606 CURVE SMOOTH",
"311 606 OFFCURVE",
"50 165 OFFCURVE",
"47 31 CURVE",
"21 32 OFFCURVE",
"16 20 OFFCURVE",
"16 2 CURVE SMOOTH",
"16 -2 OFFCURVE",
"17 -7 OFFCURVE",
"17 -12 CURVE SMOOTH",
"18 -23 OFFCURVE",
"22 -27 OFFCURVE",
"34 -27 CURVE SMOOTH"
);
},
{
closed = 1;
nodes = (
"476 657 OFFCURVE",
"587 699 OFFCURVE",
"601 709 CURVE",
"607 712 OFFCURVE",
"611 719 OFFCURVE",
"612 726 CURVE SMOOTH",
"612 732 OFFCURVE",
"603 748 OFFCURVE",
"595 748 CURVE SMOOTH",
"590 748 OFFCURVE",
"584 744 OFFCURVE",
"579 742 CURVE",
"546 720 OFFCURVE",
"496 694 OFFCURVE",
"467 670 CURVE SMOOTH",
"465 668 OFFCURVE",
"463 666 OFFCURVE",
"462 663 CURVE",
"462 660 OFFCURVE",
"465 658 OFFCURVE",
"469 658 CURVE SMOOTH"
);
}
);
};
components = (
{
name = L;
},
{
name = acutecomb.case;
transform = "{1, 0, 0, 1, 428, 316}";
}
);
layerId = "C7EEC47D-2D39-4E2B-85C4-E2E866CE7804";
width = 515;
}
);
note = Lacute;
unicode = 0139;
},
{
glyphname = Lcaron;
lastChange = "2021-10-01 07:33:16 +0000";
layers = (
{
background = {
paths = (
{
closed = 1;
nodes = (
"42 -27 OFFCURVE",
"138 -3 OFFCURVE",
"160 0 CURVE SMOOTH",
"260 15 OFFCURVE",
"291 19 OFFCURVE",
"393 19 CURVE SMOOTH",
"398 19 OFFCURVE",
"431 16 OFFCURVE",
"461 16 CURVE SMOOTH",
"485 16 OFFCURVE",
"506 18 OFFCURVE",
"506 25 CURVE SMOOTH",
"503 56 OFFCURVE",
"403 56 OFFCURVE",
"372 56 CURVE SMOOTH",
"273 56 OFFCURVE",
"172 53 OFFCURVE",
"75 38 CURVE",
"90 163 OFFCURVE",
"352 549 OFFCURVE",
"483 549 CURVE SMOOTH",
"508 549 OFFCURVE",
"508 539 OFFCURVE",
"525 530 CURVE",
"528 530 OFFCURVE",
"530 534 OFFCURVE",
"530 537 CURVE SMOOTH",
"530 539 OFFCURVE",
"529 540 OFFCURVE",
"529 541 CURVE SMOOTH",
"527 568 OFFCURVE",
"471 606 OFFCURVE",
"446 606 CURVE SMOOTH",
"311 606 OFFCURVE",
"50 165 OFFCURVE",
"47 31 CURVE",
"21 32 OFFCURVE",
"16 20 OFFCURVE",
"16 2 CURVE SMOOTH",
"16 -2 OFFCURVE",
"17 -7 OFFCURVE",
"17 -12 CURVE SMOOTH",
"18 -23 OFFCURVE",
"22 -27 OFFCURVE",
"34 -27 CURVE SMOOTH"
);
},
{
closed = 1;
nodes = (
"499 656 OFFCURVE",
"502 656 OFFCURVE",
"504 657 CURVE SMOOTH",
"516 663 OFFCURVE",
"614 753 OFFCURVE",
"624 761 CURVE SMOOTH",
"629 764 OFFCURVE",
"631 768 OFFCURVE",
"631 771 CURVE SMOOTH",
"631 774 OFFCURVE",
"628 777 OFFCURVE",
"623 777 CURVE SMOOTH",
"621 777 OFFCURVE",
"619 777 OFFCURVE",
"617 775 CURVE",
"586 753 OFFCURVE",
"525 705 OFFCURVE",
"512 695 CURVE",
"506 715 OFFCURVE",
"463 773 OFFCURVE",
"444 774 CURVE SMOOTH",
"438 774 OFFCURVE",
"435 772 OFFCURVE",
"435 768 CURVE SMOOTH",
"435 765 OFFCURVE",
"436 762 OFFCURVE",
"438 758 CURVE SMOOTH",
"456 729 OFFCURVE",
"474 698 OFFCURVE",
"484 661 CURVE",
"486 657 OFFCURVE",
"491 656 OFFCURVE",
"496 656 CURVE SMOOTH"
);
}
);
};
components = (
{
name = L;
},
{
name = caroncomb.alt.case;
transform = "{1, 0, 0, 1, 594, 310}";
}
);
layerId = "C7EEC47D-2D39-4E2B-85C4-E2E866CE7804";
width = 515;
}
);
note = Lcaron;
unicode = 013D;
},
{
glyphname = Lslash;
lastChange = "2021-10-01 08:00:59 +0000";
layers = (
{
background = {
paths = (
{
closed = 1;
nodes = (
"42 -27 OFFCURVE",
"138 -3 OFFCURVE",
"160 0 CURVE SMOOTH",
"260 15 OFFCURVE",
"291 19 OFFCURVE",
"393 19 CURVE SMOOTH",
"398 19 OFFCURVE",
"431 16 OFFCURVE",
"461 16 CURVE SMOOTH",
"485 16 OFFCURVE",
"506 18 OFFCURVE",
"506 25 CURVE SMOOTH",
"503 56 OFFCURVE",
"403 56 OFFCURVE",
"372 56 CURVE SMOOTH",
"273 56 OFFCURVE",
"172 53 OFFCURVE",
"75 38 CURVE",
"79 71 OFFCURVE",
"100 122 OFFCURVE",
"131 179 CURVE",
"185 194 LINE SMOOTH",
"225 203 OFFCURVE",
"276 223 OFFCURVE",
"276 237 CURVE SMOOTH",
"276 240 OFFCURVE",
"273 241 OFFCURVE",
"266 241 CURVE SMOOTH",
"251 241 OFFCURVE",
"222 235 OFFCURVE",
"210 231 CURVE SMOOTH",
"152 216 LINE",
"244 370 OFFCURVE",
"393 549 OFFCURVE",
"483 549 CURVE SMOOTH",
"508 549 OFFCURVE",
"508 539 OFFCURVE",
"525 530 CURVE",
"528 530 OFFCURVE",
"530 534 OFFCURVE",
"530 537 CURVE SMOOTH",
"530 539 OFFCURVE",
"529 540 OFFCURVE",
"529 541 CURVE SMOOTH",
"527 568 OFFCURVE",
"471 606 OFFCURVE",
"446 606 CURVE SMOOTH",
"349 606 OFFCURVE",
"189 381 OFFCURVE",
"104 204 CURVE",
"79 197 OFFCURVE",
"71 195 OFFCURVE",
"50 190 CURVE SMOOTH",
"20 182 OFFCURVE",
"-13 148 OFFCURVE",
"6 148 CURVE SMOOTH",
"8 148 OFFCURVE",
"11 148 OFFCURVE",
"14 149 CURVE SMOOTH",
"87 168 LINE",
"63 112 OFFCURVE",
"47 62 OFFCURVE",
"47 31 CURVE",
"21 32 OFFCURVE",
"16 20 OFFCURVE",
"16 2 CURVE SMOOTH",
"16 -2 OFFCURVE",
"17 -7 OFFCURVE",
"17 -12 CURVE SMOOTH",
"18 -23 OFFCURVE",
"22 -27 OFFCURVE",
"34 -27 CURVE SMOOTH"
);
}
);
};
layerId = "C7EEC47D-2D39-4E2B-85C4-E2E866CE7804";
paths = (
{
closed = 1;
nodes = (
"42 -17 OFFCURVE",
"138 7 OFFCURVE",
"160 10 CURVE SMOOTH",
"260 25 OFFCURVE",
"291 29 OFFCURVE",
"393 29 CURVE SMOOTH",
"398 29 OFFCURVE",
"431 26 OFFCURVE",
"461 26 CURVE SMOOTH",
"485 26 OFFCURVE",
"506 28 OFFCURVE",
"506 35 CURVE SMOOTH",
"503 66 OFFCURVE",
"403 66 OFFCURVE",
"372 66 CURVE SMOOTH",
"273 66 OFFCURVE",
"172 63 OFFCURVE",
"75 48 CURVE",
"79 81 OFFCURVE",
"100 132 OFFCURVE",
"131 189 CURVE",
"185 204 LINE SMOOTH",
"225 213 OFFCURVE",
"276 233 OFFCURVE",
"276 247 CURVE SMOOTH",
"276 250 OFFCURVE",
"273 251 OFFCURVE",
"266 251 CURVE SMOOTH",
"251 251 OFFCURVE",
"222 245 OFFCURVE",
"210 241 CURVE SMOOTH",
"152 226 LINE",
"244 380 OFFCURVE",
"393 559 OFFCURVE",
"483 559 CURVE SMOOTH",
"508 559 OFFCURVE",
"508 549 OFFCURVE",
"525 540 CURVE",
"528 540 OFFCURVE",
"530 544 OFFCURVE",
"530 547 CURVE SMOOTH",
"530 549 OFFCURVE",
"529 550 OFFCURVE",
"529 551 CURVE SMOOTH",
"527 578 OFFCURVE",
"471 616 OFFCURVE",
"446 616 CURVE SMOOTH",
"349 616 OFFCURVE",
"189 391 OFFCURVE",
"104 214 CURVE",
"79 207 OFFCURVE",
"71 205 OFFCURVE",
"50 200 CURVE SMOOTH",
"20 192 OFFCURVE",
"-13 158 OFFCURVE",
"6 158 CURVE SMOOTH",
"8 158 OFFCURVE",
"11 158 OFFCURVE",
"14 159 CURVE SMOOTH",
"87 178 LINE",
"63 122 OFFCURVE",
"47 72 OFFCURVE",
"47 41 CURVE",
"21 42 OFFCURVE",
"16 30 OFFCURVE",
"16 12 CURVE SMOOTH",
"16 8 OFFCURVE",
"17 3 OFFCURVE",
"17 -2 CURVE SMOOTH",
"18 -13 OFFCURVE",
"22 -17 OFFCURVE",
"34 -17 CURVE SMOOTH"
);
}
);
width = 515;
}
);
note = Lslash;
unicode = 0141;
},
{
color = 9;
glyphname = M;
lastChange = "2021-10-08 03:45:14 +0000";
layers = (
{
background = {
paths = (
{
closed = 1;
nodes = (
"61 -41 OFFCURVE",
"65 -33 OFFCURVE",
"66 -25 CURVE SMOOTH",
"98 149 OFFCURVE",
"270 377 OFFCURVE",
"391 503 CURVE",
"388 483 OFFCURVE",
"379 431 OFFCURVE",
"377 402 CURVE SMOOTH",
"375 379 OFFCURVE",
"374 354 OFFCURVE",
"374 329 CURVE SMOOTH",
"374 240 OFFCURVE",
"394 153 OFFCURVE",
"486 153 CURVE SMOOTH",
"600 153 OFFCURVE",
"824 414 OFFCURVE",
"874 509 CURVE",
"875 510 OFFCURVE",
"880 520 OFFCURVE",
"880 526 CURVE SMOOTH",
"880 528 OFFCURVE",
"879 530 OFFCURVE",
"877 530 CURVE SMOOTH",
"855 530 OFFCURVE",
"569 183 OFFCURVE",
"463 183 CURVE SMOOTH",
"435 183 OFFCURVE",
"426 224 OFFCURVE",
"426 275 CURVE SMOOTH",
"426 355 OFFCURVE",
"447 462 OFFCURVE",
"451 483 CURVE SMOOTH",
"455 507 OFFCURVE",
"463 536 OFFCURVE",
"463 560 CURVE SMOOTH",
"463 574 OFFCURVE",
"425 599 OFFCURVE",
"412 599 CURVE SMOOTH",
"341 599 OFFCURVE",
"32 86 OFFCURVE",
"32 -2 CURVE SMOOTH",
"32 -13 OFFCURVE",
"35 -41 OFFCURVE",
"51 -41 CURVE SMOOTH"
);
},
{
closed = 1;
nodes = (
"778 -9 OFFCURVE",
"786 3 OFFCURVE",
"786 12 CURVE SMOOTH",
"786 19 OFFCURVE",
"782 24 OFFCURVE",
"774 24 CURVE SMOOTH",
"764 24 OFFCURVE",
"763 35 OFFCURVE",
"763 44 CURVE SMOOTH",
"763 52 LINE SMOOTH",
"763 216 OFFCURVE",
"1013 553 OFFCURVE",
"1013 565 CURVE SMOOTH",
"1013 579 OFFCURVE",
"982 592 OFFCURVE",
"971 592 CURVE SMOOTH",
"895 592 OFFCURVE",
"728 139 OFFCURVE",
"728 50 CURVE SMOOTH",
"728 27 OFFCURVE",
"734 -9 OFFCURVE",
"763 -9 CURVE SMOOTH"
);
},
{
closed = 1;
nodes = (
"61 -31 OFFCURVE",
"65 -23 OFFCURVE",
"66 -15 CURVE SMOOTH",
"98 159 OFFCURVE",
"270 387 OFFCURVE",
"391 513 CURVE",
"388 493 OFFCURVE",
"379 441 OFFCURVE",
"377 412 CURVE SMOOTH",
"375 389 OFFCURVE",
"374 364 OFFCURVE",
"374 339 CURVE SMOOTH",
"374 250 OFFCURVE",
"394 163 OFFCURVE",
"486 163 CURVE SMOOTH",
"600 163 OFFCURVE",
"824 424 OFFCURVE",
"873 516 CURVE SMOOTH",
"877 523 OFFCURVE",
"880 530 OFFCURVE",
"880 536 CURVE SMOOTH",
"880 538 OFFCURVE",
"879 540 OFFCURVE",
"877 540 CURVE SMOOTH",
"855 540 OFFCURVE",
"569 193 OFFCURVE",
"463 193 CURVE SMOOTH",
"435 193 OFFCURVE",
"426 234 OFFCURVE",
"426 285 CURVE SMOOTH",
"426 365 OFFCURVE",
"447 472 OFFCURVE",
"451 493 CURVE SMOOTH",
"455 517 OFFCURVE",
"463 546 OFFCURVE",
"463 570 CURVE SMOOTH",
"463 584 OFFCURVE",
"425 609 OFFCURVE",
"412 609 CURVE SMOOTH",
"341 609 OFFCURVE",
"32 96 OFFCURVE",
"32 8 CURVE SMOOTH",
"32 -3 OFFCURVE",
"35 -31 OFFCURVE",
"51 -31 CURVE SMOOTH"
);
},
{
closed = 1;
nodes = (
"778 1 OFFCURVE",
"786 13 OFFCURVE",
"786 22 CURVE SMOOTH",
"786 29 OFFCURVE",
"782 34 OFFCURVE",
"774 34 CURVE SMOOTH",
"764 34 OFFCURVE",
"763 45 OFFCURVE",
"763 54 CURVE SMOOTH",
"763 62 LINE SMOOTH",
"763 226 OFFCURVE",
"1013 563 OFFCURVE",
"1013 575 CURVE SMOOTH",
"1013 589 OFFCURVE",
"982 602 OFFCURVE",
"971 602 CURVE SMOOTH",
"895 602 OFFCURVE",
"728 149 OFFCURVE",
"728 60 CURVE SMOOTH",
"728 37 OFFCURVE",
"734 1 OFFCURVE",
"763 1 CURVE SMOOTH"
);
}
);
};
layerId = "C7EEC47D-2D39-4E2B-85C4-E2E866CE7804";
paths = (
{
closed = 1;
nodes = (
"61 -31 OFFCURVE",
"65 -23 OFFCURVE",
"66 -15 CURVE SMOOTH",
"98 159 OFFCURVE",
"270 387 OFFCURVE",
"391 513 CURVE",
"381 449 OFFCURVE",
"374 407 OFFCURVE",
"374 339 CURVE SMOOTH",
"374 250 OFFCURVE",
"394 163 OFFCURVE",
"486 163 CURVE SMOOTH",
"600 163 OFFCURVE",
"824 424 OFFCURVE",
"873 516 CURVE SMOOTH",
"877 523 OFFCURVE",
"880 530 OFFCURVE",
"880 536 CURVE SMOOTH",
"880 538 OFFCURVE",
"879 540 OFFCURVE",
"877 540 CURVE SMOOTH",
"855 540 OFFCURVE",
"569 193 OFFCURVE",
"463 193 CURVE SMOOTH",
"435 193 OFFCURVE",
"426 234 OFFCURVE",
"426 285 CURVE SMOOTH",
"426 365 OFFCURVE",
"447 472 OFFCURVE",
"451 493 CURVE SMOOTH",
"455 517 OFFCURVE",
"463 546 OFFCURVE",
"463 570 CURVE SMOOTH",
"463 584 OFFCURVE",
"425 609 OFFCURVE",
"412 609 CURVE SMOOTH",
"341 609 OFFCURVE",
"32 96 OFFCURVE",
"32 8 CURVE SMOOTH",
"32 -19 OFFCURVE",
"40 -31 OFFCURVE",
"51 -31 CURVE SMOOTH"
);
},
{
closed = 1;
nodes = (
"778 1 OFFCURVE",
"786 13 OFFCURVE",
"786 22 CURVE SMOOTH",
"786 29 OFFCURVE",
"782 34 OFFCURVE",
"774 34 CURVE SMOOTH",
"764 34 OFFCURVE",
"763 45 OFFCURVE",
"763 54 CURVE SMOOTH",
"763 62 LINE SMOOTH",
"763 226 OFFCURVE",
"1013 563 OFFCURVE",
"1013 575 CURVE SMOOTH",
"1013 589 OFFCURVE",
"982 602 OFFCURVE",
"971 602 CURVE SMOOTH",
"895 602 OFFCURVE",
"728 149 OFFCURVE",
"728 60 CURVE SMOOTH",
"728 37 OFFCURVE",
"734 1 OFFCURVE",
"763 1 CURVE SMOOTH"
);
}
);
width = 820;
}
);
note = M;
unicode = 004D;
},
{
color = 9;
glyphname = N;
lastChange = "2021-10-08 03:45:14 +0000";
layers = (
{
anchors = (
{
name = bottom;
position = "{214, 0}";
},
{
name = top;
position = "{538, 610}";
}
);
background = {
paths = (
{
closed = 1;
nodes = (
"69 -37 OFFCURVE",
"74 -33 OFFCURVE",
"74 -29 CURVE SMOOTH",
"74 -25 OFFCURVE",
"69 -21 OFFCURVE",
"56 -21 CURVE SMOOTH",
"47 -21 OFFCURVE",
"46 -11 OFFCURVE",
"46 -4 CURVE SMOOTH",
"46 122 OFFCURVE",
"273 399 OFFCURVE",
"357 494 CURVE",
"341 449 OFFCURVE",
"291 277 OFFCURVE",
"291 147 CURVE SMOOTH",
"291 61 OFFCURVE",
"312 -6 OFFCURVE",
"380 -6 CURVE SMOOTH",
"520 -6 OFFCURVE",
"733 371 OFFCURVE",
"733 537 CURVE SMOOTH",
"733 583 OFFCURVE",
"716 613 OFFCURVE",
"676 613 CURVE SMOOTH",
"659 613 OFFCURVE",
"613 596 OFFCURVE",
"613 577 CURVE SMOOTH",
"613 571 OFFCURVE",
"621 570 OFFCURVE",
"625 570 CURVE SMOOTH",
"638 570 OFFCURVE",
"649 577 OFFCURVE",
"660 577 CURVE SMOOTH",
"675 577 OFFCURVE",
"681 562 OFFCURVE",
"681 538 CURVE SMOOTH",
"681 466 OFFCURVE",
"628 316 OFFCURVE",
"604 264 CURVE SMOOTH",
"551 147 OFFCURVE",
"477 39 OFFCURVE",
"410 39 CURVE SMOOTH",
"359 39 OFFCURVE",
"343 99 OFFCURVE",
"343 177 CURVE SMOOTH",
"343 311 OFFCURVE",
"392 500 OFFCURVE",
"401 539 CURVE",
"402 541 OFFCURVE",
"403 545 OFFCURVE",
"403 547 CURVE SMOOTH",
"403 569 OFFCURVE",
"381 590 OFFCURVE",
"360 590 CURVE SMOOTH",
"343 590 OFFCURVE",
"250 502 OFFCURVE",
"250 490 CURVE SMOOTH",
"250 483 OFFCURVE",
"261 481 OFFCURVE",
"265 480 CURVE",
"197 390 OFFCURVE",
"18 109 OFFCURVE",
"18 6 CURVE SMOOTH",
"18 -25 OFFCURVE",
"31 -37 OFFCURVE",
"61 -37 CURVE SMOOTH"
);
}
);
};
layerId = "C7EEC47D-2D39-4E2B-85C4-E2E866CE7804";
paths = (
{
closed = 1;
nodes = (
"69 -27 OFFCURVE",
"74 -23 OFFCURVE",
"74 -19 CURVE SMOOTH",
"74 -15 OFFCURVE",
"69 -11 OFFCURVE",
"56 -11 CURVE SMOOTH",
"47 -11 OFFCURVE",
"46 -1 OFFCURVE",
"46 6 CURVE SMOOTH",
"46 132 OFFCURVE",
"273 409 OFFCURVE",
"357 504 CURVE",
"341 459 OFFCURVE",
"291 287 OFFCURVE",
"291 157 CURVE SMOOTH",
"291 71 OFFCURVE",
"312 4 OFFCURVE",
"380 4 CURVE SMOOTH",
"520 4 OFFCURVE",
"733 381 OFFCURVE",
"733 547 CURVE SMOOTH",
"733 593 OFFCURVE",
"716 623 OFFCURVE",
"676 623 CURVE SMOOTH",
"659 623 OFFCURVE",
"613 606 OFFCURVE",
"613 587 CURVE SMOOTH",
"613 581 OFFCURVE",
"621 580 OFFCURVE",
"625 580 CURVE SMOOTH",
"638 580 OFFCURVE",
"649 587 OFFCURVE",
"660 587 CURVE SMOOTH",
"675 587 OFFCURVE",
"681 572 OFFCURVE",
"681 548 CURVE SMOOTH",
"681 476 OFFCURVE",
"628 326 OFFCURVE",
"604 274 CURVE SMOOTH",
"551 157 OFFCURVE",
"477 49 OFFCURVE",
"410 49 CURVE SMOOTH",
"359 49 OFFCURVE",
"343 109 OFFCURVE",
"343 187 CURVE SMOOTH",
"343 321 OFFCURVE",
"392 510 OFFCURVE",
"401 549 CURVE",
"402 551 OFFCURVE",
"403 555 OFFCURVE",
"403 557 CURVE SMOOTH",
"403 579 OFFCURVE",
"381 600 OFFCURVE",
"360 600 CURVE SMOOTH",
"343 600 OFFCURVE",
"250 512 OFFCURVE",
"250 500 CURVE SMOOTH",
"250 493 OFFCURVE",
"261 491 OFFCURVE",
"265 490 CURVE",
"197 400 OFFCURVE",
"18 119 OFFCURVE",
"18 16 CURVE SMOOTH",
"18 -15 OFFCURVE",
"31 -27 OFFCURVE",
"61 -27 CURVE SMOOTH"
);
}
);
width = 578;
}
);
note = N;
unicode = 004E;
},
{
glyphname = Nacute;
lastChange = "2021-10-01 07:33:16 +0000";
layers = (
{
background = {
paths = (
{
closed = 1;
nodes = (
"69 -37 OFFCURVE",
"74 -33 OFFCURVE",
"74 -29 CURVE SMOOTH",
"74 -25 OFFCURVE",
"69 -21 OFFCURVE",
"56 -21 CURVE SMOOTH",
"47 -21 OFFCURVE",
"46 -11 OFFCURVE",
"46 -4 CURVE SMOOTH",
"46 122 OFFCURVE",
"273 399 OFFCURVE",
"357 494 CURVE",
"341 449 OFFCURVE",
"291 277 OFFCURVE",
"291 147 CURVE SMOOTH",
"291 61 OFFCURVE",
"312 -6 OFFCURVE",
"380 -6 CURVE SMOOTH",
"520 -6 OFFCURVE",
"733 371 OFFCURVE",
"733 537 CURVE SMOOTH",
"733 583 OFFCURVE",
"716 613 OFFCURVE",
"676 613 CURVE SMOOTH",
"659 613 OFFCURVE",
"613 596 OFFCURVE",
"613 577 CURVE SMOOTH",
"613 571 OFFCURVE",
"621 570 OFFCURVE",
"625 570 CURVE SMOOTH",
"638 570 OFFCURVE",
"649 577 OFFCURVE",
"660 577 CURVE SMOOTH",
"675 577 OFFCURVE",
"681 562 OFFCURVE",
"681 538 CURVE SMOOTH",
"681 466 OFFCURVE",
"628 316 OFFCURVE",
"604 264 CURVE SMOOTH",
"551 147 OFFCURVE",
"477 39 OFFCURVE",
"410 39 CURVE SMOOTH",
"359 39 OFFCURVE",
"343 99 OFFCURVE",
"343 177 CURVE SMOOTH",
"343 311 OFFCURVE",
"392 500 OFFCURVE",
"401 539 CURVE",
"402 541 OFFCURVE",
"403 545 OFFCURVE",
"403 547 CURVE SMOOTH",
"403 569 OFFCURVE",
"381 590 OFFCURVE",
"360 590 CURVE SMOOTH",
"343 590 OFFCURVE",
"250 502 OFFCURVE",
"250 490 CURVE SMOOTH",
"250 483 OFFCURVE",
"261 481 OFFCURVE",
"265 480 CURVE",
"197 390 OFFCURVE",
"18 109 OFFCURVE",
"18 6 CURVE SMOOTH",
"18 -25 OFFCURVE",
"31 -37 OFFCURVE",
"61 -37 CURVE SMOOTH"
);
},
{
closed = 1;
nodes = (
"521 685 OFFCURVE",
"632 727 OFFCURVE",
"646 737 CURVE",
"652 740 OFFCURVE",
"656 747 OFFCURVE",
"657 754 CURVE SMOOTH",
"657 760 OFFCURVE",
"648 776 OFFCURVE",
"640 776 CURVE SMOOTH",
"635 776 OFFCURVE",
"629 772 OFFCURVE",
"624 770 CURVE",
"591 748 OFFCURVE",
"541 722 OFFCURVE",
"512 698 CURVE SMOOTH",
"510 696 OFFCURVE",
"508 694 OFFCURVE",
"507 691 CURVE",
"507 688 OFFCURVE",
"510 686 OFFCURVE",
"514 686 CURVE SMOOTH"
);
}
);
};
components = (
{
name = N;
},
{
name = acutecomb.case;
transform = "{1, 0, 0, 1, 495, 310}";
}
);
layerId = "C7EEC47D-2D39-4E2B-85C4-E2E866CE7804";
width = 578;
}
);
note = Nacute;
unicode = 0143;
},
{
glyphname = Ncaron;
lastChange = "2021-10-01 07:33:16 +0000";
layers = (
{
background = {
paths = (
{
closed = 1;
nodes = (
"69 -37 OFFCURVE",
"74 -33 OFFCURVE",
"74 -29 CURVE SMOOTH",
"74 -25 OFFCURVE",
"69 -21 OFFCURVE",
"56 -21 CURVE SMOOTH",
"47 -21 OFFCURVE",
"46 -11 OFFCURVE",
"46 -4 CURVE SMOOTH",
"46 122 OFFCURVE",
"273 399 OFFCURVE",
"357 494 CURVE",
"341 449 OFFCURVE",
"291 277 OFFCURVE",
"291 147 CURVE SMOOTH",
"291 61 OFFCURVE",
"312 -6 OFFCURVE",
"380 -6 CURVE SMOOTH",
"520 -6 OFFCURVE",
"733 371 OFFCURVE",
"733 537 CURVE SMOOTH",
"733 583 OFFCURVE",
"716 613 OFFCURVE",
"676 613 CURVE SMOOTH",
"659 613 OFFCURVE",
"613 596 OFFCURVE",
"613 577 CURVE SMOOTH",
"613 571 OFFCURVE",
"621 570 OFFCURVE",
"625 570 CURVE SMOOTH",
"638 570 OFFCURVE",
"649 577 OFFCURVE",
"660 577 CURVE SMOOTH",
"675 577 OFFCURVE",
"681 562 OFFCURVE",
"681 538 CURVE SMOOTH",
"681 466 OFFCURVE",
"628 316 OFFCURVE",
"604 264 CURVE SMOOTH",
"551 147 OFFCURVE",
"477 39 OFFCURVE",
"410 39 CURVE SMOOTH",
"359 39 OFFCURVE",
"343 99 OFFCURVE",
"343 177 CURVE SMOOTH",
"343 311 OFFCURVE",
"392 500 OFFCURVE",
"401 539 CURVE",
"402 541 OFFCURVE",
"403 545 OFFCURVE",
"403 547 CURVE SMOOTH",
"403 569 OFFCURVE",
"381 590 OFFCURVE",
"360 590 CURVE SMOOTH",
"343 590 OFFCURVE",
"250 502 OFFCURVE",
"250 490 CURVE SMOOTH",
"250 483 OFFCURVE",
"261 481 OFFCURVE",
"265 480 CURVE",
"197 390 OFFCURVE",
"18 109 OFFCURVE",
"18 6 CURVE SMOOTH",
"18 -25 OFFCURVE",
"31 -37 OFFCURVE",
"61 -37 CURVE SMOOTH"
);
},
{
closed = 1;
nodes = (
"562 660 OFFCURVE",
"565 660 OFFCURVE",
"567 661 CURVE SMOOTH",
"579 667 OFFCURVE",
"677 757 OFFCURVE",
"687 765 CURVE SMOOTH",
"692 768 OFFCURVE",
"694 772 OFFCURVE",
"694 775 CURVE SMOOTH",
"694 778 OFFCURVE",
"691 781 OFFCURVE",
"686 781 CURVE SMOOTH",
"684 781 OFFCURVE",
"682 781 OFFCURVE",
"680 779 CURVE",
"649 757 OFFCURVE",
"588 709 OFFCURVE",
"575 699 CURVE",
"569 719 OFFCURVE",
"526 777 OFFCURVE",
"507 778 CURVE SMOOTH",
"501 778 OFFCURVE",
"498 776 OFFCURVE",
"498 772 CURVE SMOOTH",
"498 769 OFFCURVE",
"499 766 OFFCURVE",
"501 762 CURVE SMOOTH",
"519 733 OFFCURVE",
"537 702 OFFCURVE",
"547 665 CURVE",
"549 661 OFFCURVE",
"554 660 OFFCURVE",
"559 660 CURVE SMOOTH"
);
}
);
};
components = (
{
name = N;
},
{
name = caroncomb.case;
transform = "{1, 0, 0, 1, 481, 310}";
}
);
layerId = "C7EEC47D-2D39-4E2B-85C4-E2E866CE7804";
width = 578;
}
);
note = Ncaron;
unicode = 0147;
},
{
glyphname = Eng;
lastChange = "2021-10-01 08:00:59 +0000";
layers = (
{
background = {
paths = (
{
closed = 1;
nodes = (
"366 -350 OFFCURVE",
"586 79 OFFCURVE",
"692 368 CURVE SMOOTH",
"717 431 OFFCURVE",
"733 491 OFFCURVE",
"733 536 CURVE SMOOTH",
"733 583 OFFCURVE",
"716 613 OFFCURVE",
"676 613 CURVE SMOOTH",
"659 613 OFFCURVE",
"613 596 OFFCURVE",
"613 577 CURVE SMOOTH",
"613 571 OFFCURVE",
"621 570 OFFCURVE",
"625 570 CURVE SMOOTH",
"638 570 OFFCURVE",
"649 577 OFFCURVE",
"660 577 CURVE SMOOTH",
"675 577 OFFCURVE",
"681 562 OFFCURVE",
"681 538 CURVE SMOOTH",
"681 466 OFFCURVE",
"628 316 OFFCURVE",
"604 264 CURVE SMOOTH",
"579 212 LINE SMOOTH",
"529 117 OFFCURVE",
"467 39 OFFCURVE",
"410 39 CURVE SMOOTH",
"359 39 OFFCURVE",
"343 99 OFFCURVE",
"343 177 CURVE SMOOTH",
"343 311 OFFCURVE",
"392 500 OFFCURVE",
"401 539 CURVE",
"402 541 OFFCURVE",
"403 545 OFFCURVE",
"403 547 CURVE SMOOTH",
"403 569 OFFCURVE",
"381 590 OFFCURVE",
"360 590 CURVE SMOOTH",
"343 590 OFFCURVE",
"250 502 OFFCURVE",
"250 490 CURVE SMOOTH",
"250 483 OFFCURVE",
"261 481 OFFCURVE",
"265 480 CURVE",
"197 390 OFFCURVE",
"18 109 OFFCURVE",
"18 6 CURVE SMOOTH",
"18 -25 OFFCURVE",
"31 -37 OFFCURVE",
"61 -37 CURVE SMOOTH",
"69 -37 OFFCURVE",
"74 -33 OFFCURVE",
"74 -29 CURVE SMOOTH",
"74 -25 OFFCURVE",
"69 -21 OFFCURVE",
"56 -21 CURVE SMOOTH",
"47 -21 OFFCURVE",
"46 -11 OFFCURVE",
"46 -4 CURVE SMOOTH",
"46 122 OFFCURVE",
"273 399 OFFCURVE",
"357 494 CURVE",
"341 449 OFFCURVE",
"291 277 OFFCURVE",
"291 147 CURVE SMOOTH",
"291 61 OFFCURVE",
"312 -6 OFFCURVE",
"380 -6 CURVE SMOOTH",
"419 -6 OFFCURVE",
"463 23 OFFCURVE",
"506 67 CURVE",
"414 -111 OFFCURVE",
"286 -326 OFFCURVE",
"193 -326 CURVE SMOOTH",
"152 -326 OFFCURVE",
"132 -271 OFFCURVE",
"132 -211 CURVE SMOOTH",
"132 -154 OFFCURVE",
"149 -93 OFFCURVE",
"182 -67 CURVE SMOOTH",
"185 -65 OFFCURVE",
"186 -62 OFFCURVE",
"186 -59 CURVE SMOOTH",
"186 -54 OFFCURVE",
"181 -49 OFFCURVE",
"176 -49 CURVE SMOOTH",
"174 -49 OFFCURVE",
"172 -49 OFFCURVE",
"170 -51 CURVE SMOOTH",
"119 -92 OFFCURVE",
"93 -162 OFFCURVE",
"93 -224 CURVE SMOOTH",
"93 -292 OFFCURVE",
"124 -350 OFFCURVE",
"187 -350 CURVE SMOOTH"
);
}
);
};
layerId = "C7EEC47D-2D39-4E2B-85C4-E2E866CE7804";
paths = (
{
closed = 1;
nodes = (
"366 -340 OFFCURVE",
"586 89 OFFCURVE",
"692 378 CURVE SMOOTH",
"717 441 OFFCURVE",
"733 501 OFFCURVE",
"733 546 CURVE SMOOTH",
"733 593 OFFCURVE",
"716 623 OFFCURVE",
"676 623 CURVE SMOOTH",
"659 623 OFFCURVE",
"613 606 OFFCURVE",
"613 587 CURVE SMOOTH",
"613 581 OFFCURVE",
"621 580 OFFCURVE",
"625 580 CURVE SMOOTH",
"638 580 OFFCURVE",
"649 587 OFFCURVE",
"660 587 CURVE SMOOTH",
"675 587 OFFCURVE",
"681 572 OFFCURVE",
"681 548 CURVE SMOOTH",
"681 476 OFFCURVE",
"628 326 OFFCURVE",
"604 274 CURVE SMOOTH",
"579 222 LINE SMOOTH",
"529 127 OFFCURVE",
"467 49 OFFCURVE",
"410 49 CURVE SMOOTH",
"359 49 OFFCURVE",
"343 109 OFFCURVE",
"343 187 CURVE SMOOTH",
"343 321 OFFCURVE",
"392 510 OFFCURVE",
"401 549 CURVE",
"402 551 OFFCURVE",
"403 555 OFFCURVE",
"403 557 CURVE SMOOTH",
"403 579 OFFCURVE",
"381 600 OFFCURVE",
"360 600 CURVE SMOOTH",
"343 600 OFFCURVE",
"250 512 OFFCURVE",
"250 500 CURVE SMOOTH",
"250 493 OFFCURVE",
"261 491 OFFCURVE",
"265 490 CURVE",
"197 400 OFFCURVE",
"18 119 OFFCURVE",
"18 16 CURVE SMOOTH",
"18 -15 OFFCURVE",
"31 -27 OFFCURVE",
"61 -27 CURVE SMOOTH",
"69 -27 OFFCURVE",
"74 -23 OFFCURVE",
"74 -19 CURVE SMOOTH",
"74 -15 OFFCURVE",
"69 -11 OFFCURVE",
"56 -11 CURVE SMOOTH",
"47 -11 OFFCURVE",
"46 -1 OFFCURVE",
"46 6 CURVE SMOOTH",
"46 132 OFFCURVE",
"273 409 OFFCURVE",
"357 504 CURVE",
"341 459 OFFCURVE",
"291 287 OFFCURVE",
"291 157 CURVE SMOOTH",
"291 71 OFFCURVE",
"312 4 OFFCURVE",
"380 4 CURVE SMOOTH",
"419 4 OFFCURVE",
"463 33 OFFCURVE",
"506 77 CURVE",
"414 -101 OFFCURVE",
"286 -316 OFFCURVE",
"193 -316 CURVE SMOOTH",
"152 -316 OFFCURVE",
"132 -261 OFFCURVE",
"132 -201 CURVE SMOOTH",
"132 -144 OFFCURVE",
"149 -83 OFFCURVE",
"182 -57 CURVE SMOOTH",
"185 -55 OFFCURVE",
"186 -52 OFFCURVE",
"186 -49 CURVE SMOOTH",
"186 -44 OFFCURVE",
"181 -39 OFFCURVE",
"176 -39 CURVE SMOOTH",
"174 -39 OFFCURVE",
"172 -39 OFFCURVE",
"170 -41 CURVE SMOOTH",
"119 -82 OFFCURVE",
"93 -152 OFFCURVE",
"93 -214 CURVE SMOOTH",
"93 -282 OFFCURVE",
"124 -340 OFFCURVE",
"187 -340 CURVE SMOOTH"
);
}
);
width = 578;
}
);
unicode = 014A;
},
{
glyphname = Ntilde;
lastChange = "2021-10-01 07:33:16 +0000";
layers = (
{
background = {
paths = (
{
closed = 1;
nodes = (
"69 -37 OFFCURVE",
"74 -33 OFFCURVE",
"74 -29 CURVE SMOOTH",
"74 -25 OFFCURVE",
"69 -21 OFFCURVE",
"56 -21 CURVE SMOOTH",
"47 -21 OFFCURVE",
"46 -11 OFFCURVE",
"46 -4 CURVE SMOOTH",
"46 122 OFFCURVE",
"273 399 OFFCURVE",
"357 494 CURVE",
"341 449 OFFCURVE",
"291 277 OFFCURVE",
"291 147 CURVE SMOOTH",
"291 61 OFFCURVE",
"312 -6 OFFCURVE",
"380 -6 CURVE SMOOTH",
"520 -6 OFFCURVE",
"733 371 OFFCURVE",
"733 537 CURVE SMOOTH",
"733 583 OFFCURVE",
"716 613 OFFCURVE",
"676 613 CURVE SMOOTH",
"659 613 OFFCURVE",
"613 596 OFFCURVE",
"613 577 CURVE SMOOTH",
"613 571 OFFCURVE",
"621 570 OFFCURVE",
"625 570 CURVE SMOOTH",
"638 570 OFFCURVE",
"649 577 OFFCURVE",
"660 577 CURVE SMOOTH",
"675 577 OFFCURVE",
"681 562 OFFCURVE",
"681 538 CURVE SMOOTH",
"681 466 OFFCURVE",
"628 316 OFFCURVE",
"604 264 CURVE SMOOTH",
"551 147 OFFCURVE",
"477 39 OFFCURVE",
"410 39 CURVE SMOOTH",
"359 39 OFFCURVE",
"343 99 OFFCURVE",
"343 177 CURVE SMOOTH",
"343 311 OFFCURVE",
"392 500 OFFCURVE",
"401 539 CURVE",
"402 541 OFFCURVE",
"403 545 OFFCURVE",
"403 547 CURVE SMOOTH",
"403 569 OFFCURVE",
"381 590 OFFCURVE",
"360 590 CURVE SMOOTH",
"343 590 OFFCURVE",
"250 502 OFFCURVE",
"250 490 CURVE SMOOTH",
"250 483 OFFCURVE",
"261 481 OFFCURVE",
"265 480 CURVE",
"197 390 OFFCURVE",
"18 109 OFFCURVE",
"18 6 CURVE SMOOTH",
"18 -25 OFFCURVE",
"31 -37 OFFCURVE",
"61 -37 CURVE SMOOTH"
);
},
{
closed = 1;
nodes = (
"475 664 OFFCURVE",
"479 666 OFFCURVE",
"483 672 CURVE SMOOTH",
"497 691 OFFCURVE",
"522 705 OFFCURVE",
"543 705 CURVE SMOOTH",
"582 705 OFFCURVE",
"607 677 OFFCURVE",
"639 677 CURVE SMOOTH",
"672 677 OFFCURVE",
"697 709 OFFCURVE",
"706 735 CURVE SMOOTH",
"708 740 OFFCURVE",
"704 743 OFFCURVE",
"700 743 CURVE SMOOTH",
"697 743 OFFCURVE",
"693 742 OFFCURVE",
"690 738 CURVE SMOOTH",
"679 725 OFFCURVE",
"666 717 OFFCURVE",
"648 717 CURVE SMOOTH",
"616 717 OFFCURVE",
"582 747 OFFCURVE",
"549 747 CURVE SMOOTH",
"498 747 OFFCURVE",
"473 702 OFFCURVE",
"469 682 CURVE SMOOTH",
"467 673 OFFCURVE",
"468 664 OFFCURVE",
"473 664 CURVE SMOOTH"
);
}
);
};
components = (
{
name = N;
},
{
name = tildecomb.case;
transform = "{1, 0, 0, 1, 449, 310}";
}
);
layerId = "C7EEC47D-2D39-4E2B-85C4-E2E866CE7804";
width = 578;
}
);
note = Ntilde;
unicode = 00D1;
},
{
color = 9;
glyphname = O;
lastChange = "2021-10-08 03:45:14 +0000";
layers = (
{
anchors = (
{
name = bottom;
position = "{205, 0}";
},
{
name = center;
position = "{349, 305}";
},
{
name = ogonek;
position = "{213, 0}";
},
{
name = top;
position = "{595, 597}";
},
{
name = topleft;
position = "{20, 610}";
},
{
name = topright;
position = "{705, 548}";
}
);
background = {
paths = (
{
closed = 1;
nodes = (
"451 -25 OFFCURVE",
"802 161 OFFCURVE",
"802 377 CURVE SMOOTH",
"802 530 OFFCURVE",
"666 591 OFFCURVE",
"532 591 CURVE SMOOTH",
"396 591 OFFCURVE",
"228 527 OFFCURVE",
"145 416 CURVE SMOOTH",
"141 410 OFFCURVE",
"139 405 OFFCURVE",
"139 401 CURVE SMOOTH",
"139 397 OFFCURVE",
"141 394 OFFCURVE",
"145 394 CURVE SMOOTH",
"149 394 OFFCURVE",
"154 396 OFFCURVE",
"161 402 CURVE SMOOTH",
"213 449 OFFCURVE",
"274 488 OFFCURVE",
"340 511 CURVE",
"235 421 OFFCURVE",
"100 284 OFFCURVE",
"100 136 CURVE SMOOTH",
"100 30 OFFCURVE",
"155 -25 OFFCURVE",
"260 -25 CURVE SMOOTH"
);
},
{
closed = 1;
nodes = (
"175 8 OFFCURVE",
"135 48 OFFCURVE",
"135 126 CURVE SMOOTH",
"135 264 OFFCURVE",
"329 447 OFFCURVE",
"453 486 CURVE SMOOTH",
"459 488 OFFCURVE",
"464 492 OFFCURVE",
"464 499 CURVE SMOOTH",
"464 523 OFFCURVE",
"427 535 OFFCURVE",
"409 538 CURVE",
"455 553 OFFCURVE",
"503 560 OFFCURVE",
"551 560 CURVE SMOOTH",
"640 560 OFFCURVE",
"755 531 OFFCURVE",
"755 421 CURVE SMOOTH",
"755 218 OFFCURVE",
"439 8 OFFCURVE",
"252 8 CURVE SMOOTH"
);
}
);
};
layerId = "C7EEC47D-2D39-4E2B-85C4-E2E866CE7804";
paths = (
{
closed = 1;
nodes = (
"451 -15 OFFCURVE",
"802 171 OFFCURVE",
"802 387 CURVE SMOOTH",
"802 540 OFFCURVE",
"666 601 OFFCURVE",
"532 601 CURVE SMOOTH",
"396 601 OFFCURVE",
"228 537 OFFCURVE",
"145 426 CURVE SMOOTH",
"141 420 OFFCURVE",
"139 415 OFFCURVE",
"139 411 CURVE SMOOTH",
"139 407 OFFCURVE",
"141 404 OFFCURVE",
"145 404 CURVE SMOOTH",
"149 404 OFFCURVE",
"154 406 OFFCURVE",
"161 412 CURVE SMOOTH",
"213 459 OFFCURVE",
"274 498 OFFCURVE",
"340 521 CURVE",
"235 431 OFFCURVE",
"100 294 OFFCURVE",
"100 146 CURVE SMOOTH",
"100 40 OFFCURVE",
"155 -15 OFFCURVE",
"260 -15 CURVE SMOOTH"
);
},
{
closed = 1;
nodes = (
"175 18 OFFCURVE",
"135 58 OFFCURVE",
"135 136 CURVE SMOOTH",
"135 274 OFFCURVE",
"329 457 OFFCURVE",
"453 496 CURVE SMOOTH",
"459 498 OFFCURVE",
"464 502 OFFCURVE",
"464 509 CURVE SMOOTH",
"464 533 OFFCURVE",
"427 545 OFFCURVE",
"409 548 CURVE",
"455 563 OFFCURVE",
"503 570 OFFCURVE",
"551 570 CURVE SMOOTH",
"640 570 OFFCURVE",
"755 541 OFFCURVE",
"755 431 CURVE SMOOTH",
"755 228 OFFCURVE",
"439 18 OFFCURVE",
"252 18 CURVE SMOOTH"
);
}
);
width = 698;
}
);
note = O;
unicode = 004F;
},
{
glyphname = Oacute;
lastChange = "2021-10-01 07:33:16 +0000";
layers = (
{
background = {
paths = (
{
closed = 1;
nodes = (
"410 -25 OFFCURVE",
"761 161 OFFCURVE",
"761 377 CURVE SMOOTH",
"761 530 OFFCURVE",
"625 591 OFFCURVE",
"491 591 CURVE SMOOTH",
"355 591 OFFCURVE",
"187 527 OFFCURVE",
"104 416 CURVE SMOOTH",
"100 410 OFFCURVE",
"98 405 OFFCURVE",
"98 401 CURVE SMOOTH",
"98 397 OFFCURVE",
"100 394 OFFCURVE",
"104 394 CURVE SMOOTH",
"108 394 OFFCURVE",
"113 396 OFFCURVE",
"120 402 CURVE SMOOTH",
"172 449 OFFCURVE",
"233 488 OFFCURVE",
"299 511 CURVE",
"194 421 OFFCURVE",
"59 284 OFFCURVE",
"59 136 CURVE SMOOTH",
"59 30 OFFCURVE",
"114 -25 OFFCURVE",
"219 -25 CURVE SMOOTH"
);
},
{
closed = 1;
nodes = (
"134 8 OFFCURVE",
"94 48 OFFCURVE",
"94 126 CURVE SMOOTH",
"94 264 OFFCURVE",
"288 447 OFFCURVE",
"412 486 CURVE SMOOTH",
"418 488 OFFCURVE",
"423 492 OFFCURVE",
"423 499 CURVE SMOOTH",
"423 523 OFFCURVE",
"386 535 OFFCURVE",
"368 538 CURVE",
"414 553 OFFCURVE",
"462 560 OFFCURVE",
"510 560 CURVE SMOOTH",
"599 560 OFFCURVE",
"714 531 OFFCURVE",
"714 421 CURVE SMOOTH",
"714 218 OFFCURVE",
"398 8 OFFCURVE",
"211 8 CURVE SMOOTH"
);
},
{
closed = 1;
nodes = (
"533 660 OFFCURVE",
"644 702 OFFCURVE",
"658 712 CURVE",
"664 715 OFFCURVE",
"668 722 OFFCURVE",
"669 729 CURVE SMOOTH",
"669 735 OFFCURVE",
"660 751 OFFCURVE",
"652 751 CURVE SMOOTH",
"647 751 OFFCURVE",
"641 747 OFFCURVE",
"636 745 CURVE",
"603 723 OFFCURVE",
"553 697 OFFCURVE",
"524 673 CURVE SMOOTH",
"522 671 OFFCURVE",
"520 669 OFFCURVE",
"519 666 CURVE",
"519 663 OFFCURVE",
"522 661 OFFCURVE",
"526 661 CURVE SMOOTH"
);
}
);
};
components = (
{
name = O;
},
{
name = acutecomb.case;
transform = "{1, 0, 0, 1, 552, 297}";
}
);
layerId = "C7EEC47D-2D39-4E2B-85C4-E2E866CE7804";
width = 698;
}
);
note = Oacute;
unicode = 00D3;
},
{
glyphname = Ocircumflex;
lastChange = "2021-10-01 07:33:16 +0000";
layers = (
{
background = {
paths = (
{
closed = 1;
nodes = (
"410 -25 OFFCURVE",
"761 161 OFFCURVE",
"761 377 CURVE SMOOTH",
"761 530 OFFCURVE",
"625 591 OFFCURVE",
"491 591 CURVE SMOOTH",
"355 591 OFFCURVE",
"187 527 OFFCURVE",
"104 416 CURVE SMOOTH",
"100 410 OFFCURVE",
"98 405 OFFCURVE",
"98 401 CURVE SMOOTH",
"98 397 OFFCURVE",
"100 394 OFFCURVE",
"104 394 CURVE SMOOTH",
"108 394 OFFCURVE",
"113 396 OFFCURVE",
"120 402 CURVE SMOOTH",
"172 449 OFFCURVE",
"233 488 OFFCURVE",
"299 511 CURVE",
"194 421 OFFCURVE",
"59 284 OFFCURVE",
"59 136 CURVE SMOOTH",
"59 30 OFFCURVE",
"114 -25 OFFCURVE",
"219 -25 CURVE SMOOTH"
);
},
{
closed = 1;
nodes = (
"134 8 OFFCURVE",
"94 48 OFFCURVE",
"94 126 CURVE SMOOTH",
"94 264 OFFCURVE",
"288 447 OFFCURVE",
"412 486 CURVE SMOOTH",
"418 488 OFFCURVE",
"423 492 OFFCURVE",
"423 499 CURVE SMOOTH",
"423 523 OFFCURVE",
"386 535 OFFCURVE",
"368 538 CURVE",
"414 553 OFFCURVE",
"462 560 OFFCURVE",
"510 560 CURVE SMOOTH",
"599 560 OFFCURVE",
"714 531 OFFCURVE",
"714 421 CURVE SMOOTH",
"714 218 OFFCURVE",
"398 8 OFFCURVE",
"211 8 CURVE SMOOTH"
);
},
{
closed = 1;
nodes = (
"485 648 OFFCURVE",
"487 648 OFFCURVE",
"489 650 CURVE",
"520 672 OFFCURVE",
"581 720 OFFCURVE",
"594 730 CURVE",
"600 710 OFFCURVE",
"643 652 OFFCURVE",
"662 651 CURVE SMOOTH",
"668 651 OFFCURVE",
"671 653 OFFCURVE",
"671 657 CURVE SMOOTH",
"671 660 OFFCURVE",
"670 663 OFFCURVE",
"668 667 CURVE SMOOTH",
"650 696 OFFCURVE",
"632 727 OFFCURVE",
"622 764 CURVE",
"620 768 OFFCURVE",
"615 769 OFFCURVE",
"610 769 CURVE SMOOTH",
"607 769 OFFCURVE",
"604 769 OFFCURVE",
"602 768 CURVE SMOOTH",
"590 762 OFFCURVE",
"492 672 OFFCURVE",
"482 664 CURVE SMOOTH",
"477 661 OFFCURVE",
"475 657 OFFCURVE",
"475 654 CURVE SMOOTH",
"475 651 OFFCURVE",
"478 648 OFFCURVE",
"483 648 CURVE SMOOTH"
);
}
);
};
components = (
{
name = O;
},
{
name = circumflexcomb.case;
transform = "{1, 0, 0, 1, 500, 297}";
}
);
layerId = "C7EEC47D-2D39-4E2B-85C4-E2E866CE7804";
width = 698;
}
);
note = Ocircumflex;
unicode = 00D4;
},
{
glyphname = Odieresis;
lastChange = "2021-10-01 07:33:16 +0000";
layers = (
{
background = {
paths = (
{
closed = 1;
nodes = (
"410 -25 OFFCURVE",
"761 161 OFFCURVE",
"761 377 CURVE SMOOTH",
"761 530 OFFCURVE",
"625 591 OFFCURVE",
"491 591 CURVE SMOOTH",
"355 591 OFFCURVE",
"187 527 OFFCURVE",
"104 416 CURVE SMOOTH",
"100 410 OFFCURVE",
"98 405 OFFCURVE",
"98 401 CURVE SMOOTH",
"98 397 OFFCURVE",
"100 394 OFFCURVE",
"104 394 CURVE SMOOTH",
"108 394 OFFCURVE",
"113 396 OFFCURVE",
"120 402 CURVE SMOOTH",
"172 449 OFFCURVE",
"233 488 OFFCURVE",
"299 511 CURVE",
"194 421 OFFCURVE",
"59 284 OFFCURVE",
"59 136 CURVE SMOOTH",
"59 30 OFFCURVE",
"114 -25 OFFCURVE",
"219 -25 CURVE SMOOTH"
);
},
{
closed = 1;
nodes = (
"134 8 OFFCURVE",
"94 48 OFFCURVE",
"94 126 CURVE SMOOTH",
"94 264 OFFCURVE",
"288 447 OFFCURVE",
"412 486 CURVE SMOOTH",
"418 488 OFFCURVE",
"423 492 OFFCURVE",
"423 499 CURVE SMOOTH",
"423 523 OFFCURVE",
"386 535 OFFCURVE",
"368 538 CURVE",
"414 553 OFFCURVE",
"462 560 OFFCURVE",
"510 560 CURVE SMOOTH",
"599 560 OFFCURVE",
"714 531 OFFCURVE",
"714 421 CURVE SMOOTH",
"714 218 OFFCURVE",
"398 8 OFFCURVE",
"211 8 CURVE SMOOTH"
);
},
{
closed = 1;
nodes = (
"536 676 OFFCURVE",
"562 717 OFFCURVE",
"563 727 CURVE SMOOTH",
"564 740 OFFCURVE",
"552 751 OFFCURVE",
"541 751 CURVE SMOOTH",
"521 751 OFFCURVE",
"490 715 OFFCURVE",
"490 698 CURVE SMOOTH",
"490 679 OFFCURVE",
"513 676 OFFCURVE",
"525 676 CURVE SMOOTH"
);
},
{
closed = 1;
nodes = (
"656 676 OFFCURVE",
"682 717 OFFCURVE",
"683 727 CURVE SMOOTH",
"684 740 OFFCURVE",
"672 751 OFFCURVE",
"661 751 CURVE SMOOTH",
"641 751 OFFCURVE",
"610 715 OFFCURVE",
"610 698 CURVE SMOOTH",
"610 679 OFFCURVE",
"633 676 OFFCURVE",
"645 676 CURVE SMOOTH"
);
}
);
};
components = (
{
name = O;
},
{
name = dieresiscomb.case;
transform = "{1, 0, 0, 1, 529, 297}";
}
);
layerId = "C7EEC47D-2D39-4E2B-85C4-E2E866CE7804";
width = 698;
}
);
note = Odieresis;
unicode = 00D6;
},
{
glyphname = Ograve;
lastChange = "2021-10-01 07:33:16 +0000";
layers = (
{
background = {
paths = (
{
closed = 1;
nodes = (
"410 -25 OFFCURVE",
"761 161 OFFCURVE",
"761 377 CURVE SMOOTH",
"761 530 OFFCURVE",
"625 591 OFFCURVE",
"491 591 CURVE SMOOTH",
"355 591 OFFCURVE",
"187 527 OFFCURVE",
"104 416 CURVE SMOOTH",
"100 410 OFFCURVE",
"98 405 OFFCURVE",
"98 401 CURVE SMOOTH",
"98 397 OFFCURVE",
"100 394 OFFCURVE",
"104 394 CURVE SMOOTH",
"108 394 OFFCURVE",
"113 396 OFFCURVE",
"120 402 CURVE SMOOTH",
"172 449 OFFCURVE",
"233 488 OFFCURVE",
"299 511 CURVE",
"194 421 OFFCURVE",
"59 284 OFFCURVE",
"59 136 CURVE SMOOTH",
"59 30 OFFCURVE",
"114 -25 OFFCURVE",
"219 -25 CURVE SMOOTH"
);
},
{
closed = 1;
nodes = (
"134 8 OFFCURVE",
"94 48 OFFCURVE",
"94 126 CURVE SMOOTH",
"94 264 OFFCURVE",
"288 447 OFFCURVE",
"412 486 CURVE SMOOTH",
"418 488 OFFCURVE",
"423 492 OFFCURVE",
"423 499 CURVE SMOOTH",
"423 523 OFFCURVE",
"386 535 OFFCURVE",
"368 538 CURVE",
"414 553 OFFCURVE",
"462 560 OFFCURVE",
"510 560 CURVE SMOOTH",
"599 560 OFFCURVE",
"714 531 OFFCURVE",
"714 421 CURVE SMOOTH",
"714 218 OFFCURVE",
"398 8 OFFCURVE",
"211 8 CURVE SMOOTH"
);
},
{
closed = 1;
nodes = (
"658 645 OFFCURVE",
"661 647 OFFCURVE",
"661 650 CURVE",
"660 653 OFFCURVE",
"658 655 OFFCURVE",
"656 657 CURVE SMOOTH",
"627 681 OFFCURVE",
"577 707 OFFCURVE",
"544 729 CURVE",
"539 731 OFFCURVE",
"533 735 OFFCURVE",
"528 735 CURVE SMOOTH",
"526 735 LINE SMOOTH",
"519 734 OFFCURVE",
"511 719 OFFCURVE",
"511 713 CURVE SMOOTH",
"512 706 OFFCURVE",
"516 699 OFFCURVE",
"522 696 CURVE",
"536 686 OFFCURVE",
"647 644 OFFCURVE",
"654 645 CURVE SMOOTH"
);
}
);
};
components = (
{
name = O;
},
{
name = gravecomb.case;
transform = "{1, 0, 0, 1, 479, 297}";
}
);
layerId = "C7EEC47D-2D39-4E2B-85C4-E2E866CE7804";
width = 698;
}
);
note = Ograve;
unicode = 00D2;
},
{
glyphname = Ohungarumlaut;
lastChange = "2021-10-01 07:33:16 +0000";
layers = (
{
background = {
paths = (
{
closed = 1;
nodes = (
"451 -25 OFFCURVE",
"802 161 OFFCURVE",
"802 377 CURVE SMOOTH",
"802 530 OFFCURVE",
"666 591 OFFCURVE",
"532 591 CURVE SMOOTH",
"396 591 OFFCURVE",
"228 527 OFFCURVE",
"145 416 CURVE SMOOTH",
"141 410 OFFCURVE",
"139 405 OFFCURVE",
"139 401 CURVE SMOOTH",
"139 397 OFFCURVE",
"141 394 OFFCURVE",
"145 394 CURVE SMOOTH",
"149 394 OFFCURVE",
"154 396 OFFCURVE",
"161 402 CURVE SMOOTH",
"213 449 OFFCURVE",
"274 488 OFFCURVE",
"340 511 CURVE",
"235 421 OFFCURVE",
"100 284 OFFCURVE",
"100 136 CURVE SMOOTH",
"100 30 OFFCURVE",
"155 -25 OFFCURVE",
"260 -25 CURVE SMOOTH"
);
},
{
closed = 1;
nodes = (
"175 8 OFFCURVE",
"135 48 OFFCURVE",
"135 126 CURVE SMOOTH",
"135 264 OFFCURVE",
"329 447 OFFCURVE",
"453 486 CURVE SMOOTH",
"459 488 OFFCURVE",
"464 492 OFFCURVE",
"464 499 CURVE SMOOTH",
"464 523 OFFCURVE",
"427 535 OFFCURVE",
"409 538 CURVE",
"455 553 OFFCURVE",
"503 560 OFFCURVE",
"551 560 CURVE SMOOTH",
"640 560 OFFCURVE",
"755 531 OFFCURVE",
"755 421 CURVE SMOOTH",
"755 218 OFFCURVE",
"439 8 OFFCURVE",
"252 8 CURVE SMOOTH"
);
},
{
closed = 1;
nodes = (
"549 637 OFFCURVE",
"555 635 OFFCURVE",
"557 638 CURVE",
"563 640 OFFCURVE",
"591 739 OFFCURVE",
"591 748 CURVE SMOOTH",
"592 755 OFFCURVE",
"586 769 OFFCURVE",
"581 775 CURVE SMOOTH",
"578 778 OFFCURVE",
"573 781 OFFCURVE",
"568 781 CURVE SMOOTH",
"566 781 OFFCURVE",
"564 780 OFFCURVE",
"563 779 CURVE",
"559 777 OFFCURVE",
"559 772 OFFCURVE",
"557 766 CURVE",
"557 755 OFFCURVE",
"545 686 OFFCURVE",
"545 654 CURVE SMOOTH",
"545 646 OFFCURVE",
"546 640 OFFCURVE",
"548 638 CURVE SMOOTH"
);
},
{
closed = 1;
nodes = (
"641 637 OFFCURVE",
"647 635 OFFCURVE",
"649 638 CURVE",
"655 640 OFFCURVE",
"684 739 OFFCURVE",
"684 748 CURVE SMOOTH",
"685 755 OFFCURVE",
"678 769 OFFCURVE",
"673 775 CURVE SMOOTH",
"670 778 OFFCURVE",
"665 781 OFFCURVE",
"661 781 CURVE SMOOTH",
"659 781 OFFCURVE",
"657 780 OFFCURVE",
"656 779 CURVE",
"651 777 OFFCURVE",
"651 772 OFFCURVE",
"649 766 CURVE",
"648 755 OFFCURVE",
"637 688 OFFCURVE",
"637 655 CURVE SMOOTH",
"637 646 OFFCURVE",
"638 640 OFFCURVE",
"640 638 CURVE SMOOTH"
);
}
);
};
components = (
{
name = O;
},
{
name = hungarumlautcomb.case;
transform = "{1, 0, 0, 1, 578, 297}";
}
);
layerId = "C7EEC47D-2D39-4E2B-85C4-E2E866CE7804";
width = 698;
}
);
note = Ohungarumlaut;
unicode = 0150;
},
{
glyphname = Omacron;
lastChange = "2021-10-01 07:33:16 +0000";
layers = (
{
background = {
paths = (
{
closed = 1;
nodes = (
"451 -25 OFFCURVE",
"802 161 OFFCURVE",
"802 377 CURVE SMOOTH",
"802 530 OFFCURVE",
"666 591 OFFCURVE",
"532 591 CURVE SMOOTH",
"396 591 OFFCURVE",
"228 527 OFFCURVE",
"145 416 CURVE SMOOTH",
"141 410 OFFCURVE",
"139 405 OFFCURVE",
"139 401 CURVE SMOOTH",
"139 397 OFFCURVE",
"141 394 OFFCURVE",
"145 394 CURVE SMOOTH",
"149 394 OFFCURVE",
"154 396 OFFCURVE",
"161 402 CURVE SMOOTH",
"213 449 OFFCURVE",
"274 488 OFFCURVE",
"340 511 CURVE",
"235 421 OFFCURVE",
"100 284 OFFCURVE",
"100 136 CURVE SMOOTH",
"100 30 OFFCURVE",
"155 -25 OFFCURVE",
"260 -25 CURVE SMOOTH"
);
},
{
closed = 1;
nodes = (
"175 8 OFFCURVE",
"135 48 OFFCURVE",
"135 126 CURVE SMOOTH",
"135 264 OFFCURVE",
"329 447 OFFCURVE",
"453 486 CURVE SMOOTH",
"459 488 OFFCURVE",
"464 492 OFFCURVE",
"464 499 CURVE SMOOTH",
"464 523 OFFCURVE",
"427 535 OFFCURVE",
"409 538 CURVE",
"455 553 OFFCURVE",
"503 560 OFFCURVE",
"551 560 CURVE SMOOTH",
"640 560 OFFCURVE",
"755 531 OFFCURVE",
"755 421 CURVE SMOOTH",
"755 218 OFFCURVE",
"439 8 OFFCURVE",
"252 8 CURVE SMOOTH"
);
},
{
closed = 1;
nodes = (
"693 679 LINE SMOOTH",
"724 679 OFFCURVE",
"742 687 OFFCURVE",
"742 696 CURVE SMOOTH",
"742 707 OFFCURVE",
"720 708 OFFCURVE",
"707 708 CURVE SMOOTH",
"595 708 LINE SMOOTH",
"573 708 OFFCURVE",
"550 694 OFFCURVE",
"550 685 CURVE SMOOTH",
"550 682 OFFCURVE",
"554 679 OFFCURVE",
"564 679 CURVE SMOOTH"
);
}
);
};
components = (
{
name = O;
},
{
name = macroncomb.case;
transform = "{1, 0, 0, 1, 511, 297}";
}
);
layerId = "C7EEC47D-2D39-4E2B-85C4-E2E866CE7804";
width = 698;
}
);
note = Omacron;
unicode = 014C;
},
{
glyphname = Oslash;
lastChange = "2021-10-01 08:00:59 +0000";
layers = (
{
anchors = (
{
name = bottom;
position = "{329, 0}";
},
{
name = top;
position = "{553, 610}";
}
);
background = {
paths = (
{
closed = 1;
nodes = (
"25 -109 OFFCURVE",
"42 -105 OFFCURVE",
"48 -98 CURVE SMOOTH",
"132 -7 LINE",
"155 -19 OFFCURVE",
"184 -25 OFFCURVE",
"219 -25 CURVE SMOOTH",
"410 -25 OFFCURVE",
"761 161 OFFCURVE",
"761 377 CURVE SMOOTH",
"761 464 OFFCURVE",
"717 521 OFFCURVE",
"654 554 CURVE",
"724 629 LINE SMOOTH",
"729 634 OFFCURVE",
"731 638 OFFCURVE",
"731 642 CURVE SMOOTH",
"731 651 OFFCURVE",
"718 655 OFFCURVE",
"702 655 CURVE SMOOTH",
"684 655 OFFCURVE",
"663 649 OFFCURVE",
"654 639 CURVE SMOOTH",
"596 577 LINE",
"562 587 OFFCURVE",
"527 591 OFFCURVE",
"491 591 CURVE SMOOTH",
"355 591 OFFCURVE",
"187 527 OFFCURVE",
"104 416 CURVE SMOOTH",
"100 410 OFFCURVE",
"98 405 OFFCURVE",
"98 401 CURVE SMOOTH",
"98 397 OFFCURVE",
"100 394 OFFCURVE",
"104 394 CURVE SMOOTH",
"108 394 OFFCURVE",
"113 396 OFFCURVE",
"120 402 CURVE SMOOTH",
"172 449 OFFCURVE",
"233 488 OFFCURVE",
"299 511 CURVE",
"194 421 OFFCURVE",
"59 284 OFFCURVE",
"59 136 CURVE SMOOTH",
"59 80 OFFCURVE",
"74 38 OFFCURVE",
"104 11 CURVE",
"4 -96 LINE SMOOTH",
"1 -99 OFFCURVE",
"0 -102 OFFCURVE",
"0 -104 CURVE SMOOTH",
"0 -108 OFFCURVE",
"6 -109 OFFCURVE",
"13 -109 CURVE SMOOTH"
);
},
{
closed = 1;
nodes = (
"104 55 OFFCURVE",
"94 85 OFFCURVE",
"94 126 CURVE SMOOTH",
"94 264 OFFCURVE",
"288 447 OFFCURVE",
"412 486 CURVE SMOOTH",
"418 488 OFFCURVE",
"423 492 OFFCURVE",
"423 499 CURVE SMOOTH",
"423 523 OFFCURVE",
"386 535 OFFCURVE",
"368 538 CURVE",
"414 553 OFFCURVE",
"462 560 OFFCURVE",
"510 560 CURVE SMOOTH",
"531 560 OFFCURVE",
"553 558 OFFCURVE",
"575 554 CURVE",
"425 390 OFFCURVE",
"287 215 OFFCURVE",
"126 35 CURVE"
);
},
{
closed = 1;
nodes = (
"189 8 OFFCURVE",
"170 11 OFFCURVE",
"155 17 CURVE",
"637 536 LINE",
"681 515 OFFCURVE",
"714 479 OFFCURVE",
"714 421 CURVE SMOOTH",
"714 218 OFFCURVE",
"398 8 OFFCURVE",
"211 8 CURVE SMOOTH"
);
}
);
};
layerId = "C7EEC47D-2D39-4E2B-85C4-E2E866CE7804";
paths = (
{
closed = 1;
nodes = (
"25 -99 OFFCURVE",
"42 -95 OFFCURVE",
"48 -88 CURVE SMOOTH",
"132 3 LINE",
"155 -9 OFFCURVE",
"184 -15 OFFCURVE",
"219 -15 CURVE SMOOTH",
"410 -15 OFFCURVE",
"761 171 OFFCURVE",
"761 387 CURVE SMOOTH",
"761 474 OFFCURVE",
"717 531 OFFCURVE",
"654 564 CURVE",
"724 639 LINE SMOOTH",
"729 644 OFFCURVE",
"731 648 OFFCURVE",
"731 652 CURVE SMOOTH",
"731 661 OFFCURVE",
"718 665 OFFCURVE",
"702 665 CURVE SMOOTH",
"684 665 OFFCURVE",
"663 659 OFFCURVE",
"654 649 CURVE SMOOTH",
"596 587 LINE",
"562 597 OFFCURVE",
"527 601 OFFCURVE",
"491 601 CURVE SMOOTH",
"355 601 OFFCURVE",
"187 537 OFFCURVE",
"104 426 CURVE SMOOTH",
"100 420 OFFCURVE",
"98 415 OFFCURVE",
"98 411 CURVE SMOOTH",
"98 407 OFFCURVE",
"100 404 OFFCURVE",
"104 404 CURVE SMOOTH",
"108 404 OFFCURVE",
"113 406 OFFCURVE",
"120 412 CURVE SMOOTH",
"172 459 OFFCURVE",
"233 498 OFFCURVE",
"299 521 CURVE",
"194 431 OFFCURVE",
"59 294 OFFCURVE",
"59 146 CURVE SMOOTH",
"59 90 OFFCURVE",
"74 48 OFFCURVE",
"104 21 CURVE",
"4 -86 LINE SMOOTH",
"1 -89 OFFCURVE",
"0 -92 OFFCURVE",
"0 -94 CURVE SMOOTH",
"0 -98 OFFCURVE",
"6 -99 OFFCURVE",
"13 -99 CURVE SMOOTH"
);
},
{
closed = 1;
nodes = (
"104 65 OFFCURVE",
"94 95 OFFCURVE",
"94 136 CURVE SMOOTH",
"94 274 OFFCURVE",
"288 457 OFFCURVE",
"412 496 CURVE SMOOTH",
"418 498 OFFCURVE",
"423 502 OFFCURVE",
"423 509 CURVE SMOOTH",
"423 533 OFFCURVE",
"386 545 OFFCURVE",
"368 548 CURVE",
"414 563 OFFCURVE",
"462 570 OFFCURVE",
"510 570 CURVE SMOOTH",
"531 570 OFFCURVE",
"553 568 OFFCURVE",
"575 564 CURVE",
"425 400 OFFCURVE",
"287 225 OFFCURVE",
"126 45 CURVE"
);
},
{
closed = 1;
nodes = (
"189 18 OFFCURVE",
"170 21 OFFCURVE",
"155 27 CURVE",
"637 546 LINE",
"681 525 OFFCURVE",
"714 489 OFFCURVE",
"714 431 CURVE SMOOTH",
"714 228 OFFCURVE",
"398 18 OFFCURVE",
"211 18 CURVE SMOOTH"
);
}
);
width = 657;
}
);
note = Oslash;
unicode = 00D8;
},
{
glyphname = Otilde;
lastChange = "2021-10-01 07:33:16 +0000";
layers = (
{
background = {
paths = (
{
closed = 1;
nodes = (
"410 -25 OFFCURVE",
"761 161 OFFCURVE",
"761 377 CURVE SMOOTH",
"761 530 OFFCURVE",
"625 591 OFFCURVE",
"491 591 CURVE SMOOTH",
"355 591 OFFCURVE",
"187 527 OFFCURVE",
"104 416 CURVE SMOOTH",
"100 410 OFFCURVE",
"98 405 OFFCURVE",
"98 401 CURVE SMOOTH",
"98 397 OFFCURVE",
"100 394 OFFCURVE",
"104 394 CURVE SMOOTH",
"108 394 OFFCURVE",
"113 396 OFFCURVE",
"120 402 CURVE SMOOTH",
"172 449 OFFCURVE",
"233 488 OFFCURVE",
"299 511 CURVE",
"194 421 OFFCURVE",
"59 284 OFFCURVE",
"59 136 CURVE SMOOTH",
"59 30 OFFCURVE",
"114 -25 OFFCURVE",
"219 -25 CURVE SMOOTH"
);
},
{
closed = 1;
nodes = (
"134 8 OFFCURVE",
"94 48 OFFCURVE",
"94 126 CURVE SMOOTH",
"94 264 OFFCURVE",
"288 447 OFFCURVE",
"412 486 CURVE SMOOTH",
"418 488 OFFCURVE",
"423 492 OFFCURVE",
"423 499 CURVE SMOOTH",
"423 523 OFFCURVE",
"386 535 OFFCURVE",
"368 538 CURVE",
"414 553 OFFCURVE",
"462 560 OFFCURVE",
"510 560 CURVE SMOOTH",
"599 560 OFFCURVE",
"714 531 OFFCURVE",
"714 421 CURVE SMOOTH",
"714 218 OFFCURVE",
"398 8 OFFCURVE",
"211 8 CURVE SMOOTH"
);
},
{
closed = 1;
nodes = (
"483 663 OFFCURVE",
"487 665 OFFCURVE",
"491 671 CURVE SMOOTH",
"505 690 OFFCURVE",
"530 704 OFFCURVE",
"551 704 CURVE SMOOTH",
"590 704 OFFCURVE",
"615 676 OFFCURVE",
"647 676 CURVE SMOOTH",
"680 676 OFFCURVE",
"705 708 OFFCURVE",
"714 734 CURVE SMOOTH",
"716 739 OFFCURVE",
"712 742 OFFCURVE",
"708 742 CURVE SMOOTH",
"705 742 OFFCURVE",
"701 741 OFFCURVE",
"698 737 CURVE SMOOTH",
"687 724 OFFCURVE",
"674 716 OFFCURVE",
"656 716 CURVE SMOOTH",
"624 716 OFFCURVE",
"590 746 OFFCURVE",
"557 746 CURVE SMOOTH",
"506 746 OFFCURVE",
"481 701 OFFCURVE",
"477 681 CURVE SMOOTH",
"475 672 OFFCURVE",
"476 663 OFFCURVE",
"481 663 CURVE SMOOTH"
);
}
);
};
components = (
{
name = O;
},
{
name = tildecomb.case;
transform = "{1, 0, 0, 1, 506, 297}";
}
);
layerId = "C7EEC47D-2D39-4E2B-85C4-E2E866CE7804";
width = 698;
}
);
note = Otilde;
unicode = 00D5;
},
{
glyphname = OE;
lastChange = "2021-10-01 08:00:59 +0000";
layers = (
{
background = {
paths = (
{
closed = 1;
nodes = (
"801 -26 OFFCURVE",
"1073 65 OFFCURVE",
"1126 142 CURVE SMOOTH",
"1129 146 OFFCURVE",
"1130 150 OFFCURVE",
"1130 152 CURVE SMOOTH",
"1130 155 OFFCURVE",
"1129 156 OFFCURVE",
"1127 156 CURVE SMOOTH",
"1125 156 OFFCURVE",
"1123 155 OFFCURVE",
"1119 153 CURVE SMOOTH",
"1020 98 OFFCURVE",
"828 25 OFFCURVE",
"707 25 CURVE SMOOTH",
"634 25 OFFCURVE",
"611 59 OFFCURVE",
"611 104 CURVE SMOOTH",
"611 176 OFFCURVE",
"673 276 OFFCURVE",
"684 300 CURVE",
"792 345 OFFCURVE",
"925 324 OFFCURVE",
"1040 343 CURVE SMOOTH",
"1047 344 OFFCURVE",
"1077 354 OFFCURVE",
"1077 361 CURVE SMOOTH",
"1077 363 OFFCURVE",
"1074 365 OFFCURVE",
"1065 366 CURVE SMOOTH",
"1041 369 OFFCURVE",
"1016 369 OFFCURVE",
"992 369 CURVE SMOOTH",
"955 369 LINE SMOOTH",
"878 369 OFFCURVE",
"802 358 OFFCURVE",
"725 360 CURVE",
"748 391 OFFCURVE",
"839 506 OFFCURVE",
"865 523 CURVE SMOOTH",
"894 543 OFFCURVE",
"1027 549 OFFCURVE",
"1067 549 CURVE SMOOTH",
"1088 549 OFFCURVE",
"1125 550 OFFCURVE",
"1146 541 CURVE",
"1151 531 OFFCURVE",
"1158 527 OFFCURVE",
"1163 527 CURVE SMOOTH",
"1171 527 OFFCURVE",
"1178 536 OFFCURVE",
"1178 545 CURVE SMOOTH",
"1178 556 OFFCURVE",
"1170 569 OFFCURVE",
"1149 575 CURVE",
"1097 584 OFFCURVE",
"1044 584 OFFCURVE",
"994 584 CURVE SMOOTH",
"930 584 OFFCURVE",
"737 582 OFFCURVE",
"743 529 CURVE SMOOTH",
"746 505 OFFCURVE",
"759 517 OFFCURVE",
"766 504 CURVE",
"758 494 OFFCURVE",
"750 481 OFFCURVE",
"741 467 CURVE",
"699 555 OFFCURVE",
"595 591 OFFCURVE",
"491 591 CURVE SMOOTH",
"355 591 OFFCURVE",
"187 527 OFFCURVE",
"104 416 CURVE SMOOTH",
"100 410 OFFCURVE",
"98 405 OFFCURVE",
"98 401 CURVE SMOOTH",
"98 397 OFFCURVE",
"100 394 OFFCURVE",
"104 394 CURVE SMOOTH",
"108 394 OFFCURVE",
"113 396 OFFCURVE",
"120 402 CURVE SMOOTH",
"172 449 OFFCURVE",
"233 488 OFFCURVE",
"299 511 CURVE",
"194 421 OFFCURVE",
"59 284 OFFCURVE",
"59 136 CURVE SMOOTH",
"59 30 OFFCURVE",
"114 -25 OFFCURVE",
"219 -25 CURVE SMOOTH",
"313 -25 OFFCURVE",
"445 20 OFFCURVE",
"555 91 CURVE",
"555 89 OFFCURVE",
"556 87 OFFCURVE",
"556 85 CURVE SMOOTH",
"566 4 OFFCURVE",
"623 -26 OFFCURVE",
"697 -26 CURVE SMOOTH"
);
},
{
closed = 1;
nodes = (
"134 8 OFFCURVE",
"94 48 OFFCURVE",
"94 126 CURVE SMOOTH",
"94 264 OFFCURVE",
"288 447 OFFCURVE",
"412 486 CURVE SMOOTH",
"418 488 OFFCURVE",
"423 492 OFFCURVE",
"423 499 CURVE SMOOTH",
"423 523 OFFCURVE",
"386 535 OFFCURVE",
"368 538 CURVE",
"414 553 OFFCURVE",
"462 560 OFFCURVE",
"510 560 CURVE SMOOTH",
"597 560 OFFCURVE",
"710 532 OFFCURVE",
"714 426 CURVE",
"684 382 OFFCURVE",
"647 339 OFFCURVE",
"602 339 CURVE SMOOTH",
"598 339 OFFCURVE",
"589 341 OFFCURVE",
"581 341 CURVE SMOOTH",
"574 341 OFFCURVE",
"567 339 OFFCURVE",
"567 332 CURVE SMOOTH",
"567 303 OFFCURVE",
"610 303 OFFCURVE",
"628 302 CURVE",
"609 263 OFFCURVE",
"582 215 OFFCURVE",
"566 166 CURVE",
"459 73 OFFCURVE",
"315 8 OFFCURVE",
"211 8 CURVE SMOOTH"
);
}
);
};
layerId = "C7EEC47D-2D39-4E2B-85C4-E2E866CE7804";
paths = (
{
closed = 1;
nodes = (
"801 -16 OFFCURVE",
"1073 75 OFFCURVE",
"1126 152 CURVE SMOOTH",
"1129 156 OFFCURVE",
"1130 160 OFFCURVE",
"1130 162 CURVE SMOOTH",
"1130 165 OFFCURVE",
"1129 166 OFFCURVE",
"1127 166 CURVE SMOOTH",
"1125 166 OFFCURVE",
"1123 165 OFFCURVE",
"1119 163 CURVE SMOOTH",
"1020 108 OFFCURVE",
"828 35 OFFCURVE",
"707 35 CURVE SMOOTH",
"634 35 OFFCURVE",
"611 69 OFFCURVE",
"611 114 CURVE SMOOTH",
"611 186 OFFCURVE",
"673 286 OFFCURVE",
"684 310 CURVE",
"792 355 OFFCURVE",
"925 334 OFFCURVE",
"1040 353 CURVE SMOOTH",
"1047 354 OFFCURVE",
"1077 364 OFFCURVE",
"1077 371 CURVE SMOOTH",
"1077 373 OFFCURVE",
"1074 375 OFFCURVE",
"1065 376 CURVE SMOOTH",
"1041 379 OFFCURVE",
"1016 379 OFFCURVE",
"992 379 CURVE SMOOTH",
"955 379 LINE SMOOTH",
"878 379 OFFCURVE",
"802 368 OFFCURVE",
"725 370 CURVE",
"748 401 OFFCURVE",
"839 516 OFFCURVE",
"865 533 CURVE SMOOTH",
"894 553 OFFCURVE",
"1027 559 OFFCURVE",
"1067 559 CURVE SMOOTH",
"1088 559 OFFCURVE",
"1125 560 OFFCURVE",
"1146 551 CURVE",
"1151 541 OFFCURVE",
"1158 537 OFFCURVE",
"1163 537 CURVE SMOOTH",
"1171 537 OFFCURVE",
"1178 546 OFFCURVE",
"1178 555 CURVE SMOOTH",
"1178 566 OFFCURVE",
"1170 579 OFFCURVE",
"1149 585 CURVE",
"1097 594 OFFCURVE",
"1044 594 OFFCURVE",
"994 594 CURVE SMOOTH",
"930 594 OFFCURVE",
"737 592 OFFCURVE",
"743 539 CURVE SMOOTH",
"746 515 OFFCURVE",
"759 527 OFFCURVE",
"766 514 CURVE",
"758 504 OFFCURVE",
"750 491 OFFCURVE",
"741 477 CURVE",
"699 565 OFFCURVE",
"595 601 OFFCURVE",
"491 601 CURVE SMOOTH",
"355 601 OFFCURVE",
"187 537 OFFCURVE",
"104 426 CURVE SMOOTH",
"100 420 OFFCURVE",
"98 415 OFFCURVE",
"98 411 CURVE SMOOTH",
"98 407 OFFCURVE",
"100 404 OFFCURVE",
"104 404 CURVE SMOOTH",
"108 404 OFFCURVE",
"113 406 OFFCURVE",
"120 412 CURVE SMOOTH",
"172 459 OFFCURVE",
"233 498 OFFCURVE",
"299 521 CURVE",
"194 431 OFFCURVE",
"59 294 OFFCURVE",
"59 146 CURVE SMOOTH",
"59 40 OFFCURVE",
"114 -15 OFFCURVE",
"219 -15 CURVE SMOOTH",
"313 -15 OFFCURVE",
"445 30 OFFCURVE",
"555 101 CURVE",
"555 99 OFFCURVE",
"556 97 OFFCURVE",
"556 95 CURVE SMOOTH",
"566 14 OFFCURVE",
"623 -16 OFFCURVE",
"697 -16 CURVE SMOOTH"
);
},
{
closed = 1;
nodes = (
"134 18 OFFCURVE",
"94 58 OFFCURVE",
"94 136 CURVE SMOOTH",
"94 274 OFFCURVE",
"288 457 OFFCURVE",
"412 496 CURVE SMOOTH",
"418 498 OFFCURVE",
"423 502 OFFCURVE",
"423 509 CURVE SMOOTH",
"423 533 OFFCURVE",
"386 545 OFFCURVE",
"368 548 CURVE",
"414 563 OFFCURVE",
"462 570 OFFCURVE",
"510 570 CURVE SMOOTH",
"597 570 OFFCURVE",
"710 542 OFFCURVE",
"714 436 CURVE",
"684 392 OFFCURVE",
"647 349 OFFCURVE",
"602 349 CURVE SMOOTH",
"598 349 OFFCURVE",
"589 351 OFFCURVE",
"581 351 CURVE SMOOTH",
"574 351 OFFCURVE",
"567 349 OFFCURVE",
"567 342 CURVE SMOOTH",
"567 313 OFFCURVE",
"610 313 OFFCURVE",
"628 312 CURVE",
"609 273 OFFCURVE",
"582 225 OFFCURVE",
"566 176 CURVE",
"459 83 OFFCURVE",
"315 18 OFFCURVE",
"211 18 CURVE SMOOTH"
);
}
);
width = 1058;
}
);
note = OE;
unicode = 0152;
},
{
color = 9;
glyphname = P;
lastChange = "2021-10-08 03:45:14 +0000";
layers = (
{
background = {
paths = (
{
closed = 1;
nodes = (
"383 225 OFFCURVE",
"643 286 OFFCURVE",
"630 449 CURVE SMOOTH",
"621 574 OFFCURVE",
"434 596 OFFCURVE",
"344 596 CURVE SMOOTH",
"293 596 OFFCURVE",
"-5 569 OFFCURVE",
"-5 489 CURVE SMOOTH",
"-5 477 OFFCURVE",
"4 482 OFFCURVE",
"9 484 CURVE SMOOTH",
"100 529 OFFCURVE",
"246 569 OFFCURVE",
"351 569 CURVE SMOOTH",
"420 569 OFFCURVE",
"591 553 OFFCURVE",
"591 450 CURVE SMOOTH",
"591 322 OFFCURVE",
"335 263 OFFCURVE",
"224 248 CURVE SMOOTH",
"215 247 OFFCURVE",
"205 244 OFFCURVE",
"205 239 CURVE SMOOTH",
"205 236 OFFCURVE",
"209 233 OFFCURVE",
"221 229 CURVE SMOOTH",
"234 225 OFFCURVE",
"252 225 OFFCURVE",
"260 225 CURVE SMOOTH"
);
},
{
closed = 1;
nodes = (
"80 -24 OFFCURVE",
"81 -18 OFFCURVE",
"81 -13 CURVE SMOOTH",
"81 -10 LINE SMOOTH",
"64 206 OFFCURVE",
"369 502 OFFCURVE",
"368 524 CURVE SMOOTH",
"367 536 OFFCURVE",
"356 547 OFFCURVE",
"344 554 CURVE SMOOTH",
"340 557 OFFCURVE",
"336 558 OFFCURVE",
"332 558 CURVE SMOOTH",
"308 558 OFFCURVE",
"289 516 OFFCURVE",
"276 499 CURVE SMOOTH",
"178 370 OFFCURVE",
"39 140 OFFCURVE",
"48 26 CURVE SMOOTH",
"49 14 OFFCURVE",
"58 -24 OFFCURVE",
"75 -24 CURVE SMOOTH"
);
}
);
};
layerId = "C7EEC47D-2D39-4E2B-85C4-E2E866CE7804";
paths = (
{
closed = 1;
nodes = (
"383 235 OFFCURVE",
"643 296 OFFCURVE",
"630 459 CURVE SMOOTH",
"621 584 OFFCURVE",
"434 606 OFFCURVE",
"344 606 CURVE SMOOTH",
"293 606 OFFCURVE",
"-5 579 OFFCURVE",
"-5 499 CURVE SMOOTH",
"-5 493 OFFCURVE",
"-3 491 OFFCURVE",
"0 491 CURVE SMOOTH",
"3 491 OFFCURVE",
"7 493 OFFCURVE",
"9 494 CURVE SMOOTH",
"100 539 OFFCURVE",
"246 579 OFFCURVE",
"351 579 CURVE SMOOTH",
"420 579 OFFCURVE",
"591 563 OFFCURVE",
"591 460 CURVE SMOOTH",
"591 332 OFFCURVE",
"335 273 OFFCURVE",
"224 258 CURVE SMOOTH",
"215 257 OFFCURVE",
"205 254 OFFCURVE",
"205 249 CURVE SMOOTH",
"205 246 OFFCURVE",
"209 243 OFFCURVE",
"221 239 CURVE SMOOTH",
"234 235 OFFCURVE",
"252 235 OFFCURVE",
"260 235 CURVE SMOOTH"
);
},
{
closed = 1;
nodes = (
"80 -14 OFFCURVE",
"81 -8 OFFCURVE",
"81 -3 CURVE SMOOTH",
"81 0 LINE SMOOTH",
"64 216 OFFCURVE",
"369 512 OFFCURVE",
"368 534 CURVE SMOOTH",
"367 546 OFFCURVE",
"356 557 OFFCURVE",
"344 564 CURVE SMOOTH",
"340 567 OFFCURVE",
"336 568 OFFCURVE",
"332 568 CURVE SMOOTH",
"308 568 OFFCURVE",
"289 526 OFFCURVE",
"276 509 CURVE SMOOTH",
"178 380 OFFCURVE",
"39 150 OFFCURVE",
"48 36 CURVE SMOOTH",
"49 24 OFFCURVE",
"58 -14 OFFCURVE",
"75 -14 CURVE SMOOTH"
);
}
);
width = 461;
}
);
note = P;
unicode = 0050;
},
{
glyphname = Thorn;
lastChange = "2021-10-01 08:00:59 +0000";
layers = (
{
background = {
paths = (
{
closed = 1;
nodes = (
"80 -24 OFFCURVE",
"81 -18 OFFCURVE",
"81 -13 CURVE SMOOTH",
"81 -10 LINE SMOOTH",
"70 130 OFFCURVE",
"243 383 OFFCURVE",
"366 549 CURVE",
"444 542 OFFCURVE",
"551 514 OFFCURVE",
"551 433 CURVE SMOOTH",
"551 305 OFFCURVE",
"295 246 OFFCURVE",
"184 231 CURVE SMOOTH",
"175 230 OFFCURVE",
"165 227 OFFCURVE",
"165 222 CURVE SMOOTH",
"165 219 OFFCURVE",
"169 216 OFFCURVE",
"181 212 CURVE SMOOTH",
"194 208 OFFCURVE",
"212 208 OFFCURVE",
"220 208 CURVE SMOOTH",
"340 208 OFFCURVE",
"590 266 OFFCURVE",
"590 420 CURVE SMOOTH",
"590 523 OFFCURVE",
"479 560 OFFCURVE",
"384 573 CURVE",
"441 650 OFFCURVE",
"484 705 OFFCURVE",
"484 712 CURVE SMOOTH",
"483 724 OFFCURVE",
"472 735 OFFCURVE",
"460 742 CURVE SMOOTH",
"456 745 OFFCURVE",
"452 746 OFFCURVE",
"448 746 CURVE SMOOTH",
"424 746 OFFCURVE",
"405 704 OFFCURVE",
"392 687 CURVE SMOOTH",
"372 661 OFFCURVE",
"346 623 OFFCURVE",
"317 579 CURVE",
"304 579 LINE SMOOTH",
"254 579 OFFCURVE",
"151 558 OFFCURVE",
"151 516 CURVE SMOOTH",
"151 509 OFFCURVE",
"156 511 OFFCURVE",
"159 512 CURVE SMOOTH",
"203 534 OFFCURVE",
"261 549 OFFCURVE",
"299 551 CURVE",
"186 374 OFFCURVE",
"41 112 OFFCURVE",
"48 26 CURVE SMOOTH",
"49 14 OFFCURVE",
"58 -24 OFFCURVE",
"75 -24 CURVE SMOOTH"
);
}
);
};
layerId = "C7EEC47D-2D39-4E2B-85C4-E2E866CE7804";
paths = (
{
closed = 1;
nodes = (
"80 -14 OFFCURVE",
"81 -8 OFFCURVE",
"81 -3 CURVE SMOOTH",
"81 0 LINE SMOOTH",
"70 140 OFFCURVE",
"243 393 OFFCURVE",
"366 559 CURVE",
"444 552 OFFCURVE",
"551 524 OFFCURVE",
"551 443 CURVE SMOOTH",
"551 315 OFFCURVE",
"295 256 OFFCURVE",
"184 241 CURVE SMOOTH",
"175 240 OFFCURVE",
"165 237 OFFCURVE",
"165 232 CURVE SMOOTH",
"165 229 OFFCURVE",
"169 226 OFFCURVE",
"181 222 CURVE SMOOTH",
"194 218 OFFCURVE",
"212 218 OFFCURVE",
"220 218 CURVE SMOOTH",
"340 218 OFFCURVE",
"590 276 OFFCURVE",
"590 430 CURVE SMOOTH",
"590 533 OFFCURVE",
"479 570 OFFCURVE",
"384 583 CURVE",
"441 660 OFFCURVE",
"484 715 OFFCURVE",
"484 722 CURVE SMOOTH",
"483 734 OFFCURVE",
"472 745 OFFCURVE",
"460 752 CURVE SMOOTH",
"456 755 OFFCURVE",
"452 756 OFFCURVE",
"448 756 CURVE SMOOTH",
"424 756 OFFCURVE",
"405 714 OFFCURVE",
"392 697 CURVE SMOOTH",
"372 671 OFFCURVE",
"346 633 OFFCURVE",
"317 589 CURVE",
"304 589 LINE SMOOTH",
"254 589 OFFCURVE",
"151 568 OFFCURVE",
"151 526 CURVE SMOOTH",
"151 519 OFFCURVE",
"156 521 OFFCURVE",
"159 522 CURVE SMOOTH",
"203 544 OFFCURVE",
"261 559 OFFCURVE",
"299 561 CURVE",
"186 384 OFFCURVE",
"41 122 OFFCURVE",
"48 36 CURVE SMOOTH",
"49 24 OFFCURVE",
"58 -14 OFFCURVE",
"75 -14 CURVE SMOOTH"
);
}
);
width = 461;
}
);
note = Thorn;
unicode = 00DE;
},
{
color = 9;
glyphname = Q;
lastChange = "2021-10-08 03:45:14 +0000";
layers = (
{
background = {
paths = (
{
closed = 1;
nodes = (
"680 -110 OFFCURVE",
"709 -89 OFFCURVE",
"709 -51 CURVE SMOOTH",
"709 -35 OFFCURVE",
"697 -14 OFFCURVE",
"688 -14 CURVE SMOOTH",
"683 -14 OFFCURVE",
"679 -21 OFFCURVE",
"679 -40 CURVE SMOOTH",
"679 -68 OFFCURVE",
"664 -75 OFFCURVE",
"639 -75 CURVE SMOOTH",
"575 -75 OFFCURVE",
"489 -13 OFFCURVE",
"444 29 CURVE",
"564 72 OFFCURVE",
"755 218 OFFCURVE",
"755 359 CURVE SMOOTH",
"755 511 OFFCURVE",
"613 592 OFFCURVE",
"475 592 CURVE SMOOTH",
"411 592 OFFCURVE",
"171 530 OFFCURVE",
"171 446 CURVE SMOOTH",
"171 440 OFFCURVE",
"173 435 OFFCURVE",
"176 431 CURVE",
"104 353 OFFCURVE",
"24 235 OFFCURVE",
"24 125 CURVE SMOOTH",
"24 19 OFFCURVE",
"98 -30 OFFCURVE",
"197 -30 CURVE SMOOTH",
"245 -30 OFFCURVE",
"294 -21 OFFCURVE",
"340 -8 CURVE SMOOTH",
"395 7 LINE",
"401 7 OFFCURVE",
"556 -110 OFFCURVE",
"644 -110 CURVE SMOOTH"
);
},
{
closed = 1;
nodes = (
"124 7 OFFCURVE",
"56 31 OFFCURVE",
"56 112 CURVE SMOOTH",
"56 219 OFFCURVE",
"139 345 OFFCURVE",
"221 410 CURVE SMOOTH",
"281 457 OFFCURVE",
"352 489 OFFCURVE",
"423 516 CURVE SMOOTH",
"429 518 OFFCURVE",
"443 522 OFFCURVE",
"443 532 CURVE SMOOTH",
"443 541 OFFCURVE",
"427 549 OFFCURVE",
"418 552 CURVE",
"435 554 OFFCURVE",
"454 558 OFFCURVE",
"472 558 CURVE SMOOTH",
"576 558 OFFCURVE",
"718 505 OFFCURVE",
"718 381 CURVE SMOOTH",
"718 269 OFFCURVE",
"513 91 OFFCURVE",
"414 55 CURVE",
"380 84 OFFCURVE",
"276 182 OFFCURVE",
"236 182 CURVE SMOOTH",
"211 182 OFFCURVE",
"200 161 OFFCURVE",
"200 139 CURVE SMOOTH",
"200 115 OFFCURVE",
"204 107 OFFCURVE",
"213 107 CURVE SMOOTH",
"219 107 OFFCURVE",
"226 111 OFFCURVE",
"236 117 CURVE",
"281 104 OFFCURVE",
"320 64 OFFCURVE",
"357 36 CURVE",
"301 23 OFFCURVE",
"251 7 OFFCURVE",
"193 7 CURVE SMOOTH"
);
}
);
};
layerId = "C7EEC47D-2D39-4E2B-85C4-E2E866CE7804";
paths = (
{
closed = 1;
nodes = (
"680 -100 OFFCURVE",
"709 -79 OFFCURVE",
"709 -41 CURVE SMOOTH",
"709 -25 OFFCURVE",
"697 -4 OFFCURVE",
"688 -4 CURVE SMOOTH",
"683 -4 OFFCURVE",
"679 -11 OFFCURVE",
"679 -30 CURVE SMOOTH",
"679 -58 OFFCURVE",
"664 -65 OFFCURVE",
"639 -65 CURVE SMOOTH",
"575 -65 OFFCURVE",
"489 -3 OFFCURVE",
"444 39 CURVE",
"564 82 OFFCURVE",
"755 228 OFFCURVE",
"755 369 CURVE SMOOTH",
"755 521 OFFCURVE",
"613 602 OFFCURVE",
"475 602 CURVE SMOOTH",
"411 602 OFFCURVE",
"171 540 OFFCURVE",
"171 456 CURVE SMOOTH",
"171 450 OFFCURVE",
"173 445 OFFCURVE",
"176 441 CURVE",
"104 363 OFFCURVE",
"24 245 OFFCURVE",
"24 135 CURVE SMOOTH",
"24 29 OFFCURVE",
"98 -20 OFFCURVE",
"197 -20 CURVE SMOOTH",
"245 -20 OFFCURVE",
"294 -11 OFFCURVE",
"340 2 CURVE SMOOTH",
"395 17 LINE",
"401 17 OFFCURVE",
"556 -100 OFFCURVE",
"644 -100 CURVE SMOOTH"
);
},
{
closed = 1;
nodes = (
"124 17 OFFCURVE",
"56 41 OFFCURVE",
"56 122 CURVE SMOOTH",
"56 229 OFFCURVE",
"139 355 OFFCURVE",
"221 420 CURVE SMOOTH",
"281 467 OFFCURVE",
"352 499 OFFCURVE",
"423 526 CURVE SMOOTH",
"429 528 OFFCURVE",
"443 532 OFFCURVE",
"443 542 CURVE SMOOTH",
"443 551 OFFCURVE",
"427 559 OFFCURVE",
"418 562 CURVE",
"435 564 OFFCURVE",
"454 568 OFFCURVE",
"472 568 CURVE SMOOTH",
"576 568 OFFCURVE",
"718 515 OFFCURVE",
"718 391 CURVE SMOOTH",
"718 279 OFFCURVE",
"513 101 OFFCURVE",
"414 65 CURVE",
"380 94 OFFCURVE",
"276 192 OFFCURVE",
"236 192 CURVE SMOOTH",
"211 192 OFFCURVE",
"200 171 OFFCURVE",
"200 149 CURVE SMOOTH",
"200 125 OFFCURVE",
"204 117 OFFCURVE",
"213 117 CURVE SMOOTH",
"219 117 OFFCURVE",
"226 121 OFFCURVE",
"236 127 CURVE",
"281 114 OFFCURVE",
"320 74 OFFCURVE",
"357 46 CURVE",
"301 33 OFFCURVE",
"251 17 OFFCURVE",
"193 17 CURVE SMOOTH"
);
}
);
width = 694;
}
);
note = Q;
unicode = 0051;
},
{
color = 9;
glyphname = R;
lastChange = "2021-10-08 03:45:14 +0000";
layers = (
{
anchors = (
{
name = bottom;
position = "{277, 0}";
},
{
name = top;
position = "{494, 596}";
}
);
background = {
paths = (
{
closed = 1;
nodes = (
"537 -27 OFFCURVE",
"580 22 OFFCURVE",
"576 72 CURVE SMOOTH",
"575 86 OFFCURVE",
"563 127 OFFCURVE",
"545 127 CURVE SMOOTH",
"541 127 OFFCURVE",
"540 123 OFFCURVE",
"540 118 CURVE SMOOTH",
"540 112 LINE SMOOTH",
"543 80 OFFCURVE",
"539 0 OFFCURVE",
"494 0 CURVE SMOOTH",
"442 0 OFFCURVE",
"357 154 OFFCURVE",
"328 229 CURVE",
"457 244 OFFCURVE",
"640 305 OFFCURVE",
"640 438 CURVE SMOOTH",
"640 573 OFFCURVE",
"446 596 OFFCURVE",
"354 596 CURVE SMOOTH",
"303 596 OFFCURVE",
"4 569 OFFCURVE",
"4 489 CURVE SMOOTH",
"4 477 OFFCURVE",
"14 482 OFFCURVE",
"18 484 CURVE SMOOTH",
"109 529 OFFCURVE",
"256 569 OFFCURVE",
"360 569 CURVE SMOOTH",
"430 569 OFFCURVE",
"601 553 OFFCURVE",
"601 450 CURVE SMOOTH",
"601 321 OFFCURVE",
"344 263 OFFCURVE",
"234 248 CURVE SMOOTH",
"224 247 OFFCURVE",
"215 244 OFFCURVE",
"215 239 CURVE SMOOTH",
"215 236 OFFCURVE",
"219 233 OFFCURVE",
"230 229 CURVE SMOOTH",
"240 226 OFFCURVE",
"254 225 OFFCURVE",
"263 225 CURVE",
"300 160 OFFCURVE",
"380 46 OFFCURVE",
"427 0 CURVE SMOOTH",
"444 -16 OFFCURVE",
"463 -27 OFFCURVE",
"487 -27 CURVE SMOOTH"
);
},
{
closed = 1;
nodes = (
"106 -59 OFFCURVE",
"109 -52 OFFCURVE",
"109 -45 CURVE SMOOTH",
"109 -40 OFFCURVE",
"108 -36 OFFCURVE",
"104 -36 CURVE SMOOTH",
"95 -36 OFFCURVE",
"92 -26 OFFCURVE",
"92 -19 CURVE SMOOTH",
"87 47 OFFCURVE",
"165 174 OFFCURVE",
"188 218 CURVE SMOOTH",
"240 320 OFFCURVE",
"301 405 OFFCURVE",
"361 502 CURVE",
"367 509 OFFCURVE",
"372 519 OFFCURVE",
"372 528 CURVE SMOOTH",
"372 530 LINE SMOOTH",
"371 545 OFFCURVE",
"354 548 OFFCURVE",
"344 548 CURVE SMOOTH",
"334 548 OFFCURVE",
"314 546 OFFCURVE",
"308 537 CURVE SMOOTH",
"288 512 OFFCURVE",
"271 476 OFFCURVE",
"255 448 CURVE SMOOTH",
"202 357 OFFCURVE",
"59 105 OFFCURVE",
"59 -6 CURVE SMOOTH",
"59 -35 OFFCURVE",
"69 -59 OFFCURVE",
"99 -59 CURVE SMOOTH"
);
}
);
};
layerId = "C7EEC47D-2D39-4E2B-85C4-E2E866CE7804";
paths = (
{
closed = 1;
nodes = (
"537 -17 OFFCURVE",
"580 32 OFFCURVE",
"576 82 CURVE SMOOTH",
"575 96 OFFCURVE",
"563 137 OFFCURVE",
"545 137 CURVE SMOOTH",
"541 137 OFFCURVE",
"540 133 OFFCURVE",
"540 128 CURVE SMOOTH",
"540 122 LINE SMOOTH",
"540 90 OFFCURVE",
"539 10 OFFCURVE",
"494 10 CURVE SMOOTH",
"442 10 OFFCURVE",
"357 164 OFFCURVE",
"328 239 CURVE",
"457 254 OFFCURVE",
"640 315 OFFCURVE",
"640 448 CURVE SMOOTH",
"640 583 OFFCURVE",
"446 606 OFFCURVE",
"354 606 CURVE SMOOTH",
"303 606 OFFCURVE",
"4 579 OFFCURVE",
"4 499 CURVE SMOOTH",
"4 493 OFFCURVE",
"7 491 OFFCURVE",
"10 491 CURVE SMOOTH",
"13 491 OFFCURVE",
"16 493 OFFCURVE",
"18 494 CURVE SMOOTH",
"109 539 OFFCURVE",
"256 579 OFFCURVE",
"360 579 CURVE SMOOTH",
"430 579 OFFCURVE",
"601 563 OFFCURVE",
"601 460 CURVE SMOOTH",
"601 331 OFFCURVE",
"344 273 OFFCURVE",
"234 258 CURVE SMOOTH",
"224 257 OFFCURVE",
"215 254 OFFCURVE",
"215 249 CURVE SMOOTH",
"215 246 OFFCURVE",
"219 243 OFFCURVE",
"230 239 CURVE SMOOTH",
"240 236 OFFCURVE",
"254 235 OFFCURVE",
"263 235 CURVE",
"300 170 OFFCURVE",
"380 56 OFFCURVE",
"427 10 CURVE SMOOTH",
"444 -6 OFFCURVE",
"463 -17 OFFCURVE",
"487 -17 CURVE SMOOTH"
);
},
{
closed = 1;
nodes = (
"106 -49 OFFCURVE",
"109 -42 OFFCURVE",
"109 -35 CURVE SMOOTH",
"109 -30 OFFCURVE",
"108 -26 OFFCURVE",
"104 -26 CURVE SMOOTH",
"95 -26 OFFCURVE",
"92 -16 OFFCURVE",
"92 -9 CURVE SMOOTH",
"87 57 OFFCURVE",
"165 184 OFFCURVE",
"188 228 CURVE SMOOTH",
"240 330 OFFCURVE",
"301 415 OFFCURVE",
"361 512 CURVE",
"367 519 OFFCURVE",
"372 529 OFFCURVE",
"372 538 CURVE SMOOTH",
"372 540 LINE SMOOTH",
"372 555 OFFCURVE",
"354 558 OFFCURVE",
"344 558 CURVE SMOOTH",
"334 558 OFFCURVE",
"314 556 OFFCURVE",
"308 547 CURVE SMOOTH",
"288 522 OFFCURVE",
"271 486 OFFCURVE",
"255 458 CURVE SMOOTH",
"202 367 OFFCURVE",
"59 115 OFFCURVE",
"59 4 CURVE SMOOTH",
"59 -25 OFFCURVE",
"69 -49 OFFCURVE",
"99 -49 CURVE SMOOTH"
);
}
);
width = 554;
}
);
note = R;
unicode = 0052;
},
{
glyphname = Racute;
lastChange = "2021-10-01 07:33:16 +0000";
layers = (
{
background = {
paths = (
{
closed = 1;
nodes = (
"537 -27 OFFCURVE",
"580 22 OFFCURVE",
"576 72 CURVE SMOOTH",
"575 86 OFFCURVE",
"563 127 OFFCURVE",
"545 127 CURVE SMOOTH",
"541 127 OFFCURVE",
"540 123 OFFCURVE",
"540 118 CURVE SMOOTH",
"540 112 LINE SMOOTH",
"543 80 OFFCURVE",
"539 0 OFFCURVE",
"494 0 CURVE SMOOTH",
"442 0 OFFCURVE",
"357 154 OFFCURVE",
"328 229 CURVE",
"457 244 OFFCURVE",
"640 305 OFFCURVE",
"640 438 CURVE SMOOTH",
"640 573 OFFCURVE",
"446 596 OFFCURVE",
"354 596 CURVE SMOOTH",
"303 596 OFFCURVE",
"4 569 OFFCURVE",
"4 489 CURVE SMOOTH",
"4 477 OFFCURVE",
"14 482 OFFCURVE",
"18 484 CURVE SMOOTH",
"109 529 OFFCURVE",
"256 569 OFFCURVE",
"360 569 CURVE SMOOTH",
"430 569 OFFCURVE",
"601 553 OFFCURVE",
"601 450 CURVE SMOOTH",
"601 321 OFFCURVE",
"344 263 OFFCURVE",
"234 248 CURVE SMOOTH",
"224 247 OFFCURVE",
"215 244 OFFCURVE",
"215 239 CURVE SMOOTH",
"215 236 OFFCURVE",
"219 233 OFFCURVE",
"230 229 CURVE SMOOTH",
"240 226 OFFCURVE",
"254 225 OFFCURVE",
"263 225 CURVE",
"300 160 OFFCURVE",
"380 46 OFFCURVE",
"427 0 CURVE SMOOTH",
"444 -16 OFFCURVE",
"463 -27 OFFCURVE",
"487 -27 CURVE SMOOTH"
);
},
{
closed = 1;
nodes = (
"106 -59 OFFCURVE",
"109 -52 OFFCURVE",
"109 -45 CURVE SMOOTH",
"109 -40 OFFCURVE",
"108 -36 OFFCURVE",
"104 -36 CURVE SMOOTH",
"95 -36 OFFCURVE",
"92 -26 OFFCURVE",
"92 -19 CURVE SMOOTH",
"87 47 OFFCURVE",
"165 174 OFFCURVE",
"188 218 CURVE SMOOTH",
"240 320 OFFCURVE",
"301 405 OFFCURVE",
"361 502 CURVE",
"367 509 OFFCURVE",
"372 519 OFFCURVE",
"372 528 CURVE SMOOTH",
"372 530 LINE SMOOTH",
"371 545 OFFCURVE",
"354 548 OFFCURVE",
"344 548 CURVE SMOOTH",
"334 548 OFFCURVE",
"314 546 OFFCURVE",
"308 537 CURVE SMOOTH",
"288 512 OFFCURVE",
"271 476 OFFCURVE",
"255 448 CURVE SMOOTH",
"202 357 OFFCURVE",
"59 105 OFFCURVE",
"59 -6 CURVE SMOOTH",
"59 -35 OFFCURVE",
"69 -59 OFFCURVE",
"99 -59 CURVE SMOOTH"
);
},
{
closed = 1;
nodes = (
"415 672 OFFCURVE",
"526 714 OFFCURVE",
"540 724 CURVE",
"546 727 OFFCURVE",
"550 734 OFFCURVE",
"551 741 CURVE SMOOTH",
"551 747 OFFCURVE",
"542 763 OFFCURVE",
"534 763 CURVE SMOOTH",
"529 763 OFFCURVE",
"523 759 OFFCURVE",
"518 757 CURVE",
"485 735 OFFCURVE",
"435 709 OFFCURVE",
"406 685 CURVE SMOOTH",
"404 683 OFFCURVE",
"402 681 OFFCURVE",
"401 678 CURVE",
"401 675 OFFCURVE",
"404 673 OFFCURVE",
"408 673 CURVE SMOOTH"
);
}
);
};
components = (
{
name = R;
},
{
name = acutecomb.case;
transform = "{1, 0, 0, 1, 451, 296}";
}
);
layerId = "C7EEC47D-2D39-4E2B-85C4-E2E866CE7804";
width = 554;
}
);
note = Racute;
unicode = 0154;
},
{
glyphname = Rcaron;
lastChange = "2021-10-01 07:33:16 +0000";
layers = (
{
background = {
paths = (
{
closed = 1;
nodes = (
"537 -27 OFFCURVE",
"580 22 OFFCURVE",
"576 72 CURVE SMOOTH",
"575 86 OFFCURVE",
"563 127 OFFCURVE",
"545 127 CURVE SMOOTH",
"541 127 OFFCURVE",
"540 123 OFFCURVE",
"540 118 CURVE SMOOTH",
"540 112 LINE SMOOTH",
"543 80 OFFCURVE",
"539 0 OFFCURVE",
"494 0 CURVE SMOOTH",
"442 0 OFFCURVE",
"357 154 OFFCURVE",
"328 229 CURVE",
"457 244 OFFCURVE",
"640 305 OFFCURVE",
"640 438 CURVE SMOOTH",
"640 573 OFFCURVE",
"446 596 OFFCURVE",
"354 596 CURVE SMOOTH",
"303 596 OFFCURVE",
"4 569 OFFCURVE",
"4 489 CURVE SMOOTH",
"4 477 OFFCURVE",
"14 482 OFFCURVE",
"18 484 CURVE SMOOTH",
"109 529 OFFCURVE",
"256 569 OFFCURVE",
"360 569 CURVE SMOOTH",
"430 569 OFFCURVE",
"601 553 OFFCURVE",
"601 450 CURVE SMOOTH",
"601 321 OFFCURVE",
"344 263 OFFCURVE",
"234 248 CURVE SMOOTH",
"224 247 OFFCURVE",
"215 244 OFFCURVE",
"215 239 CURVE SMOOTH",
"215 236 OFFCURVE",
"219 233 OFFCURVE",
"230 229 CURVE SMOOTH",
"240 226 OFFCURVE",
"254 225 OFFCURVE",
"263 225 CURVE",
"300 160 OFFCURVE",
"380 46 OFFCURVE",
"427 0 CURVE SMOOTH",
"444 -16 OFFCURVE",
"463 -27 OFFCURVE",
"487 -27 CURVE SMOOTH"
);
},
{
closed = 1;
nodes = (
"106 -59 OFFCURVE",
"109 -52 OFFCURVE",
"109 -45 CURVE SMOOTH",
"109 -40 OFFCURVE",
"108 -36 OFFCURVE",
"104 -36 CURVE SMOOTH",
"95 -36 OFFCURVE",
"92 -26 OFFCURVE",
"92 -19 CURVE SMOOTH",
"87 47 OFFCURVE",
"165 174 OFFCURVE",
"188 218 CURVE SMOOTH",
"240 320 OFFCURVE",
"301 405 OFFCURVE",
"361 502 CURVE",
"367 509 OFFCURVE",
"372 519 OFFCURVE",
"372 528 CURVE SMOOTH",
"372 530 LINE SMOOTH",
"371 545 OFFCURVE",
"354 548 OFFCURVE",
"344 548 CURVE SMOOTH",
"334 548 OFFCURVE",
"314 546 OFFCURVE",
"308 537 CURVE SMOOTH",
"288 512 OFFCURVE",
"271 476 OFFCURVE",
"255 448 CURVE SMOOTH",
"202 357 OFFCURVE",
"59 105 OFFCURVE",
"59 -6 CURVE SMOOTH",
"59 -35 OFFCURVE",
"69 -59 OFFCURVE",
"99 -59 CURVE SMOOTH"
);
},
{
closed = 1;
nodes = (
"482 652 OFFCURVE",
"485 652 OFFCURVE",
"487 653 CURVE SMOOTH",
"499 659 OFFCURVE",
"597 749 OFFCURVE",
"607 757 CURVE SMOOTH",
"612 760 OFFCURVE",
"614 764 OFFCURVE",
"614 767 CURVE SMOOTH",
"614 770 OFFCURVE",
"611 773 OFFCURVE",
"606 773 CURVE SMOOTH",
"604 773 OFFCURVE",
"602 773 OFFCURVE",
"600 771 CURVE",
"569 749 OFFCURVE",
"508 701 OFFCURVE",
"495 691 CURVE",
"489 711 OFFCURVE",
"446 769 OFFCURVE",
"427 770 CURVE SMOOTH",
"421 770 OFFCURVE",
"418 768 OFFCURVE",
"418 764 CURVE SMOOTH",
"418 761 OFFCURVE",
"419 758 OFFCURVE",
"421 754 CURVE SMOOTH",
"439 725 OFFCURVE",
"457 694 OFFCURVE",
"467 657 CURVE",
"469 653 OFFCURVE",
"474 652 OFFCURVE",
"479 652 CURVE SMOOTH"
);
}
);
};
components = (
{
name = R;
},
{
name = caroncomb.case;
transform = "{1, 0, 0, 1, 437, 296}";
}
);
layerId = "C7EEC47D-2D39-4E2B-85C4-E2E866CE7804";
width = 554;
}
);
note = Rcaron;
unicode = 0158;
},
{
color = 9;
glyphname = S;
lastChange = "2021-10-08 03:45:14 +0000";
layers = (
{
anchors = (
{
name = bottom;
position = "{224, -27}";
},
{
name = top;
position = "{469, 591}";
}
);
background = {
paths = (
{
closed = 1;
nodes = (
"307 -44 OFFCURVE",
"385 -31 OFFCURVE",
"385 20 CURVE SMOOTH",
"385 108 OFFCURVE",
"185 235 OFFCURVE",
"185 329 CURVE SMOOTH",
"185 453 OFFCURVE",
"364 540 OFFCURVE",
"483 540 CURVE SMOOTH",
"492 540 OFFCURVE",
"500 540 OFFCURVE",
"508 539 CURVE SMOOTH",
"534 535 OFFCURVE",
"582 525 OFFCURVE",
"582 490 CURVE SMOOTH",
"582 417 OFFCURVE",
"469 340 OFFCURVE",
"456 310 CURVE",
"456 307 OFFCURVE",
"458 306 OFFCURVE",
"461 305 CURVE",
"465 305 OFFCURVE",
"469 306 OFFCURVE",
"473 308 CURVE SMOOTH",
"535 333 OFFCURVE",
"616 400 OFFCURVE",
"619 475 CURVE SMOOTH",
"621 546 OFFCURVE",
"537 573 OFFCURVE",
"483 579 CURVE SMOOTH",
"469 581 OFFCURVE",
"454 582 OFFCURVE",
"438 582 CURVE SMOOTH",
"309 582 OFFCURVE",
"154 517 OFFCURVE",
"154 372 CURVE SMOOTH",
"154 227 OFFCURVE",
"337 111 OFFCURVE",
"336 66 CURVE SMOOTH",
"334 21 OFFCURVE",
"268 11 OFFCURVE",
"218 11 CURVE SMOOTH",
"202 11 OFFCURVE",
"189 12 OFFCURVE",
"179 13 CURVE SMOOTH",
"153 16 OFFCURVE",
"131 33 OFFCURVE",
"108 33 CURVE SMOOTH",
"104 33 OFFCURVE",
"101 32 OFFCURVE",
"101 27 CURVE SMOOTH",
"100 -10 OFFCURVE",
"203 -40 OFFCURVE",
"228 -43 CURVE SMOOTH",
"235 -44 OFFCURVE",
"245 -44 OFFCURVE",
"255 -44 CURVE SMOOTH"
);
}
);
};
layerId = "C7EEC47D-2D39-4E2B-85C4-E2E866CE7804";
paths = (
{
closed = 1;
nodes = (
"307 -34 OFFCURVE",
"385 -21 OFFCURVE",
"385 30 CURVE SMOOTH",
"385 118 OFFCURVE",
"185 245 OFFCURVE",
"185 339 CURVE SMOOTH",
"185 463 OFFCURVE",
"364 550 OFFCURVE",
"483 550 CURVE SMOOTH",
"492 550 OFFCURVE",
"500 550 OFFCURVE",
"508 549 CURVE SMOOTH",
"534 545 OFFCURVE",
"582 535 OFFCURVE",
"582 500 CURVE SMOOTH",
"582 427 OFFCURVE",
"469 350 OFFCURVE",
"456 320 CURVE",
"456 317 OFFCURVE",
"458 316 OFFCURVE",
"461 315 CURVE",
"465 315 OFFCURVE",
"469 316 OFFCURVE",
"473 318 CURVE SMOOTH",
"536 343 OFFCURVE",
"619 412 OFFCURVE",
"619 487 CURVE SMOOTH",
"619 557 OFFCURVE",
"536 583 OFFCURVE",
"483 589 CURVE SMOOTH",
"469 591 OFFCURVE",
"454 592 OFFCURVE",
"438 592 CURVE SMOOTH",
"309 592 OFFCURVE",
"154 527 OFFCURVE",
"154 382 CURVE SMOOTH",
"154 237 OFFCURVE",
"337 121 OFFCURVE",
"336 76 CURVE SMOOTH",
"334 31 OFFCURVE",
"268 21 OFFCURVE",
"218 21 CURVE SMOOTH",
"202 21 OFFCURVE",
"189 22 OFFCURVE",
"179 23 CURVE SMOOTH",
"153 26 OFFCURVE",
"131 43 OFFCURVE",
"108 43 CURVE SMOOTH",
"104 43 OFFCURVE",
"101 42 OFFCURVE",
"101 37 CURVE SMOOTH",
"100 0 OFFCURVE",
"203 -30 OFFCURVE",
"228 -33 CURVE SMOOTH",
"235 -34 OFFCURVE",
"245 -34 OFFCURVE",
"255 -34 CURVE SMOOTH"
);
}
);
width = 448;
}
);
note = S;
unicode = 0053;
},
{
glyphname = Sacute;
lastChange = "2021-10-01 07:33:16 +0000";
layers = (
{
background = {
paths = (
{
closed = 1;
nodes = (
"307 -44 OFFCURVE",
"385 -31 OFFCURVE",
"385 20 CURVE SMOOTH",
"385 108 OFFCURVE",
"185 235 OFFCURVE",
"185 329 CURVE SMOOTH",
"185 453 OFFCURVE",
"364 540 OFFCURVE",
"483 540 CURVE SMOOTH",
"492 540 OFFCURVE",
"500 540 OFFCURVE",
"508 539 CURVE SMOOTH",
"534 535 OFFCURVE",
"582 525 OFFCURVE",
"582 490 CURVE SMOOTH",
"582 417 OFFCURVE",
"469 340 OFFCURVE",
"456 310 CURVE",
"456 307 OFFCURVE",
"458 306 OFFCURVE",
"461 305 CURVE",
"465 305 OFFCURVE",
"469 306 OFFCURVE",
"473 308 CURVE SMOOTH",
"535 333 OFFCURVE",
"616 400 OFFCURVE",
"619 475 CURVE SMOOTH",
"621 546 OFFCURVE",
"537 573 OFFCURVE",
"483 579 CURVE SMOOTH",
"469 581 OFFCURVE",
"454 582 OFFCURVE",
"438 582 CURVE SMOOTH",
"309 582 OFFCURVE",
"154 517 OFFCURVE",
"154 372 CURVE SMOOTH",
"154 227 OFFCURVE",
"337 111 OFFCURVE",
"336 66 CURVE SMOOTH",
"334 21 OFFCURVE",
"268 11 OFFCURVE",
"218 11 CURVE SMOOTH",
"202 11 OFFCURVE",
"189 12 OFFCURVE",
"179 13 CURVE SMOOTH",
"153 16 OFFCURVE",
"131 33 OFFCURVE",
"108 33 CURVE SMOOTH",
"104 33 OFFCURVE",
"101 32 OFFCURVE",
"101 27 CURVE SMOOTH",
"100 -10 OFFCURVE",
"203 -40 OFFCURVE",
"228 -43 CURVE SMOOTH",
"235 -44 OFFCURVE",
"245 -44 OFFCURVE",
"255 -44 CURVE SMOOTH"
);
},
{
closed = 1;
nodes = (
"471 651 OFFCURVE",
"582 693 OFFCURVE",
"596 703 CURVE",
"602 706 OFFCURVE",
"606 713 OFFCURVE",
"607 720 CURVE SMOOTH",
"607 726 OFFCURVE",
"598 742 OFFCURVE",
"590 742 CURVE SMOOTH",
"585 742 OFFCURVE",
"579 738 OFFCURVE",
"574 736 CURVE",
"541 714 OFFCURVE",
"491 688 OFFCURVE",
"462 664 CURVE SMOOTH",
"460 662 OFFCURVE",
"458 660 OFFCURVE",
"457 657 CURVE",
"457 654 OFFCURVE",
"460 652 OFFCURVE",
"464 652 CURVE SMOOTH"
);
}
);
};
components = (
{
name = S;
},
{
name = acutecomb.case;
transform = "{1, 0, 0, 1, 426, 291}";
}
);
layerId = "C7EEC47D-2D39-4E2B-85C4-E2E866CE7804";
width = 448;
}
);
note = Sacute;
unicode = 015A;
},
{
glyphname = Scaron;
lastChange = "2021-10-01 07:33:16 +0000";
layers = (
{
background = {
paths = (
{
closed = 1;
nodes = (
"208 -44 OFFCURVE",
"286 -31 OFFCURVE",
"286 20 CURVE SMOOTH",
"286 108 OFFCURVE",
"86 235 OFFCURVE",
"86 329 CURVE SMOOTH",
"86 453 OFFCURVE",
"265 540 OFFCURVE",
"384 540 CURVE SMOOTH",
"393 540 OFFCURVE",
"401 540 OFFCURVE",
"409 539 CURVE SMOOTH",
"435 535 OFFCURVE",
"483 525 OFFCURVE",
"483 490 CURVE SMOOTH",
"483 417 OFFCURVE",
"370 340 OFFCURVE",
"357 310 CURVE",
"357 307 OFFCURVE",
"359 306 OFFCURVE",
"362 305 CURVE",
"366 305 OFFCURVE",
"370 306 OFFCURVE",
"374 308 CURVE SMOOTH",
"436 333 OFFCURVE",
"517 400 OFFCURVE",
"520 475 CURVE SMOOTH",
"522 546 OFFCURVE",
"438 573 OFFCURVE",
"384 579 CURVE SMOOTH",
"370 581 OFFCURVE",
"355 582 OFFCURVE",
"339 582 CURVE SMOOTH",
"210 582 OFFCURVE",
"55 517 OFFCURVE",
"55 372 CURVE SMOOTH",
"55 227 OFFCURVE",
"238 111 OFFCURVE",
"237 66 CURVE SMOOTH",
"235 21 OFFCURVE",
"169 11 OFFCURVE",
"119 11 CURVE SMOOTH",
"103 11 OFFCURVE",
"90 12 OFFCURVE",
"80 13 CURVE SMOOTH",
"54 16 OFFCURVE",
"32 33 OFFCURVE",
"9 33 CURVE SMOOTH",
"5 33 OFFCURVE",
"2 32 OFFCURVE",
"2 27 CURVE SMOOTH",
"1 -10 OFFCURVE",
"104 -40 OFFCURVE",
"129 -43 CURVE SMOOTH",
"136 -44 OFFCURVE",
"146 -44 OFFCURVE",
"156 -44 CURVE SMOOTH"
);
},
{
closed = 1;
nodes = (
"379 644 OFFCURVE",
"382 644 OFFCURVE",
"384 645 CURVE SMOOTH",
"396 651 OFFCURVE",
"494 741 OFFCURVE",
"504 749 CURVE SMOOTH",
"509 752 OFFCURVE",
"511 756 OFFCURVE",
"511 759 CURVE SMOOTH",
"511 762 OFFCURVE",
"508 765 OFFCURVE",
"503 765 CURVE SMOOTH",
"501 765 OFFCURVE",
"499 765 OFFCURVE",
"497 763 CURVE",
"466 741 OFFCURVE",
"405 693 OFFCURVE",
"392 683 CURVE",
"386 703 OFFCURVE",
"343 761 OFFCURVE",
"324 762 CURVE SMOOTH",
"318 762 OFFCURVE",
"315 760 OFFCURVE",
"315 756 CURVE SMOOTH",
"315 753 OFFCURVE",
"316 750 OFFCURVE",
"318 746 CURVE SMOOTH",
"336 717 OFFCURVE",
"354 686 OFFCURVE",
"364 649 CURVE",
"366 645 OFFCURVE",
"371 644 OFFCURVE",
"376 644 CURVE SMOOTH"
);
}
);
};
components = (
{
name = S;
},
{
name = caroncomb.case;
transform = "{1, 0, 0, 1, 412, 291}";
}
);
layerId = "C7EEC47D-2D39-4E2B-85C4-E2E866CE7804";
width = 448;
}
);
note = Scaron;
unicode = 0160;
},
{
glyphname = Scedilla;
lastChange = "2021-10-01 07:33:16 +0000";
layers = (
{
background = {
paths = (
{
closed = 1;
nodes = (
"307 -44 OFFCURVE",
"385 -31 OFFCURVE",
"385 20 CURVE SMOOTH",
"385 108 OFFCURVE",
"185 235 OFFCURVE",
"185 329 CURVE SMOOTH",
"185 453 OFFCURVE",
"364 540 OFFCURVE",
"483 540 CURVE SMOOTH",
"492 540 OFFCURVE",
"500 540 OFFCURVE",
"508 539 CURVE SMOOTH",
"534 535 OFFCURVE",
"582 525 OFFCURVE",
"582 490 CURVE SMOOTH",
"582 417 OFFCURVE",
"469 340 OFFCURVE",
"456 310 CURVE",
"456 307 OFFCURVE",
"458 306 OFFCURVE",
"461 305 CURVE",
"465 305 OFFCURVE",
"469 306 OFFCURVE",
"473 308 CURVE SMOOTH",
"535 333 OFFCURVE",
"616 400 OFFCURVE",
"619 475 CURVE SMOOTH",
"621 546 OFFCURVE",
"537 573 OFFCURVE",
"483 579 CURVE SMOOTH",
"469 581 OFFCURVE",
"454 582 OFFCURVE",
"438 582 CURVE SMOOTH",
"309 582 OFFCURVE",
"154 517 OFFCURVE",
"154 372 CURVE SMOOTH",
"154 227 OFFCURVE",
"337 111 OFFCURVE",
"336 66 CURVE SMOOTH",
"334 21 OFFCURVE",
"268 11 OFFCURVE",
"218 11 CURVE SMOOTH",
"202 11 OFFCURVE",
"189 12 OFFCURVE",
"179 13 CURVE SMOOTH",
"153 16 OFFCURVE",
"131 33 OFFCURVE",
"108 33 CURVE SMOOTH",
"104 33 OFFCURVE",
"101 32 OFFCURVE",
"101 27 CURVE SMOOTH",
"100 -10 OFFCURVE",
"203 -40 OFFCURVE",
"228 -43 CURVE SMOOTH",
"235 -44 OFFCURVE",
"245 -44 OFFCURVE",
"255 -44 CURVE SMOOTH"
);
},
{
closed = 1;
nodes = (
"170 -188 OFFCURVE",
"223 -147 OFFCURVE",
"235 -101 CURVE SMOOTH",
"238 -86 OFFCURVE",
"233 -80 OFFCURVE",
"228 -80 CURVE SMOOTH",
"218 -80 OFFCURVE",
"197 -99 OFFCURVE",
"196 -112 CURVE SMOOTH",
"196 -117 OFFCURVE",
"199 -120 OFFCURVE",
"199 -123 CURVE SMOOTH",
"199 -125 LINE SMOOTH",
"197 -147 OFFCURVE",
"146 -183 OFFCURVE",
"145 -193 CURVE SMOOTH",
"145 -194 OFFCURVE",
"145 -195 OFFCURVE",
"146 -196 CURVE"
);
}
);
};
components = (
{
name = S;
},
{
name = cedillacomb;
transform = "{1, 0, 0, 1, 127, -27}";
}
);
layerId = "C7EEC47D-2D39-4E2B-85C4-E2E866CE7804";
width = 448;
}
);
note = Scedilla;
unicode = 015E;
},
{
glyphname = Germandbls;
lastChange = "2021-10-01 08:00:59 +0000";
layers = (
{
background = {
paths = (
{
closed = 1;
nodes = (
"39 -114 OFFCURVE",
"51 -101 OFFCURVE",
"58 -85 CURVE",
"186 152 OFFCURVE",
"291 380 OFFCURVE",
"416 521 CURVE SMOOTH",
"448 557 OFFCURVE",
"480 570 OFFCURVE",
"514 570 CURVE SMOOTH",
"552 570 OFFCURVE",
"569 551 OFFCURVE",
"569 525 CURVE SMOOTH",
"569 484 OFFCURVE",
"527 424 OFFCURVE",
"451 387 CURVE SMOOTH",
"392 358 OFFCURVE",
"338 346 OFFCURVE",
"338 291 CURVE SMOOTH",
"338 207 OFFCURVE",
"418 181 OFFCURVE",
"418 92 CURVE SMOOTH",
"418 31 OFFCURVE",
"329 -8 OFFCURVE",
"262 -8 CURVE SMOOTH",
"222 -8 OFFCURVE",
"190 6 OFFCURVE",
"190 38 CURVE SMOOTH",
"190 68 OFFCURVE",
"238 95 OFFCURVE",
"256 109 CURVE SMOOTH",
"264 115 OFFCURVE",
"268 119 OFFCURVE",
"268 121 CURVE SMOOTH",
"268 122 OFFCURVE",
"267 122 OFFCURVE",
"265 122 CURVE SMOOTH",
"261 122 OFFCURVE",
"253 120 OFFCURVE",
"244 117 CURVE SMOOTH",
"218 107 OFFCURVE",
"160 78 OFFCURVE",
"160 43 CURVE SMOOTH",
"160 6 OFFCURVE",
"190 -18 OFFCURVE",
"226 -25 CURVE SMOOTH",
"252 -30 OFFCURVE",
"277 -32 OFFCURVE",
"301 -32 CURVE SMOOTH",
"404 -32 OFFCURVE",
"480 13 OFFCURVE",
"480 91 CURVE SMOOTH",
"480 108 OFFCURVE",
"477 127 OFFCURVE",
"469 147 CURVE SMOOTH",
"451 193 OFFCURVE",
"434 206 OFFCURVE",
"402 263 CURVE SMOOTH",
"394 277 OFFCURVE",
"390 290 OFFCURVE",
"390 301 CURVE SMOOTH",
"390 335 OFFCURVE",
"424 354 OFFCURVE",
"460 370 CURVE SMOOTH",
"557 414 OFFCURVE",
"624 481 OFFCURVE",
"624 525 CURVE SMOOTH",
"624 569 OFFCURVE",
"556 595 OFFCURVE",
"492 595 CURVE SMOOTH",
"459 595 OFFCURVE",
"427 588 OFFCURVE",
"405 574 CURVE SMOOTH",
"358 544 OFFCURVE",
"133 160 OFFCURVE",
"48 -29 CURVE SMOOTH",
"31 -67 OFFCURVE",
"24 -90 OFFCURVE",
"24 -102 CURVE SMOOTH",
"24 -111 OFFCURVE",
"27 -114 OFFCURVE",
"31 -114 CURVE SMOOTH"
);
}
);
};
layerId = "C7EEC47D-2D39-4E2B-85C4-E2E866CE7804";
paths = (
{
closed = 1;
nodes = (
"39 -104 OFFCURVE",
"51 -91 OFFCURVE",
"58 -75 CURVE",
"186 162 OFFCURVE",
"291 390 OFFCURVE",
"416 531 CURVE SMOOTH",
"448 567 OFFCURVE",
"480 580 OFFCURVE",
"514 580 CURVE SMOOTH",
"552 580 OFFCURVE",
"569 561 OFFCURVE",
"569 535 CURVE SMOOTH",
"569 494 OFFCURVE",
"527 434 OFFCURVE",
"451 397 CURVE SMOOTH",
"392 368 OFFCURVE",
"338 356 OFFCURVE",
"338 301 CURVE SMOOTH",
"338 217 OFFCURVE",
"418 191 OFFCURVE",
"418 102 CURVE SMOOTH",
"418 41 OFFCURVE",
"329 2 OFFCURVE",
"262 2 CURVE SMOOTH",
"222 2 OFFCURVE",
"190 16 OFFCURVE",
"190 48 CURVE SMOOTH",
"190 78 OFFCURVE",
"238 105 OFFCURVE",
"256 119 CURVE SMOOTH",
"264 125 OFFCURVE",
"268 129 OFFCURVE",
"268 131 CURVE SMOOTH",
"268 132 OFFCURVE",
"267 132 OFFCURVE",
"265 132 CURVE SMOOTH",
"261 132 OFFCURVE",
"253 130 OFFCURVE",
"244 127 CURVE SMOOTH",
"218 117 OFFCURVE",
"160 88 OFFCURVE",
"160 53 CURVE SMOOTH",
"160 16 OFFCURVE",
"190 -8 OFFCURVE",
"226 -15 CURVE SMOOTH",
"252 -20 OFFCURVE",
"277 -22 OFFCURVE",
"301 -22 CURVE SMOOTH",
"404 -22 OFFCURVE",
"480 23 OFFCURVE",
"480 101 CURVE SMOOTH",
"480 118 OFFCURVE",
"477 137 OFFCURVE",
"469 157 CURVE SMOOTH",
"451 203 OFFCURVE",
"434 216 OFFCURVE",
"402 273 CURVE SMOOTH",
"394 287 OFFCURVE",
"390 300 OFFCURVE",
"390 311 CURVE SMOOTH",
"390 345 OFFCURVE",
"424 364 OFFCURVE",
"460 380 CURVE SMOOTH",
"557 424 OFFCURVE",
"624 491 OFFCURVE",
"624 535 CURVE SMOOTH",
"624 579 OFFCURVE",
"556 605 OFFCURVE",
"492 605 CURVE SMOOTH",
"459 605 OFFCURVE",
"427 598 OFFCURVE",
"405 584 CURVE SMOOTH",
"358 554 OFFCURVE",
"133 170 OFFCURVE",
"48 -19 CURVE SMOOTH",
"31 -57 OFFCURVE",
"24 -80 OFFCURVE",
"24 -92 CURVE SMOOTH",
"24 -101 OFFCURVE",
"27 -104 OFFCURVE",
"31 -104 CURVE SMOOTH"
);
}
);
width = 518;
}
);
unicode = 1E9E;
},
{
glyphname = Schwa;
lastChange = "2021-10-01 08:00:59 +0000";
layers = (
{
background = {
paths = (
{
closed = 1;
nodes = (
"354 -14 OFFCURVE",
"637 277 OFFCURVE",
"621 458 CURVE SMOOTH",
"612 560 OFFCURVE",
"534 606 OFFCURVE",
"440 607 CURVE SMOOTH",
"308 610 OFFCURVE",
"127 504 OFFCURVE",
"41 416 CURVE SMOOTH",
"35 410 OFFCURVE",
"33 402 OFFCURVE",
"33 397 CURVE SMOOTH",
"33 394 OFFCURVE",
"33 392 OFFCURVE",
"35 392 CURVE SMOOTH",
"36 392 OFFCURVE",
"36 392 OFFCURVE",
"37 393 CURVE SMOOTH",
"85 430 OFFCURVE",
"292 579 OFFCURVE",
"448 579 CURVE SMOOTH",
"503 579 OFFCURVE",
"559 550 OFFCURVE",
"565 490 CURVE SMOOTH",
"580 325 OFFCURVE",
"338 10 OFFCURVE",
"168 10 CURVE SMOOTH",
"144 10 OFFCURVE",
"123 20 OFFCURVE",
"123 48 CURVE SMOOTH",
"123 115 OFFCURVE",
"237 318 OFFCURVE",
"549 340 CURVE",
"548 346 OFFCURVE",
"566 359 OFFCURVE",
"566 362 CURVE",
"565 362 LINE SMOOTH",
"173 362 OFFCURVE",
"79 109 OFFCURVE",
"83 64 CURVE SMOOTH",
"87 16 OFFCURVE",
"129 -14 OFFCURVE",
"175 -14 CURVE SMOOTH"
);
}
);
};
layerId = "C7EEC47D-2D39-4E2B-85C4-E2E866CE7804";
paths = (
{
closed = 1;
nodes = (
"354 -4 OFFCURVE",
"637 287 OFFCURVE",
"621 468 CURVE SMOOTH",
"612 572 OFFCURVE",
"531 617 OFFCURVE",
"434 617 CURVE SMOOTH",
"303 617 OFFCURVE",
"126 513 OFFCURVE",
"41 426 CURVE SMOOTH",
"35 420 OFFCURVE",
"33 412 OFFCURVE",
"33 407 CURVE SMOOTH",
"33 404 OFFCURVE",
"33 402 OFFCURVE",
"35 402 CURVE SMOOTH",
"36 402 OFFCURVE",
"36 402 OFFCURVE",
"37 403 CURVE SMOOTH",
"85 440 OFFCURVE",
"292 589 OFFCURVE",
"448 589 CURVE SMOOTH",
"503 589 OFFCURVE",
"559 560 OFFCURVE",
"565 500 CURVE SMOOTH",
"580 335 OFFCURVE",
"338 20 OFFCURVE",
"168 20 CURVE SMOOTH",
"144 20 OFFCURVE",
"123 30 OFFCURVE",
"123 58 CURVE SMOOTH",
"123 125 OFFCURVE",
"237 328 OFFCURVE",
"549 350 CURVE",
"548 356 OFFCURVE",
"566 369 OFFCURVE",
"566 372 CURVE",
"565 372 LINE SMOOTH",
"173 372 OFFCURVE",
"79 119 OFFCURVE",
"83 74 CURVE SMOOTH",
"87 26 OFFCURVE",
"129 -4 OFFCURVE",
"175 -4 CURVE SMOOTH"
);
}
);
width = 554;
}
);
unicode = 018F;
},
